<svg width="240" height="140" viewBox="0 0 240 140" fill="none" xmlns="http://www.w3.org/2000/svg">
<path d="M20.1131 139.015H239.561L231.735 67.4363C223.191 2.36564 159.927 -19.2348 114.77 18.6558C96.4332 30.5839 74.9825 34.357 54.0409 31.8216C13.2756 27.4497 -15.2121 83.2873 8.79386 120.329L20.1131 139.015Z" fill="url(#paint0_linear_13_430)"/>
<mask id="mask0_13_430" style="mask-type:luminance" maskUnits="userSpaceOnUse" x="0" y="0" width="240" height="140">
<path d="M20.1131 139.015H239.561L231.735 67.4363C223.191 2.36564 159.927 -19.2348 114.77 18.6558C96.4332 30.5839 74.9825 34.357 54.0409 31.8216C13.2756 27.4497 -15.2121 83.2873 8.79386 120.329L20.1131 139.015Z" fill="white"/>
</mask>
<g mask="url(#mask0_13_430)">
<path style="mix-blend-mode:multiply" d="M0.0598717 138.286V89.1166H33.0694V64.1224H91.7917V95.1056H158.38V69.6224H204.775V85.3535H240V139.065L0.0598717 138.286Z" fill="url(#paint1_linear_13_430)"/>
</g>
<path d="M173.901 48.8704H158.24C157.292 48.8704 156.463 49.5192 156.234 50.4375L136.939 127.706H138.356L157.491 51.0763C157.601 50.6471 157.99 50.3377 158.43 50.3377H173.881C174.28 50.3377 174.61 50.0083 174.61 49.609C174.61 49.2097 174.28 48.8803 173.881 48.8803L173.901 48.8704Z" fill="#324D90"/>
<path d="M229.689 48.9303H214.008C213.059 48.9303 212.231 49.5791 212.001 50.4974L192.707 127.766H194.124L213.259 51.1363C213.369 50.707 213.758 50.3976 214.197 50.3976H229.679C230.078 50.3976 230.408 50.0682 230.408 49.6689C230.408 49.2697 230.078 48.9403 229.679 48.9403L229.689 48.9303Z" fill="#324D90"/>
<path d="M156.453 131.409C156.423 128.424 155.285 125.011 152.291 123.963C150.913 123.653 149.456 123.873 148.059 123.813C144.345 123.274 141.69 126.558 141.62 131.409C141.7 136.26 144.345 139.544 148.059 139.005C149.466 138.955 150.913 139.175 152.291 138.855C155.265 137.847 156.443 134.324 156.453 131.409Z" fill="#152E60"/>
<path d="M129.972 128.115C129.293 126.029 127.646 123.813 125.27 123.803C123.783 123.803 122.236 123.803 120.779 123.803C117.904 123.873 115.598 127.317 115.648 131.529C115.698 135.681 118.024 139.035 120.898 139.005C122.356 139.005 123.813 139.005 125.27 139.005C128.914 138.835 130.511 134.573 130.491 131.399C130.491 130.221 130.301 129.103 129.972 128.105V128.115Z" fill="#152E60"/>
<path d="M203.497 82.5387H165.966V128.814H203.497V82.5387Z" fill="#6900BC"/>
<path d="M190.361 82.5387H185.919V87.819H190.361V82.5387Z" fill="#FDF1E6"/>
<path d="M172.194 82.5387H115.648V128.814H172.194V82.5387Z" fill="#B971FF"/>
<path d="M147.26 82.5387H140.562V87.819H147.26V82.5387Z" fill="#FDF1E6"/>
<path d="M208.887 128.405H110.258V131.04H208.887V128.405Z" fill="#324D90"/>
<path d="M159.567 128.405H110.258V131.04H159.567V128.405Z" fill="#152E60"/>
<path d="M200.353 123.803C199.215 123.803 198.067 123.803 196.929 123.803C189.173 122.705 188.724 138.766 195.951 139.015C197.089 139.015 198.237 139.015 199.374 139.015C207.13 140.113 207.579 124.053 200.353 123.803Z" fill="#152E60"/>
<path d="M205.573 131.409C205.433 141.421 195.272 141.421 195.132 131.409C195.272 121.397 205.433 121.397 205.573 131.409Z" fill="#324D90"/>
<path d="M202.229 131.409C202.179 135.262 198.536 135.262 198.486 131.409C198.536 127.556 202.179 127.556 202.229 131.409Z" fill="#152E60"/>
<path d="M174.39 123.803C173.252 123.803 172.104 123.803 170.967 123.803C163.211 122.705 162.762 138.766 169.988 139.015C171.126 139.015 172.274 139.015 173.412 139.015C181.168 140.113 181.617 124.053 174.39 123.803Z" fill="#152E60"/>
<path d="M179.611 131.409C179.471 141.421 169.31 141.421 169.17 131.409C169.31 121.397 179.471 121.397 179.611 131.409Z" fill="#324D90"/>
<path d="M176.267 131.409C176.217 135.262 172.574 135.262 172.524 131.409C172.574 127.556 176.217 127.556 176.267 131.409Z" fill="#152E60"/>
<path d="M113.272 40.0366L99.6473 51.7252L95.2454 46.6245L89.5258 52.1444C90.1946 52.933 94.2073 57.5445 94.7563 58.2233C96.9722 60.9682 101.294 60.9782 103.52 58.2432L115.927 43.6799L113.282 40.0266L113.272 40.0366Z" fill="#F4AF9F"/>
<path d="M120.749 42.5021H108.212C107.511 42.5021 106.944 43.0696 106.944 43.7697V63.5335C106.944 64.2336 107.511 64.8012 108.212 64.8012H120.749C121.449 64.8012 122.016 64.2336 122.016 63.5335V43.7697C122.016 43.0696 121.449 42.5021 120.749 42.5021Z" fill="#324D90"/>
<path d="M120.549 44.209H108.421V63.0844H120.549V44.209Z" fill="#F3F5FB"/>
<path d="M116.556 42.0029H112.404C112.123 42.0029 111.895 42.2308 111.895 42.512V44.2288C111.895 44.51 112.123 44.7379 112.404 44.7379H116.556C116.837 44.7379 117.065 44.51 117.065 44.2288V42.512C117.065 42.2308 116.837 42.0029 116.556 42.0029Z" fill="#152E60"/>
<path d="M119.471 47.3632H109.489V48.6508H119.471V47.3632Z" fill="#003759"/>
<path d="M119.471 50.188H109.489V51.4756H119.471V50.188Z" fill="#003759"/>
<path d="M119.471 53.0028H109.489V54.2904H119.471V53.0028Z" fill="#003759"/>
<path d="M119.471 55.8276H109.489V57.1153H119.471V55.8276Z" fill="#003759"/>
<path d="M116.486 58.6425H109.489V59.9301H116.486V58.6425Z" fill="#003759"/>
<path d="M112.504 41.484C112.314 43.1709 113.622 44.0493 114.859 44.7081C116.676 45.8859 119.191 43.9594 118.642 41.7635C118.443 40.2163 117.505 39.4577 116.137 39.0984C114.6 38.5693 112.624 39.6973 112.504 41.484Z" fill="#F4AF9F"/>
<path d="M61.3974 43.2507L76.1903 35.0458L80.9116 44.5683L66.1188 52.7733L61.3974 43.2507Z" fill="url(#paint2_linear_13_430)"/>
<path d="M92.72 57.4446L80.9116 44.9475L88.0985 37.3514L99.9068 49.8485L92.72 57.4446Z" fill="url(#paint3_linear_13_430)"/>
<path d="M92.9695 57.1851L90.9932 45.6962L94.337 55.7378L92.9695 57.1851Z" fill="#3C7ED7"/>
<path d="M68.1351 63.1243L69.4027 133.116H73.8546L83.1775 62.9646L68.1351 63.1243Z" fill="#003759"/>
<mask id="mask1_13_430" style="mask-type:luminance" maskUnits="userSpaceOnUse" x="68" y="62" width="16" height="72">
<path d="M68.1351 63.1243L69.4027 133.116H73.8546L83.1775 62.9646L68.1351 63.1243Z" fill="white"/>
</mask>
<g mask="url(#mask1_13_430)">
<g style="mix-blend-mode:multiply" opacity="0.7">
<path d="M80.6721 81.7601C74.2039 90.8435 72.2575 120.988 71.7484 134.064H75.6513L80.4824 101.993L80.6721 81.7601Z" fill="#003759"/>
</g>
</g>
<path d="M93.269 63.1243L92.0113 133.116H87.3498L78.2365 62.9646L93.269 63.1243Z" fill="#003759"/>
<mask id="mask2_13_430" style="mask-type:luminance" maskUnits="userSpaceOnUse" x="78" y="62" width="16" height="72">
<path d="M93.269 63.1243L92.0113 133.116H87.3498L78.2365 62.9646L93.269 63.1243Z" fill="white"/>
</mask>
<g mask="url(#mask2_13_430)">
<g style="mix-blend-mode:multiply" opacity="0.7">
<path d="M80.6721 81.7601C86.172 89.1466 89.2064 123.054 89.3362 133.655H85.7528L80.6721 81.7601Z" fill="#003759"/>
</g>
</g>
<path d="M76.36 24.4252C76.6994 26.6012 74.9326 26.9206 74.5733 24.7446C74.2339 22.5686 76.0007 22.2491 76.36 24.4252Z" fill="#F4AF9F"/>
<path d="M84.8844 24.4252C84.545 26.6012 86.3117 26.9206 86.6711 24.7446C87.0105 22.5686 85.2437 22.2491 84.8844 24.4252Z" fill="#F4AF9F"/>
<path d="M85.6829 24.6947C85.5531 33.269 75.6812 33.269 75.5614 24.6947C74.6631 15.9208 86.3217 15.831 85.6829 24.6947Z" fill="#F4AF9F"/>
<path d="M83.2474 26.2719H77.997C78.6258 28.1883 77.2484 37.7608 77.2484 37.7608H83.996C83.996 37.7608 82.6185 28.1883 83.2474 26.2719Z" fill="#F4AF9F"/>
<path d="M76.2402 20.0732C76.2402 20.0732 82.8581 20.7719 84.5649 19.6939C86.2718 18.6159 85.9125 14.9725 85.9125 14.9725C84.9443 15.1322 73.9444 14.8528 76.2402 20.0732Z" fill="#003759"/>
<path d="M76.37 17.7374C76.37 17.7374 74.5234 18.3263 74.2938 19.1249C74.0742 19.9234 75.6213 23.0277 75.6213 23.0277C76.0406 23.0277 76.3999 22.7183 76.4897 22.2891L77.0687 19.6739L76.37 17.7374Z" fill="#003759"/>
<path d="M84.8544 17.7374C84.8544 17.7374 86.701 18.3263 86.9306 19.1249C87.1502 19.9234 85.6031 23.0277 85.6031 23.0277C85.1838 23.0377 84.7945 22.6684 84.7346 22.2891C84.7247 22.2392 84.1557 19.6739 84.1557 19.6739L84.8544 17.7374Z" fill="#003759"/>
<path d="M70.1514 133.116L69.6623 134.933L64.362 137.338C63.7331 137.628 63.3239 138.286 63.3239 139.005H74.2838L73.8646 133.106H70.1613L70.1514 133.116Z" fill="#152E60"/>
<path d="M91.053 133.116L91.5421 134.933L96.8424 137.338C97.4713 137.628 97.8805 138.286 97.8805 139.005H86.9206L87.3399 133.106H91.0431L91.053 133.116Z" fill="#152E60"/>
<path d="M91.103 44.1391C90.1048 37.102 85.0241 33.5784 79.3345 34.357C74.7929 34.1773 70.6904 39.0684 70.1314 44.149C70.0615 44.6581 66.4182 70.0715 66.4182 70.0715H94.8162L91.103 44.1391Z" fill="url(#paint4_linear_13_430)"/>
<mask id="mask3_13_430" style="mask-type:luminance" maskUnits="userSpaceOnUse" x="66" y="34" width="29" height="37">
<path d="M91.103 44.1391C90.1048 37.102 85.0241 33.5784 79.3345 34.357C74.7929 34.1773 70.6904 39.0684 70.1314 44.149C70.0615 44.6581 66.4182 70.0715 66.4182 70.0715H94.8162L91.103 44.1391Z" fill="white"/>
</mask>
<g mask="url(#mask3_13_430)">
<path d="M77.6576 70.7204L82.888 64.7912L71.9381 45.9857L75.6712 63.4537L64.4518 71.7984L77.6576 70.7204Z" fill="#3C7ED7"/>
</g>
<path d="M79.7737 64.5716L58.4329 74.6432L50.5872 56.0473L71.9381 45.9857L79.7737 64.5716Z" fill="#B971FF"/>
<path d="M64.1025 53.0328L60.7785 54.5899L59.6007 51.7951L62.9246 50.2379L64.1025 53.0328Z" fill="#FDF1E6"/>
<path d="M60.7786 54.5899L65.5797 51.1861L62.2259 44.9276C59.3811 46.6944 54.7097 48.531 54.7796 52.7632C55.0391 54.4901 52.893 73.6649 54.6498 74.4934C56.726 76.9888 59.0018 74.9426 60.9083 73.4653L58.2532 73.4353L60.7885 54.5799L60.7786 54.5899Z" fill="#F4AF9F"/>
<path d="M56.5962 71.7983C57.7242 72.0579 59.9002 71.978 60.1098 73.615L56.5962 73.8047V71.7983Z" fill="#F4AF9F"/>
<path d="M77.6576 34.5466C78.6857 37.7607 82.5487 37.7607 83.5768 34.5466C83.5768 34.5466 81.0414 33.0992 77.6576 34.5466Z" fill="#F4AF9F"/>
<g style="mix-blend-mode:multiply" opacity="0.7">
<path d="M68.2449 70.0815H93.1492L68.3547 75.1822L68.2449 70.0815Z" fill="#003759"/>
</g>
<path d="M77.6576 34.5466L80.4824 36.9722L79.3146 37.7508C77.448 38.7889 77.1486 36.0539 76.6894 34.8361C76.6894 34.8361 77.1785 34.6065 77.6576 34.5466Z" fill="#F3F5FB"/>
<path d="M81.1911 36.9123L82.2891 37.631C83.0577 38.14 84.0758 37.6709 84.2455 36.7226L84.5849 34.8561C84.5849 34.8561 83.8163 34.5866 83.5768 34.5466L81.1911 36.9123Z" fill="#F3F5FB"/>
<path d="M47.8423 100.276H15.7811V139.015H47.8423V100.276Z" fill="#B971FF"/>
<path d="M34.2871 100.276H29.3362V104.039H34.2871V100.276Z" fill="#FDF1E6"/>
<path d="M64.5916 100.276H47.8423V139.015H64.5916V100.276Z" fill="#6900BC"/>
<path d="M59.2314 100.276H54.9892V104.039H59.2314V100.276Z" fill="#FDF1E6"/>
<path d="M176.796 20.0332H139.015C137.984 20.0332 137.149 20.8689 137.149 21.8998V34.3969C137.149 35.4278 137.984 36.2635 139.015 36.2635H176.796C177.827 36.2635 178.662 35.4278 178.662 34.3969V21.8998C178.662 20.8689 177.827 20.0332 176.796 20.0332Z" fill="#0086D1"/>
<path d="M175.478 22.7283H140.333V24.7645H175.478V22.7283Z" fill="#DEEEFC"/>
<path d="M175.478 27.1302H140.333V29.1665H175.478V27.1302Z" fill="#DEEEFC"/>
<path d="M163.67 31.5322H140.333V33.5685H163.67V31.5322Z" fill="#DEEEFC"/>
<path d="M46.4947 28.9569C43.6599 52.9728 30.0449 52.9529 27.2201 28.9569C27.4397 16.2901 46.2851 16.2901 46.4947 28.9569Z" fill="#324D90"/>
<path d="M42.0229 28.4478C41.9032 35.2254 31.8216 35.2254 31.7019 28.4478C31.8216 21.6702 41.9032 21.6702 42.0229 28.4478Z" fill="white"/>
<path d="M48.4512 74.4535H18.7656C18.2364 74.4535 17.8073 74.8825 17.8073 75.4117V85.7628C17.8073 86.292 18.2364 86.721 18.7656 86.721H48.4512C48.9804 86.721 49.4094 86.292 49.4094 85.7628V75.4117C49.4094 74.8825 48.9804 74.4535 48.4512 74.4535Z" fill="#D4E8FC"/>
<path d="M46.9838 72.9662H17.8473C17.0534 72.9662 16.4099 73.6097 16.4099 74.4036V84.0459C16.4099 84.8397 17.0534 85.4832 17.8473 85.4832H46.9838C47.7777 85.4832 48.4212 84.8397 48.4212 84.0459V74.4036C48.4212 73.6097 47.7777 72.9662 46.9838 72.9662Z" fill="#0086D1"/>
<path d="M45.9757 75.0424H18.8654V76.6095H45.9757V75.0424Z" fill="#DEEEFC"/>
<path d="M45.9757 78.4362H18.8654V80.0033H45.9757V78.4362Z" fill="#DEEEFC"/>
<path d="M36.8624 81.83H18.8654V83.3971H36.8624V81.83Z" fill="#DEEEFC"/>
<path style="mix-blend-mode:overlay" d="M131.649 105.676H115.648V116.886H131.649C132.357 116.886 132.936 116.307 132.936 115.598V106.964C132.936 106.255 132.357 105.676 131.649 105.676Z" fill="url(#paint5_linear_13_430)"/>
<path d="M130.121 104.019H104.019C103.308 104.019 102.732 104.596 102.732 105.307V113.941C102.732 114.652 103.308 115.229 104.019 115.229H130.121C130.833 115.229 131.409 114.652 131.409 113.941V105.307C131.409 104.596 130.833 104.019 130.121 104.019Z" fill="#0086D1"/>
<path d="M129.213 105.886H104.928V107.293H129.213V105.886Z" fill="#DEEEFC"/>
<path d="M129.213 108.92H104.928V110.328H129.213V108.92Z" fill="#DEEEFC"/>
<path d="M121.048 111.965H104.928V113.372H121.048V111.965Z" fill="#DEEEFC"/>
<path d="M205.074 32.4305L199.185 44.2888C199.065 44.5284 198.726 44.5184 198.616 44.2788L197.099 40.8152L205.074 32.4405V32.4305Z" fill="#324D90"/>
<path d="M197.099 40.8052L192.986 39.4377L205.074 32.4305L197.099 40.8052Z" fill="#4292F3"/>
<path d="M205.074 32.4305L199.634 41.7335L204.525 43.3705L205.074 32.4305Z" fill="#4292F3"/>
<path d="M197.997 47.2533L197.847 47.1934C197.917 47.0138 197.987 46.8341 198.047 46.6544L198.207 46.7143C198.137 46.894 198.077 47.0736 198.007 47.2533H197.997Z" fill="#324D90"/>
<path d="M120.549 76.9089L120.519 76.7492C120.888 76.6893 121.268 76.5895 121.637 76.4797L121.687 76.6394C121.308 76.7592 120.928 76.859 120.549 76.9189V76.9089ZM122.166 76.4597L122.106 76.31C122.455 76.1803 122.805 76.0206 123.164 75.8409L123.234 75.9906C122.875 76.1703 122.515 76.33 122.166 76.4597ZM123.683 75.751L123.603 75.6113C123.923 75.4316 124.252 75.232 124.592 75.0124L124.681 75.1521C124.332 75.3817 124.003 75.5814 123.683 75.761V75.751ZM125.101 74.8627L125.011 74.7229C125.3 74.5233 125.61 74.2937 125.949 74.0442L126.049 74.1739C125.71 74.4335 125.4 74.6531 125.101 74.8527V74.8627ZM126.448 73.8745L126.348 73.7447C126.668 73.4952 126.987 73.2456 127.267 73.026L127.366 73.1558C127.087 73.3754 126.768 73.6249 126.448 73.8745ZM127.756 72.8464L127.656 72.7166C127.945 72.487 128.265 72.2375 128.574 71.9979L128.674 72.1277C128.365 72.3673 128.055 72.6068 127.756 72.8464ZM129.063 71.8282L128.964 71.6985C129.313 71.439 129.592 71.2393 129.912 71.0197L130.002 71.1595C129.682 71.3791 129.403 71.5787 129.053 71.8282H129.063ZM130.421 70.88L130.331 70.7402C130.66 70.5306 130.99 70.321 131.329 70.1313L131.409 70.2711C131.08 70.4607 130.74 70.6604 130.421 70.87V70.88ZM131.848 70.0415L131.768 69.8918C132.108 69.7121 132.457 69.5324 132.807 69.3727L132.876 69.5225C132.527 69.6822 132.178 69.8618 131.838 70.0415H131.848ZM162.901 70.0016C162.901 70.0016 162.802 70.0016 162.792 70.0016V69.8319C163.181 69.8319 163.57 69.8319 163.949 69.802V69.9716C163.61 69.9916 163.261 70.0016 162.901 70.0016ZM162.292 69.9916C161.903 69.9816 161.514 69.9517 161.125 69.9217V69.752C161.524 69.782 161.913 69.8119 162.292 69.8219V69.9916ZM164.458 69.9217L164.439 69.762C164.828 69.7221 165.217 69.6622 165.576 69.5923L165.606 69.752C165.237 69.8219 164.848 69.8818 164.449 69.9217H164.458ZM160.626 69.8718C160.256 69.8419 159.867 69.8019 159.468 69.752L159.488 69.5923C159.877 69.6323 160.266 69.6722 160.645 69.7121L160.626 69.8718ZM158.969 69.6922C158.599 69.6522 158.21 69.5923 157.811 69.5424L157.831 69.3827C158.23 69.4326 158.609 69.4825 158.979 69.5324L158.959 69.6922H158.969ZM166.095 69.6422L166.056 69.4825C166.445 69.3927 166.814 69.2729 167.154 69.1432L167.213 69.2929C166.864 69.4226 166.485 69.5424 166.095 69.6323V69.6422ZM157.322 69.4726C156.942 69.4127 156.553 69.3628 156.174 69.3029L156.204 69.1432C156.583 69.203 156.972 69.2629 157.352 69.3129L157.332 69.4726H157.322ZM173.771 69.4227V69.253C174.141 69.253 174.53 69.233 174.929 69.2031V69.3727C174.54 69.4027 174.151 69.4227 173.771 69.4227ZM173.272 69.4227C172.873 69.4127 172.474 69.3827 172.104 69.3328L172.124 69.1731C172.494 69.223 172.873 69.253 173.272 69.2629V69.4326V69.4227ZM175.438 69.3428L175.418 69.1831C175.788 69.1432 176.177 69.0933 176.566 69.0334L176.596 69.1931C176.207 69.253 175.818 69.3029 175.438 69.3428ZM133.326 69.3129L133.256 69.1631C133.615 69.0034 133.974 68.8637 134.334 68.7239L134.394 68.8836C134.034 69.0134 133.675 69.1631 133.316 69.3129H133.326ZM171.605 69.253C171.206 69.1831 170.827 69.0833 170.467 68.9735L170.517 68.8138C170.867 68.9236 171.246 69.0134 171.635 69.0833L171.605 69.243V69.253ZM155.675 69.223C155.295 69.1631 154.906 69.1032 154.527 69.0334L154.557 68.8737C154.936 68.9335 155.325 69.0034 155.705 69.0633L155.675 69.223ZM167.683 69.1032L167.613 68.9535C167.972 68.7938 168.311 68.6041 168.611 68.3945L168.701 68.5343C168.391 68.7439 168.042 68.9435 167.673 69.1032H167.683ZM177.085 69.1032L177.055 68.9435C177.435 68.8737 177.814 68.7938 178.183 68.704L178.223 68.8637C177.844 68.9535 177.465 69.0334 177.085 69.1032ZM154.038 68.9535C153.658 68.8936 153.269 68.8237 152.89 68.7639L152.92 68.6042C153.299 68.664 153.678 68.7339 154.068 68.7938L154.038 68.9535ZM169.998 68.8038C169.619 68.6541 169.28 68.4844 168.95 68.2748L169.04 68.135C169.04 68.135 169.05 68.135 169.06 68.145L169.02 68.0951C169.32 67.8455 169.589 67.576 169.819 67.2766L169.948 67.3764C169.719 67.6758 169.449 67.9454 169.15 68.1949C169.439 68.3646 169.739 68.5143 170.068 68.6441L170.008 68.7938L169.998 68.8038ZM178.722 68.7339L178.682 68.5742C179.052 68.4744 179.421 68.3646 179.79 68.2348L179.84 68.3945C179.471 68.5143 179.102 68.6341 178.722 68.7339ZM134.873 68.704L134.823 68.5443C135.192 68.4245 135.561 68.3047 135.941 68.1949L135.981 68.3546C135.611 68.4544 135.242 68.5742 134.873 68.694V68.704ZM152.401 68.664C152.021 68.6041 151.632 68.5343 151.253 68.4744L151.283 68.3147C151.662 68.3746 152.051 68.4444 152.431 68.5043L152.401 68.664ZM150.764 68.3945C150.384 68.3346 149.995 68.2747 149.616 68.2149L149.646 68.0552C150.025 68.115 150.414 68.1749 150.794 68.2348L150.764 68.3945ZM136.45 68.2348L136.41 68.0751C136.779 67.9853 137.169 67.8954 137.548 67.8256L137.578 67.9853C137.198 68.0552 136.819 68.145 136.45 68.2348ZM180.299 68.2348L180.24 68.0751C180.599 67.9454 180.958 67.7956 181.318 67.6459L181.387 67.7956C181.028 67.9553 180.669 68.0951 180.299 68.2248V68.2348ZM149.117 68.145C148.707 68.0851 148.338 68.0352 147.969 67.9853L147.989 67.8256C148.358 67.8755 148.737 67.9254 149.137 67.9853L149.117 68.145ZM168.521 67.9853C168.212 67.7457 167.922 67.4662 167.683 67.1668L167.812 67.067C168.052 67.3564 168.331 67.6259 168.631 67.8655L168.531 67.9953L168.521 67.9853ZM147.47 67.9154C147.07 67.8655 146.691 67.8256 146.312 67.7857L146.332 67.6259C146.701 67.6659 147.09 67.7058 147.49 67.7557L147.47 67.9154ZM138.067 67.8954L138.037 67.7357C138.416 67.6759 138.806 67.616 139.195 67.5661L139.215 67.7258C138.825 67.7757 138.446 67.8256 138.067 67.8954ZM145.823 67.7357C145.433 67.6958 145.044 67.6659 144.665 67.6459V67.4762C145.054 67.5062 145.443 67.5361 145.833 67.5661L145.813 67.7258L145.823 67.7357ZM139.704 67.6858L139.684 67.5261C140.063 67.4862 140.453 67.4562 140.842 67.4363V67.606C140.462 67.6259 140.073 67.6559 139.694 67.6958L139.704 67.6858ZM144.166 67.616C143.776 67.596 143.387 67.576 143.008 67.576V67.4063C143.387 67.4063 143.776 67.4263 144.176 67.4463V67.616H144.166ZM181.827 67.596L181.757 67.4463C182.106 67.2866 182.446 67.1069 182.795 66.9272L182.875 67.0769C182.535 67.2566 182.186 67.4363 181.837 67.596H181.827ZM141.351 67.576V67.4063C141.72 67.3964 142.119 67.3864 142.509 67.3864V67.5561C142.119 67.5561 141.73 67.5561 141.351 67.576ZM170.218 66.9671L170.078 66.8773C170.278 66.5579 170.448 66.2085 170.547 65.8392L170.707 65.8891C170.597 66.2684 170.418 66.6278 170.218 66.9572V66.9671ZM183.314 66.8374L183.234 66.6976C183.563 66.508 183.903 66.3084 184.222 66.0987L184.312 66.2385C183.983 66.4481 183.653 66.6477 183.314 66.8374ZM167.383 66.7575C167.154 66.4182 166.984 66.0588 166.874 65.6895L167.034 65.6396C167.144 65.9889 167.303 66.3283 167.523 66.6677L167.383 66.7575ZM184.731 65.959L184.641 65.8193C184.961 65.6096 185.28 65.3801 185.59 65.1505L185.69 65.2802C185.38 65.5098 185.061 65.7394 184.741 65.959H184.731ZM170.827 65.4L170.667 65.3701C170.727 64.9908 170.727 64.6115 170.667 64.2421L170.827 64.2122C170.907 64.6015 170.907 65.0008 170.837 65.4H170.827ZM166.754 65.1904C166.694 64.7911 166.694 64.3819 166.804 64.0026L166.964 64.0525C166.864 64.4118 166.854 64.8011 166.914 65.1704L166.754 65.2004V65.1904ZM186.079 64.9708L185.979 64.841C186.278 64.6015 186.578 64.3619 186.877 64.1024L186.987 64.2322C186.688 64.4917 186.388 64.7312 186.089 64.9708H186.079ZM187.357 63.9028L187.247 63.783C187.526 63.5334 187.816 63.2639 188.095 62.9944L188.215 63.1142C187.935 63.3837 187.646 63.6532 187.357 63.9127V63.9028ZM170.507 63.783C170.368 63.4336 170.128 63.1042 169.849 62.8946L169.948 62.7649C170.248 62.9845 170.507 63.3438 170.657 63.7231L170.507 63.783ZM167.134 63.6033L166.984 63.5235C167.183 63.1641 167.473 62.8747 167.812 62.665L167.892 62.8048C167.573 62.9944 167.303 63.2639 167.124 63.5933L167.134 63.6033ZM188.564 62.7549L188.445 62.6351C188.714 62.3656 188.984 62.0861 189.243 61.7966L189.363 61.9064C189.093 62.1959 188.824 62.4754 188.554 62.7549H188.564ZM169.439 62.665C169.1 62.5353 168.721 62.5253 168.351 62.6251L168.301 62.4654C168.701 62.3456 169.12 62.3656 169.499 62.5053L169.439 62.6551V62.665ZM189.712 61.5471L189.592 61.4373C189.842 61.1478 190.101 60.8583 190.351 60.5589L190.481 60.6687C190.231 60.9681 189.972 61.2676 189.722 61.5571L189.712 61.5471ZM190.79 60.2794L190.66 60.1796C190.9 59.8801 191.14 59.5707 191.369 59.2613L191.499 59.3611C191.259 59.6705 191.02 59.98 190.78 60.2794H190.79ZM191.808 58.9618L191.679 58.862C191.908 58.5526 192.128 58.2332 192.347 57.9137L192.487 58.0036C192.267 58.323 192.038 58.6424 191.808 58.9518V58.9618ZM192.767 57.5943L192.627 57.5045C192.836 57.1851 193.056 56.8557 193.256 56.5263L193.395 56.6161C193.186 56.9455 192.976 57.2749 192.757 57.5943H192.767ZM193.665 56.1969L193.525 56.1071C193.725 55.7777 193.924 55.4483 194.124 55.1089L194.264 55.1887C194.064 55.5281 193.865 55.8575 193.665 56.1869V56.1969ZM194.513 54.7595L194.374 54.6797C194.563 54.3503 194.753 54.0009 194.933 53.6615L195.082 53.7414C194.903 54.0808 194.713 54.4301 194.523 54.7595H194.513ZM195.302 53.3022L195.152 53.2223C195.332 52.883 195.502 52.5336 195.681 52.1843L195.831 52.2541C195.661 52.6035 195.482 52.9528 195.302 53.2922V53.3022ZM196.051 51.8149L195.901 51.7451C196.071 51.3957 196.23 51.0463 196.39 50.697L196.54 50.7669C196.38 51.1162 196.21 51.4755 196.041 51.8249L196.051 51.8149ZM196.749 50.3077L196.6 50.2378C196.759 49.8885 196.909 49.5291 197.059 49.1698L197.208 49.2297C197.059 49.589 196.899 49.9484 196.749 50.2977V50.3077ZM197.408 48.7805L197.258 48.7206C197.408 48.3613 197.548 48.0019 197.688 47.6426L197.837 47.7025C197.698 48.0618 197.548 48.4311 197.408 48.7805Z" fill="#324D90"/>
<path d="M119.461 77.0287V76.859C119.651 76.859 119.84 76.8391 120.03 76.8191L120.05 76.9788C119.86 76.9988 119.661 77.0087 119.471 77.0187L119.461 77.0287Z" fill="#324D90"/>
<path d="M118.303 76.9488C117.924 76.859 117.554 76.7292 117.195 76.5695L117.265 76.4198C117.614 76.5795 117.974 76.7093 118.343 76.7891L118.303 76.9488ZM116.746 76.33C116.407 76.1303 116.087 75.9008 115.798 75.6412L115.907 75.5215C116.187 75.771 116.496 76.0006 116.826 76.1902L116.746 76.33ZM115.438 75.2819C115.169 74.9924 114.939 74.673 114.74 74.3436L114.879 74.2638C115.069 74.5932 115.299 74.8926 115.558 75.1821L115.438 75.2919V75.2819ZM114.51 73.8944C114.34 73.5451 114.221 73.1658 114.131 72.7865L114.29 72.7465C114.38 73.1159 114.5 73.4752 114.66 73.8246L114.51 73.8944ZM114.031 72.2974C113.971 71.9081 113.961 71.5188 113.991 71.1295H114.161C114.131 71.5188 114.151 71.8981 114.201 72.2774L114.041 72.2974H114.031Z" fill="#324D90"/>
<defs>
<linearGradient id="paint0_linear_13_430" x1="-1.40646e-05" y1="69.5026" x2="239.561" y2="69.5026" gradientUnits="userSpaceOnUse">
<stop stop-color="#E2F4FF"/>
<stop offset="1" stop-color="#D7ECFF"/>
</linearGradient>
<linearGradient id="paint1_linear_13_430" x1="0.0598717" y1="101.594" x2="240" y2="101.594" gradientUnits="userSpaceOnUse">
<stop stop-color="#E2F4FF"/>
<stop offset="1" stop-color="#D7ECFF"/>
</linearGradient>
<linearGradient id="paint2_linear_13_430" x1="61.3974" y1="43.9095" x2="80.9116" y2="43.9095" gradientUnits="userSpaceOnUse">
<stop stop-color="#8AD3FF"/>
<stop offset="1" stop-color="#5F9CFF"/>
</linearGradient>
<linearGradient id="paint3_linear_13_430" x1="80.9116" y1="47.403" x2="99.9068" y2="47.403" gradientUnits="userSpaceOnUse">
<stop stop-color="#8AD3FF"/>
<stop offset="1" stop-color="#5F9CFF"/>
</linearGradient>
<linearGradient id="paint4_linear_13_430" x1="66.4182" y1="52.1644" x2="94.8162" y2="52.1644" gradientUnits="userSpaceOnUse">
<stop stop-color="#8AD3FF"/>
<stop offset="1" stop-color="#5F9CFF"/>
</linearGradient>
<linearGradient id="paint5_linear_13_430" x1="115.648" y1="111.276" x2="132.936" y2="111.276" gradientUnits="userSpaceOnUse">
<stop stop-color="#E2F4FF"/>
<stop offset="1" stop-color="#D7ECFF"/>
</linearGradient>
</defs>
</svg>
