<svg width="233" height="186" viewBox="0 0 233 186" fill="none" xmlns="http://www.w3.org/2000/svg">
<path d="M23.64 156.93C19.23 139.66 3.65997 124.96 7.88997 106.07C10.51 94.35 21.23 86.64 24.57 75.22C28.43 62.01 18.57 49.78 21.79 36.74C24.05 27.58 31.92 21.45 40.87 19.42C54.99 16.22 68.97 21 82.72 23.81C97.28 26.79 109.71 25.08 123.83 21.08C139.85 16.54 156.45 9.79995 173.41 11.31C194.85 13.21 206.47 31.74 202.83 52.02C200.96 62.45 196.46 72.21 193.52 82.39C190.58 92.57 189.29 103.87 193.72 113.5C195.52 117.4 199.39 119.54 203.28 120.95C209.07 123.05 215.54 123.66 220.75 127.17C236.86 138.01 232.17 161.06 227.94 176.78C227.47 178.53 227.04 180.28 226.62 182.04C226.33 183.28 225.83 184.59 224.49 184.96C223.31 185.28 222.05 185.05 220.85 185.02C216.62 184.92 213.17 184.71 208.94 184.71C152.51 184.71 96.08 184.72 39.65 184.73C35.15 184.73 22.92 187.03 22.08 181.52C21.44 177.3 24.43 171.77 24.71 167.54C24.95 163.87 24.51 160.35 23.64 156.94V156.93Z" fill="url(#paint0_linear_13_170)"/>
<path d="M128.83 38.85H43.38C39.9227 38.85 37.12 41.6527 37.12 45.11V178.66C37.12 182.117 39.9227 184.92 43.38 184.92H128.83C132.287 184.92 135.09 182.117 135.09 178.66V45.11C135.09 41.6527 132.287 38.85 128.83 38.85Z" fill="#14243C"/>
<path d="M130.19 38.85H44.74C41.2827 38.85 38.48 41.6527 38.48 45.11V178.66C38.48 182.117 41.2827 184.92 44.74 184.92H130.19C133.647 184.92 136.45 182.117 136.45 178.66V45.11C136.45 41.6527 133.647 38.85 130.19 38.85Z" fill="#3DB2F9"/>
<path d="M129.14 45.96H45.78V178.33H129.14V45.96Z" fill="white"/>
<path d="M105.05 36.1H99.54C97.95 36.1 96.49 35.1 96.04 33.58C94.85 29.57 91.14 26.64 86.74 26.64C82.34 26.64 78.63 29.57 77.44 33.58C76.99 35.1 75.53 36.1 73.94 36.1H68.43C64.77 36.1 61.8 39.07 61.8 42.73V47H111.68V42.73C111.68 39.07 108.71 36.1 105.05 36.1Z" fill="#003759"/>
<path d="M89.78 33.8699C89.78 35.5499 88.42 36.9199 86.73 36.9199C85.04 36.9199 83.68 35.5599 83.68 33.8699C83.68 32.1799 85.04 30.8199 86.73 30.8199C88.42 30.8199 89.78 32.1799 89.78 33.8699Z" fill="white"/>
<path d="M91.78 60.33H51.4V62.12H91.78V60.33Z" fill="#003759"/>
<path d="M75.68 68.58H51.4V70.37H75.68V68.58Z" fill="#003759"/>
<path d="M91.78 86.9399H51.4V88.7299H91.78V86.9399Z" fill="#003759"/>
<path d="M75.68 95.1899H51.4V96.9799H75.68V95.1899Z" fill="#003759"/>
<path d="M91.78 113.56H51.4V115.35H91.78V113.56Z" fill="#003759"/>
<path d="M75.68 121.8H51.4V123.59H75.68V121.8Z" fill="#003759"/>
<path d="M91.78 140.17H51.4V141.96H91.78V140.17Z" fill="#003759"/>
<path d="M75.68 148.41H51.4V150.2H75.68V148.41Z" fill="#003759"/>
<path d="M112.39 76.01C115.626 76.01 118.25 73.3864 118.25 70.15C118.25 66.9137 115.626 64.29 112.39 64.29C109.154 64.29 106.53 66.9137 106.53 70.15C106.53 73.3864 109.154 76.01 112.39 76.01Z" fill="url(#paint1_linear_13_170)"/>
<path d="M118.73 66.68C117.68 67.02 116.65 67.46 115.71 68.04C114.06 69.05 112.57 70.31 111.28 71.78C111.15 71.1 110.89 70.42 110.43 69.85C110.11 69.44 109.71 69.11 109.26 68.86C109.04 68.74 108.8 68.63 108.56 68.54C108.5 68.52 108.44 68.5 108.38 68.48C108.08 68.39 107.76 68.6 107.74 68.92C107.72 69.17 107.88 69.39 108.13 69.45C108.17 69.46 108.22 69.47 108.26 69.49C108.45 69.55 108.64 69.62 108.82 69.71C109.18 69.89 109.5 70.12 109.76 70.42C110.29 71.01 110.58 71.83 110.65 72.68C110.65 72.79 110.71 72.89 110.8 72.95C110.96 73.07 111.19 73.03 111.31 72.87C112.55 71.14 114.13 69.58 115.91 68.35C116.8 67.73 117.78 67.24 118.8 66.85C119.82 66.46 120.91 66.28 122 66.2C120.9 66.22 119.8 66.34 118.74 66.68H118.73Z" fill="#003759"/>
<path d="M112.39 102.62C115.626 102.62 118.25 99.9964 118.25 96.76C118.25 93.5236 115.626 90.9 112.39 90.9C109.154 90.9 106.53 93.5236 106.53 96.76C106.53 99.9964 109.154 102.62 112.39 102.62Z" fill="url(#paint2_linear_13_170)"/>
<path d="M114.612 128.797C117.605 127.566 119.033 124.142 117.802 121.149C116.571 118.156 113.146 116.727 110.153 117.959C107.16 119.19 105.732 122.614 106.963 125.607C108.194 128.6 111.619 130.029 114.612 128.797Z" fill="url(#paint3_linear_13_170)"/>
<path d="M117.03 91.86C114.08 95.36 111 98.73 107.79 101.99C107.67 102.12 107.47 101.96 107.58 101.81C110.36 98.16 113.42 94.73 116.82 91.66C116.96 91.53 117.14 91.72 117.02 91.86H117.03Z" fill="#003759"/>
<path d="M107.79 91.67C111.2 94.74 114.29 98.15 117.04 101.82C117.15 101.96 116.96 102.13 116.83 102C113.64 98.71 110.53 95.37 107.59 91.87C107.47 91.72 107.66 91.55 107.79 91.67Z" fill="#003759"/>
<path d="M112.39 155.84C115.626 155.84 118.25 153.216 118.25 149.98C118.25 146.744 115.626 144.12 112.39 144.12C109.154 144.12 106.53 146.744 106.53 149.98C106.53 153.216 109.154 155.84 112.39 155.84Z" fill="url(#paint4_linear_13_170)"/>
<path d="M117.03 145.44C114.08 148.94 111 152.31 107.79 155.57C107.67 155.7 107.47 155.54 107.58 155.39C110.36 151.74 113.42 148.31 116.82 145.24C116.96 145.11 117.14 145.3 117.02 145.44H117.03Z" fill="#003759"/>
<path d="M107.79 145.25C111.2 148.32 114.29 151.73 117.04 155.4C117.15 155.54 116.96 155.71 116.83 155.58C113.64 152.29 110.53 148.95 107.59 145.45C107.47 145.3 107.66 145.13 107.79 145.25Z" fill="#003759"/>
<path d="M118.73 119.83C117.68 120.17 116.65 120.61 115.71 121.19C114.06 122.2 112.57 123.45 111.28 124.93C111.15 124.25 110.89 123.57 110.43 123C110.11 122.59 109.71 122.26 109.26 122.01C109.04 121.89 108.8 121.78 108.56 121.69C108.5 121.67 108.44 121.65 108.38 121.63C108.08 121.54 107.76 121.75 107.74 122.07C107.72 122.32 107.88 122.54 108.13 122.6C108.17 122.61 108.22 122.62 108.26 122.64C108.45 122.7 108.64 122.77 108.82 122.86C109.18 123.04 109.5 123.27 109.76 123.57C110.29 124.16 110.58 124.98 110.65 125.83C110.65 125.94 110.71 126.04 110.8 126.1C110.96 126.22 111.19 126.18 111.31 126.02C112.55 124.29 114.13 122.73 115.91 121.5C116.8 120.88 117.78 120.39 118.8 120C119.82 119.61 120.91 119.43 122 119.35C120.9 119.37 119.8 119.49 118.74 119.83H118.73Z" fill="#003759"/>
<path d="M208.14 115.54H138.78C138.19 115.54 137.71 115.06 137.71 114.47C137.71 113.88 138.19 113.4 138.78 113.4H208.14C208.73 113.4 209.21 113.88 209.21 114.47C209.21 115.06 208.73 115.54 208.14 115.54Z" fill="#122466"/>
<path d="M210.17 115.54H140.81C140.22 115.54 139.74 115.06 139.74 114.47C139.74 113.88 140.22 113.4 140.81 113.4H210.17C210.76 113.4 211.24 113.88 211.24 114.47C211.24 115.06 210.76 115.54 210.17 115.54Z" fill="#003759"/>
<path d="M175.97 96.53H161.76V113.49H175.97V96.53Z" fill="#6952E2"/>
<path d="M179.94 96.53H162.98V113.49H179.94V96.53Z" fill="url(#paint5_linear_13_170)"/>
<g style="mix-blend-mode:screen">
<path d="M175.97 96.53H172.56V98.51H175.97V96.53Z" fill="#3DB2F9"/>
</g>
<path d="M165.01 100.49H172.17V99.44H165.01V100.49Z" fill="#6952E2"/>
<path d="M179.94 108.5H170.17V111.73H179.94V108.5Z" fill="#6952E2"/>
<g style="mix-blend-mode:screen">
<path d="M170.82 109.89H174.87V109.15H170.82V109.89Z" fill="#3DB2F9"/>
</g>
<path d="M177.1 111.18H179.28V109H177.1V111.18Z" fill="url(#paint6_linear_13_170)"/>
<path d="M158.16 96.53H143.95V113.49H158.16V96.53Z" fill="#6952E2"/>
<path d="M162.13 96.53H145.17V113.49H162.13V96.53Z" fill="url(#paint7_linear_13_170)"/>
<g style="mix-blend-mode:screen">
<path d="M158.16 96.53H154.75V98.51H158.16V96.53Z" fill="#3DB2F9"/>
</g>
<path d="M147.2 100.49H154.36V99.44H147.2V100.49Z" fill="#6952E2"/>
<path d="M162.13 108.5H152.36V111.73H162.13V108.5Z" fill="#6952E2"/>
<g style="mix-blend-mode:screen">
<path d="M153.01 109.89H157.06V109.15H153.01V109.89Z" fill="#3DB2F9"/>
</g>
<path d="M159.29 111.18H161.47V109H159.29V111.18Z" fill="url(#paint8_linear_13_170)"/>
<path d="M198.86 96.53H184.65V113.49H198.86V96.53Z" fill="#6952E2"/>
<path d="M202.82 96.53H185.86V113.49H202.82V96.53Z" fill="url(#paint9_linear_13_170)"/>
<g style="mix-blend-mode:screen">
<path d="M198.86 96.53H195.45V98.51H198.86V96.53Z" fill="#3DB2F9"/>
</g>
<path d="M187.9 100.49H195.06V99.44H187.9V100.49Z" fill="#6952E2"/>
<path d="M202.83 108.5H193.06V111.73H202.83V108.5Z" fill="#6952E2"/>
<g style="mix-blend-mode:screen">
<path d="M193.71 109.89H197.76V109.15H193.71V109.89Z" fill="#3DB2F9"/>
</g>
<path d="M199.99 111.18H202.17V109H199.99V111.18Z" fill="url(#paint10_linear_13_170)"/>
<path d="M195.29 61.21H181.08V78.17H195.29V61.21Z" fill="#6952E2"/>
<path d="M199.25 61.21H182.29V78.17H199.25V61.21Z" fill="url(#paint11_linear_13_170)"/>
<g style="mix-blend-mode:screen">
<path d="M195.29 61.21H191.88V63.19H195.29V61.21Z" fill="#3DB2F9"/>
</g>
<path d="M184.33 65.17H191.49V64.12H184.33V65.17Z" fill="#6952E2"/>
<path d="M199.26 73.1801H189.49V76.4101H199.26V73.1801Z" fill="#6952E2"/>
<g style="mix-blend-mode:screen">
<path d="M190.14 74.5699H194.19V73.8299H190.14V74.5699Z" fill="#3DB2F9"/>
</g>
<path d="M196.42 75.86H198.6V73.68H196.42V75.86Z" fill="url(#paint12_linear_13_170)"/>
<path d="M208.14 80.16H138.78C138.19 80.16 137.71 79.68 137.71 79.09C137.71 78.5 138.19 78.02 138.78 78.02H208.14C208.73 78.02 209.21 78.5 209.21 79.09C209.21 79.68 208.73 80.16 208.14 80.16Z" fill="#122466"/>
<path d="M177.44 61.21H163.23V78.17H177.44V61.21Z" fill="#6952E2"/>
<path d="M181.41 61.21H164.45V78.17H181.41V61.21Z" fill="url(#paint13_linear_13_170)"/>
<g style="mix-blend-mode:screen">
<path d="M177.44 61.21H174.03V63.19H177.44V61.21Z" fill="#3DB2F9"/>
</g>
<path d="M166.49 65.17H173.65V64.12H166.49V65.17Z" fill="#6952E2"/>
<path d="M181.41 73.1801H171.64V76.4101H181.41V73.1801Z" fill="#6952E2"/>
<g style="mix-blend-mode:screen">
<path d="M172.3 74.5699H176.35V73.8299H172.3V74.5699Z" fill="#3DB2F9"/>
</g>
<path d="M178.57 75.86H180.75V73.68H178.57V75.86Z" fill="url(#paint14_linear_13_170)"/>
<path d="M210.17 80.16H140.81C140.22 80.16 139.74 79.68 139.74 79.09C139.74 78.5 140.22 78.02 140.81 78.02H210.17C210.76 78.02 211.24 78.5 211.24 79.09C211.24 79.68 210.76 80.16 210.17 80.16Z" fill="#003759"/>
<path d="M155 61.21H140.79V78.17H155V61.21Z" fill="#6952E2"/>
<path d="M158.97 61.21H142.01V78.17H158.97V61.21Z" fill="url(#paint15_linear_13_170)"/>
<g style="mix-blend-mode:screen">
<path d="M155 61.21H151.59V63.19H155V61.21Z" fill="#3DB2F9"/>
</g>
<path d="M144.05 65.17H151.21V64.12H144.05V65.17Z" fill="#6952E2"/>
<path d="M158.98 73.1801H149.21V76.4101H158.98V73.1801Z" fill="#6952E2"/>
<g style="mix-blend-mode:screen">
<path d="M149.85 74.5699H153.9V73.8299H149.85V74.5699Z" fill="#3DB2F9"/>
</g>
<path d="M156.13 75.86H158.31V73.68H156.13V75.86Z" fill="url(#paint16_linear_13_170)"/>
<path d="M173 159.34H151.56V184.93H173V159.34Z" fill="#6952E2"/>
<path d="M178.99 159.34H153.4V184.93H178.99V159.34Z" fill="url(#paint17_linear_13_170)"/>
<g style="mix-blend-mode:screen">
<path d="M173 159.34H167.85V162.33H173V159.34Z" fill="#3DB2F9"/>
</g>
<path d="M156.47 165.32H167.27V163.74H156.47V165.32Z" fill="#6952E2"/>
<path d="M178.99 177.4H164.25V182.27H178.99V177.4Z" fill="#6952E2"/>
<g style="mix-blend-mode:screen">
<path d="M165.23 179.48H171.34V178.36H165.23V179.48Z" fill="#3DB2F9"/>
</g>
<path d="M174.71 181.44H177.99V178.16H174.71V181.44Z" fill="url(#paint18_linear_13_170)"/>
<path d="M155.45 133.87H134.01V159.46H155.45V133.87Z" fill="#6952E2"/>
<path d="M161.43 133.87H135.84V159.46H161.43V133.87Z" fill="url(#paint19_linear_13_170)"/>
<g style="mix-blend-mode:screen">
<path d="M155.45 133.87H150.3V136.86H155.45V133.87Z" fill="#3DB2F9"/>
</g>
<path d="M138.92 139.85H149.72V138.27H138.92V139.85Z" fill="#6952E2"/>
<path d="M161.44 151.93H146.7V156.8H161.44V151.93Z" fill="#6952E2"/>
<g style="mix-blend-mode:screen">
<path d="M147.68 154.02H153.79V152.9H147.68V154.02Z" fill="#3DB2F9"/>
</g>
<path d="M157.15 155.96H160.43V152.68H157.15V155.96Z" fill="url(#paint20_linear_13_170)"/>
<path d="M146.08 159.34H124.64V184.93H146.08V159.34Z" fill="#6952E2"/>
<path d="M152.06 159.34H126.47V184.93H152.06V159.34Z" fill="url(#paint21_linear_13_170)"/>
<g style="mix-blend-mode:screen">
<path d="M146.08 159.34H140.93V162.33H146.08V159.34Z" fill="#3DB2F9"/>
</g>
<path d="M129.54 165.32H140.34V163.74H129.54V165.32Z" fill="#6952E2"/>
<path d="M152.07 177.4H137.33V182.27H152.07V177.4Z" fill="#6952E2"/>
<g style="mix-blend-mode:screen">
<path d="M138.31 179.48H144.42V178.36H138.31V179.48Z" fill="#3DB2F9"/>
</g>
<path d="M147.79 181.44H151.07V178.16H147.79V181.44Z" fill="url(#paint22_linear_13_170)"/>
<path d="M169.46 30.79L157.54 43.47H181.37L169.46 30.79Z" fill="#003759"/>
<path d="M169.98 0H168.93V32.05H169.98V0Z" fill="#003759"/>
<path d="M214.75 119.29C220.56 119.51 217.64 124.9 216.51 129.65C214.45 137.11 215.51 146.8 212.48 147.84C204.42 150.21 207.26 121.68 209.5 120.39C210.55 119.8 212.79 119.47 214.74 119.29H214.75Z" fill="#F4AF9F"/>
<path d="M209.26 145.32C214.93 141.32 214.24 168.32 212.67 175.9C211.1 183.48 209.55 178.31 208.54 166.18C207.54 154.04 207.02 146.89 209.25 145.32H209.26Z" fill="#F4AF9F"/>
<path d="M213.54 175.15L213.69 177.98L209.05 178.09L209.19 175.35L213.54 175.15Z" fill="#F4AF9F"/>
<path d="M208.95 178.04C208.95 178.04 208.07 179.74 205.15 181.97C202.23 184.19 201.47 183.71 201.4 184.54C201.33 185.37 214.16 184.65 214.16 184.65L213.76 177.84C213.76 177.84 208.95 177.86 208.95 178.04Z" fill="#14243C"/>
<path d="M220.96 119.43C226.66 118.3 226.6 124.44 226.6 129.32C226.33 137.05 228.09 146.01 225.39 147.72C218.11 151.9 216.04 122.57 217.92 120.8C218.81 119.98 219.1 120.06 220.96 119.43Z" fill="#F4AF9F"/>
<path d="M222.37 145.32C228.04 141.32 227.35 168.32 225.78 175.9C224.21 183.48 222.66 178.31 221.65 166.18C220.65 154.04 220.13 146.89 222.36 145.32H222.37Z" fill="#F4AF9F"/>
<path d="M226.49 176L226.5 178.78L222.05 178.81L222.11 176.09L226.49 176Z" fill="#F4AF9F"/>
<path d="M226.54 178.74C226.6 179.84 227.74 183.59 227.77 184.54C220.69 184.72 220.89 186.14 222.03 178.76L226.54 178.74Z" fill="#14243C"/>
<path d="M225.57 119.64C225.57 119.64 227.43 122.86 227.26 133.2C227.07 145.02 227.18 147.79 227.18 148.66C227.18 149.53 227.12 176.53 227.12 176.53C227.12 176.53 222.7 177.44 221.63 176.52C221.07 176.04 216.84 133.53 216.84 133.53C216.84 133.53 215.89 143.6 215.6 147.42C215.35 150.73 215.28 173.46 214.09 175.78C212.86 176.78 208.38 176.26 208.32 176.19C207.66 175.49 205.9 128.79 208.05 120.26L225.57 119.64Z" fill="#003759"/>
<path d="M212.08 93.98C215.25 96.05 210.95 115.21 208.49 114.18C204.18 114.47 206.31 91.68 212.08 93.98Z" fill="#F4AF9F"/>
<path d="M215.74 90.99C206.88 92.01 207.04 99.79 206.27 105.32L212.47 106.22L215.74 90.98V90.99Z" fill="url(#paint23_linear_13_170)"/>
<path d="M208.28 114.59C204.57 113.92 196 98.58 196.85 97.69C197.52 95.99 215.61 114.64 208.28 114.59Z" fill="#F4AF9F"/>
<path d="M221.29 90.39C233.15 92.02 224.77 98.8 225.98 119.88C225.98 121.39 207.82 121.93 207.92 120.36C210.06 103.76 204.44 92.81 215.76 90.89" fill="url(#paint24_linear_13_170)"/>
<path d="M215.75 89.35V92.48C215.97 95.36 220.52 92.3 221.04 91.12C221.4 90.36 220.88 89.97 220.88 88.36V86.58C226.36 78.06 217.4 74.48 213.89 80.53C213.83 85.49 212.5 90.15 215.74 89.34L215.75 89.35Z" fill="#F4AF9F"/>
<path d="M220.89 86.58C220.77 86.55 221.64 83.48 220.95 83.45C220.41 83.42 220.18 84.3 220.07 85.13C219.79 85.05 219.46 84.97 219.31 84.93C221.79 75.76 211.92 86.01 213.2 78.08C215.1 76.18 216.82 77.08 219.54 77.23C224.64 77.1 222.62 85.61 220.88 86.58H220.89Z" fill="#003759"/>
<path d="M227.11 94.03C230.62 95.17 231.84 115.14 229.27 114.8C225.29 116.17 221.1 93.34 227.11 94.03Z" fill="#F4AF9F"/>
<path d="M229.76 114.63C229.33 115.14 228.63 115.34 227.97 115.22C222.85 114.34 207.29 101.87 208.62 101.14C209.28 100.3 233 110.82 229.76 114.62V114.63Z" fill="#F4AF9F"/>
<path d="M221.17 90.38C221.17 90.38 227.53 90.71 228.77 92.76C230.01 94.81 231.08 103.84 231.08 103.84L224.16 104.54L223.49 100.52" fill="url(#paint25_linear_13_170)"/>
<path d="M199.6 91.39L206.59 102.89L199.86 103.74L192.92 91.98L199.6 91.39Z" fill="#003759"/>
<path d="M196.1 97.99C196.09 97.65 196.32 97.36 196.65 97.31C197.67 97.14 199.77 96.95 200.16 98.13C200.69 99.71 198.72 101.39 197.73 100.67C197.02 100.16 196.13 98.84 196.09 97.99H196.1Z" fill="#F4AF9F"/>
<path d="M208.09 99.4899C207.91 100.23 206.94 100.73 207.71 102.15C208.48 103.57 211.06 103.94 211.06 103.94L212.17 101.98C212.17 101.98 211.75 101.41 211.68 101.05C211.61 100.69 211.12 99.3999 209.83 98.8099C208.55 98.2199 206.53 97.5999 206.28 97.9799C206.02 98.3599 208.24 98.8999 208.1 99.4799L208.09 99.4899Z" fill="#F4AF9F"/>
<path d="M212.17 101.99L226.29 108.42L226.26 111.95L211.51 103.06L212.17 101.99Z" fill="#F4AF9F"/>
<path d="M20.74 88.63H15.81V96.71H20.74V88.63Z" fill="#F4AF9F"/>
<path opacity="0.5" d="M15.81 88.63V90.03C16.77 90.36 18.37 91.97 19.15 91.95C19.9 91.94 20.46 91.58 20.74 91.29V89.37L17.15 88.63H15.81Z" fill="#D7CFBB"/>
<path d="M13.69 83.82C13.69 87.04 17.53 91.1 20.22 91.06C22.25 91.03 23.45 87.04 23.45 83.82C23.45 80.6 21.27 77.98 18.57 77.98C15.87 77.98 13.69 80.59 13.69 83.82Z" fill="#F4AF9F"/>
<path d="M11.7 138.86C11.56 148.05 13 155.53 14.93 155.56C16.86 155.59 18.54 148.16 18.68 138.97C18.82 129.78 17.38 122.3 15.45 122.27C13.52 122.24 11.84 129.67 11.7 138.86Z" fill="#F4AF9F"/>
<path d="M22.52 138.91C23.41 148.06 25.68 155.33 27.6 155.14C29.52 154.95 30.36 147.39 29.47 138.24C28.58 129.09 26.31 121.82 24.39 122.01C22.47 122.2 21.63 129.76 22.52 138.91Z" fill="#F4AF9F"/>
<path d="M16.23 152.87C12.99 147.77 3.30999 170.7 1.90999 177.01C0.509991 183.32 4.28999 177.73 9.41999 168.92C14.55 160.1 17.51 154.88 16.23 152.88V152.87Z" fill="#F4AF9F"/>
<path d="M28.34 152.42C23.63 148.63 21.82 173.45 22.52 179.87C23.22 186.29 25.01 179.79 27.03 169.8C29.06 159.81 30.19 153.91 28.33 152.42H28.34Z" fill="#F4AF9F"/>
<path d="M19.32 137.68C19.32 137.68 19.66 150.46 17.97 155.02C16.28 159.57 4.47998 177.74 4.47998 177.74L1.22998 176.14C1.22998 176.14 6.11998 159.1 11.6 152.95C11.6 152.95 7.42998 122.64 15.18 121.53C20.49 120.77 19.31 137.68 19.31 137.68H19.32Z" fill="#F4AF9F"/>
<path d="M4.47998 177.74C4.47998 177.74 4.27998 178.53 5.26998 178.98C6.25998 179.43 3.78998 180.04 3.78998 180.04L0.72998 177.53L0.89998 176.68L1.22998 176.14L4.47998 177.74Z" fill="#F4AF9F"/>
<path d="M29.64 134.61C29.64 134.61 30.93 147.88 30.43 153.39C29.92 158.9 24.77 181.45 24.77 181.45L21.06 180.73C21.06 180.73 20.38 165.48 23.53 154.18C23.53 154.18 17.2 122.7 24.37 121.18C29.15 120.17 29.66 134.62 29.66 134.62L29.64 134.61Z" fill="#F4AF9F"/>
<path d="M21.05 180.73V182.04L24.52 183.67L27.16 183.22L25.75 182.56C25.75 182.56 24.83 182.01 24.76 181.45C24.69 180.89 21.05 180.73 21.05 180.73Z" fill="#F4AF9F"/>
<path d="M21.02 181.16C21.02 181.16 23.53 183.96 25.75 182.55C25.75 182.55 28.85 183.39 28.74 184.34C28.63 185.29 26.52 184.8 26.52 184.8L20.69 184.05C20.69 184.05 20.38 182.7 21.03 181.16H21.02Z" fill="#14243C"/>
<path d="M0.899988 176.67C0.899988 176.67 2.79999 179.91 5.25999 178.97C5.25999 178.97 8.12999 180.4 7.82999 181.31C7.52999 182.22 5.55999 181.32 5.55999 181.32L-1.18771e-05 179.44C-1.18771e-05 179.44 -0.0300119 178.06 0.899988 176.68V176.67Z" fill="#14243C"/>
<path d="M22.38 94.03C21.65 94.57 21.37 95.53 21.53 96.41C22.28 100.39 24.97 116.38 27.93 115.99C31.41 115.53 27.97 101.27 26.64 98.03C25.53 95.32 24.13 92.72 22.38 94.03Z" fill="#F4AF9F"/>
<path d="M27.75 115.68C28.52 116.1 29.46 116 30.22 115.57C33.75 113.52 46.27 106.1 46.06 104.35C45.82 102.31 27.17 112.22 27.07 113.31C27 114.13 26.7 115.11 27.75 115.69V115.68Z" fill="#F4AF9F"/>
<path d="M43.31 104.7L43.19 104.44L43.66 103.41C43.78 103.15 43.96 102.92 44.19 102.74L45.36 102.23C45.36 102.23 45.73 102.37 45.16 102.82C45.01 102.94 44.91 103.22 44.84 103.46L45.46 103.09L47.05 102.31C47.45 102.11 48.11 102.18 48.37 102.65C48.37 102.65 48.68 103.34 48.12 103.99L47.42 104.96C46.97 105.4 46.71 105.82 46.12 106.05L44.48 106.54L43.31 104.7Z" fill="#F4AF9F"/>
<path d="M34.73 108.39L43.19 104.44L44.48 106.54L36.54 112.11L34.73 108.39Z" fill="#F4AF9F"/>
<path d="M37.16 112.16C37.16 112.16 29.59 118.08 27.05 116.32C24.64 114.66 22.38 104.08 21.73 101.25C21.08 98.42 19.99 94.1 23.08 93.11C26.17 92.12 27.74 99.41 28.34 101.67C28.93 103.93 29.99 109.52 30.2 110.04C30.41 110.56 34.73 108.16 34.73 108.16L37.18 112.16H37.16Z" fill="url(#paint26_linear_13_170)"/>
<path d="M27.24 112.55C27.65 116.62 28.01 118.11 28.01 118.11C28.01 118.11 23.32 118.84 18.41 118.69C16.01 118.62 13.55 118.35 11.56 117.68C11.56 117.68 11.89 115.14 11.64 110.53C11.56 109.15 11.37 107.45 11.15 105.66C10.92 103.79 10.66 101.82 10.49 100.01C10.27 97.78 10.19 95.79 10.45 94.53C10.82 92.67 15.79 91.9 15.79 91.9C15.79 91.9 18.87 94.47 20.22 93.7C20.85 93.35 20.73 91.96 20.73 91.96C22.82 92.28 23.7 92.83 24.29 93.49C26.31 95.72 28.93 100.91 28.93 104.15C28.93 107.98 26.83 108.47 27.25 112.54L27.24 112.55Z" fill="url(#paint27_linear_13_170)"/>
<path d="M11.56 117.69C11.56 117.69 9.02003 121.74 9.22003 130.91C9.42003 140.08 10.95 150.51 10.95 150.51L1.28003 174.07L6.16003 176.66C6.16003 176.66 19.52 155.03 19.72 151.84C19.92 148.65 20.19 133.23 20.19 133.23L22.42 152.54L20.33 178.16L25.76 179.31C25.76 179.31 31.92 154.15 31.79 151.75C30.29 124.14 27.7 117.46 27.7 117.46L11.57 117.7L11.56 117.69Z" fill="#003759"/>
<path d="M47.23 97.78H25.79V123.37H47.23V97.78Z" fill="#6952E2"/>
<path d="M53.21 97.78H27.62V123.37H53.21V97.78Z" fill="url(#paint28_linear_13_170)"/>
<g style="mix-blend-mode:screen">
<path d="M47.23 97.78H42.08V100.77H47.23V97.78Z" fill="#3DB2F9"/>
</g>
<path d="M30.7 103.76H41.5V102.18H30.7V103.76Z" fill="#6952E2"/>
<path d="M53.21 115.84H38.47V120.71H53.21V115.84Z" fill="#6952E2"/>
<g style="mix-blend-mode:screen">
<path d="M39.46 117.93H45.57V116.81H39.46V117.93Z" fill="#3DB2F9"/>
</g>
<path d="M48.94 119.89H52.22V116.61H48.94V119.89Z" fill="url(#paint29_linear_13_170)"/>
<path d="M22.19 81.52C22.19 81.52 21.57 82.31 20.34 82.96C19.73 83.28 18.73 83.83 17.94 84.12C15.55 85 15.89 88.67 15.89 88.67C15.89 88.67 11.82 85.92 14.01 80.74C15.78 76.57 21.68 77.75 22.15 79.73C22.15 79.73 24.04 80.56 23.49 83.07C23.49 83.07 23.22 81.78 22.19 81.52Z" fill="#003759"/>
<path d="M10.73 95.2301C10.21 95.9801 10.25 96.9701 10.69 97.7601C12.68 101.29 20.35 115.57 23.02 114.26C26.17 112.71 18.35 100.31 16.04 97.6601C14.12 95.4501 11.97 93.4301 10.72 95.2401L10.73 95.2301Z" fill="#F4AF9F"/>
<path d="M14.02 79.59C14.02 79.59 13.23 78.3001 11.92 78.1101C11.92 78.1101 11.09 76.7401 9.47002 77.0501C7.85002 77.3601 7.37001 78.2601 7.62001 79.0101C7.62001 79.0101 6.89001 79.72 6.89001 80.84C6.89001 81.96 8.04001 82.1501 8.04001 82.1501C8.04001 82.1501 7.82001 83.3001 8.54001 83.7301C9.25001 84.1701 10.44 83.6401 10.44 83.6401C10.44 83.6401 11.72 83.79 12.74 82.77" fill="#003759"/>
<path d="M14.56 79.7999C14.56 79.7999 13.66 81.1299 13.47 82.8699L12.74 82.7799C12.74 82.7799 13.44 80.0499 14.06 79.5699L14.57 79.7999H14.56Z" fill="url(#paint30_linear_13_170)"/>
<path d="M20.66 112.94C20.89 113.78 21.62 114.4 22.46 114.63C26.39 115.74 40.43 119.56 41.55 118.19C42.85 116.6 22.75 110.11 21.9 110.79C21.26 111.31 20.35 111.78 20.66 112.93V112.94Z" fill="#F4AF9F"/>
<path d="M28.78 116.87L38.39 118.65L39.33 116.37L29.82 112.71L28.78 116.87Z" fill="#F4AF9F"/>
<path d="M24.03 109.98C23.93 109.83 19.12 101.45 19.12 101.45C19.12 101.45 13.97 92.03 10.8 94.09C7.84999 96 12.28 102.73 13.81 105.12C15.26 107.38 18.27 112.01 19.91 114.04C21.55 116.07 28.78 117.31 28.78 117.31L29.97 112.5C29.97 112.5 24.13 110.12 24.03 109.97V109.98Z" fill="url(#paint31_linear_13_170)"/>
<path d="M39.19 116.62L39.33 116.37L40.44 116.15C40.72 116.09 41.02 116.11 41.29 116.19L42.39 116.84C42.39 116.84 42.49 117.22 41.79 117.02C41.61 116.97 41.32 117.05 41.08 117.13L41.74 117.42L43.3 118.25C43.7 118.46 44.03 119.04 43.8 119.52C43.8 119.52 43.42 120.17 42.57 120.1H41.38C40.76 120 40.27 120.03 39.74 119.69L38.38 118.65L39.18 116.62H39.19Z" fill="#F4AF9F"/>
<defs>
<linearGradient id="paint0_linear_13_170" x1="119.58" y1="25.56" x2="119.58" y2="158.37" gradientUnits="userSpaceOnUse">
<stop stop-color="#E2F4FF"/>
<stop offset="1" stop-color="#D7ECFF"/>
</linearGradient>
<linearGradient id="paint1_linear_13_170" x1="112.39" y1="64.55" x2="112.39" y2="157.46" gradientUnits="userSpaceOnUse">
<stop stop-color="#B971FF"/>
<stop offset="1" stop-color="#3DB2F9"/>
</linearGradient>
<linearGradient id="paint2_linear_13_170" x1="106.53" y1="96.76" x2="118.25" y2="96.76" gradientUnits="userSpaceOnUse">
<stop stop-color="#B971FF"/>
<stop offset="1" stop-color="#3DB2F9"/>
</linearGradient>
<linearGradient id="paint3_linear_13_170" x1="0.00795605" y1="64.5518" x2="1.00797" y2="157.462" gradientUnits="userSpaceOnUse">
<stop stop-color="#B971FF"/>
<stop offset="1" stop-color="#3DB2F9"/>
</linearGradient>
<linearGradient id="paint4_linear_13_170" x1="-8.87053e-06" y1="64.55" x2="0.999991" y2="157.46" gradientUnits="userSpaceOnUse">
<stop stop-color="#B971FF"/>
<stop offset="1" stop-color="#3DB2F9"/>
</linearGradient>
<linearGradient id="paint5_linear_13_170" x1="171.46" y1="96.53" x2="171.46" y2="113.49" gradientUnits="userSpaceOnUse">
<stop stop-color="#B971FF"/>
<stop offset="1" stop-color="#3DB2F9"/>
</linearGradient>
<linearGradient id="paint6_linear_13_170" x1="178.19" y1="109" x2="178.19" y2="111.18" gradientUnits="userSpaceOnUse">
<stop stop-color="#B971FF"/>
<stop offset="1" stop-color="#3DB2F9"/>
</linearGradient>
<linearGradient id="paint7_linear_13_170" x1="153.65" y1="96.53" x2="153.65" y2="113.49" gradientUnits="userSpaceOnUse">
<stop stop-color="#B971FF"/>
<stop offset="1" stop-color="#3DB2F9"/>
</linearGradient>
<linearGradient id="paint8_linear_13_170" x1="160.38" y1="109" x2="160.38" y2="111.18" gradientUnits="userSpaceOnUse">
<stop stop-color="#B971FF"/>
<stop offset="1" stop-color="#3DB2F9"/>
</linearGradient>
<linearGradient id="paint9_linear_13_170" x1="194.35" y1="96.53" x2="194.35" y2="113.49" gradientUnits="userSpaceOnUse">
<stop stop-color="#B971FF"/>
<stop offset="1" stop-color="#3DB2F9"/>
</linearGradient>
<linearGradient id="paint10_linear_13_170" x1="201.08" y1="109" x2="201.08" y2="111.18" gradientUnits="userSpaceOnUse">
<stop stop-color="#B971FF"/>
<stop offset="1" stop-color="#3DB2F9"/>
</linearGradient>
<linearGradient id="paint11_linear_13_170" x1="190.77" y1="61.21" x2="190.77" y2="78.17" gradientUnits="userSpaceOnUse">
<stop stop-color="#B971FF"/>
<stop offset="1" stop-color="#3DB2F9"/>
</linearGradient>
<linearGradient id="paint12_linear_13_170" x1="197.51" y1="73.68" x2="197.51" y2="75.86" gradientUnits="userSpaceOnUse">
<stop stop-color="#B971FF"/>
<stop offset="1" stop-color="#3DB2F9"/>
</linearGradient>
<linearGradient id="paint13_linear_13_170" x1="172.93" y1="61.21" x2="172.93" y2="78.17" gradientUnits="userSpaceOnUse">
<stop stop-color="#B971FF"/>
<stop offset="1" stop-color="#3DB2F9"/>
</linearGradient>
<linearGradient id="paint14_linear_13_170" x1="179.66" y1="73.68" x2="179.66" y2="75.86" gradientUnits="userSpaceOnUse">
<stop stop-color="#B971FF"/>
<stop offset="1" stop-color="#3DB2F9"/>
</linearGradient>
<linearGradient id="paint15_linear_13_170" x1="150.49" y1="61.21" x2="150.49" y2="78.17" gradientUnits="userSpaceOnUse">
<stop stop-color="#B971FF"/>
<stop offset="1" stop-color="#3DB2F9"/>
</linearGradient>
<linearGradient id="paint16_linear_13_170" x1="157.22" y1="73.68" x2="157.22" y2="75.86" gradientUnits="userSpaceOnUse">
<stop stop-color="#B971FF"/>
<stop offset="1" stop-color="#3DB2F9"/>
</linearGradient>
<linearGradient id="paint17_linear_13_170" x1="166.19" y1="159.34" x2="166.19" y2="184.93" gradientUnits="userSpaceOnUse">
<stop stop-color="#B971FF"/>
<stop offset="1" stop-color="#3DB2F9"/>
</linearGradient>
<linearGradient id="paint18_linear_13_170" x1="176.35" y1="178.16" x2="176.35" y2="181.44" gradientUnits="userSpaceOnUse">
<stop stop-color="#B971FF"/>
<stop offset="1" stop-color="#3DB2F9"/>
</linearGradient>
<linearGradient id="paint19_linear_13_170" x1="148.64" y1="133.87" x2="148.64" y2="159.46" gradientUnits="userSpaceOnUse">
<stop stop-color="#B971FF"/>
<stop offset="1" stop-color="#3DB2F9"/>
</linearGradient>
<linearGradient id="paint20_linear_13_170" x1="158.8" y1="152.69" x2="158.8" y2="155.97" gradientUnits="userSpaceOnUse">
<stop stop-color="#B971FF"/>
<stop offset="1" stop-color="#3DB2F9"/>
</linearGradient>
<linearGradient id="paint21_linear_13_170" x1="139.27" y1="159.34" x2="139.27" y2="184.93" gradientUnits="userSpaceOnUse">
<stop stop-color="#B971FF"/>
<stop offset="1" stop-color="#3DB2F9"/>
</linearGradient>
<linearGradient id="paint22_linear_13_170" x1="149.42" y1="178.16" x2="149.42" y2="181.44" gradientUnits="userSpaceOnUse">
<stop stop-color="#B971FF"/>
<stop offset="1" stop-color="#3DB2F9"/>
</linearGradient>
<linearGradient id="paint23_linear_13_170" x1="211.01" y1="117.82" x2="211.01" y2="97.11" gradientUnits="userSpaceOnUse">
<stop stop-color="#8AD3FF"/>
<stop offset="1" stop-color="#5F9CFF"/>
</linearGradient>
<linearGradient id="paint24_linear_13_170" x1="217.82" y1="117.82" x2="217.82" y2="97.11" gradientUnits="userSpaceOnUse">
<stop stop-color="#8AD3FF"/>
<stop offset="1" stop-color="#5F9CFF"/>
</linearGradient>
<linearGradient id="paint25_linear_13_170" x1="226.13" y1="117.82" x2="226.13" y2="97.11" gradientUnits="userSpaceOnUse">
<stop stop-color="#8AD3FF"/>
<stop offset="1" stop-color="#5F9CFF"/>
</linearGradient>
<linearGradient id="paint26_linear_13_170" x1="29.45" y1="107.53" x2="27.7" y2="94.24" gradientUnits="userSpaceOnUse">
<stop stop-color="#8AD3FF"/>
<stop offset="1" stop-color="#5F9CFF"/>
</linearGradient>
<linearGradient id="paint27_linear_13_170" x1="19.6" y1="95.86" x2="19.6" y2="110.76" gradientUnits="userSpaceOnUse">
<stop stop-color="#8AD3FF"/>
<stop offset="1" stop-color="#5F9CFF"/>
</linearGradient>
<linearGradient id="paint28_linear_13_170" x1="40.42" y1="97.78" x2="40.42" y2="123.37" gradientUnits="userSpaceOnUse">
<stop stop-color="#B971FF"/>
<stop offset="1" stop-color="#3DB2F9"/>
</linearGradient>
<linearGradient id="paint29_linear_13_170" x1="50.57" y1="116.6" x2="50.57" y2="119.88" gradientUnits="userSpaceOnUse">
<stop stop-color="#B971FF"/>
<stop offset="1" stop-color="#3DB2F9"/>
</linearGradient>
<linearGradient id="paint30_linear_13_170" x1="12.74" y1="81.2099" x2="14.56" y2="81.2099" gradientUnits="userSpaceOnUse">
<stop stop-color="#8AD3FF"/>
<stop offset="1" stop-color="#5F9CFF"/>
</linearGradient>
<linearGradient id="paint31_linear_13_170" x1="26.41" y1="115.1" x2="11.66" y2="96.85" gradientUnits="userSpaceOnUse">
<stop stop-color="#8AD3FF"/>
<stop offset="1" stop-color="#5F9CFF"/>
</linearGradient>
</defs>
</svg>
