<svg width="214" height="136" viewBox="0 0 214 136" fill="none" xmlns="http://www.w3.org/2000/svg">
<g clip-path="url(#clip0_21_2)">
<path d="M187.148 42.2418C186.637 42.2418 186.126 42.2213 185.614 42.1702C185.482 42.16 185.379 42.0373 185.389 41.8941C185.4 41.7612 185.522 41.6589 185.666 41.6692C186.657 41.7612 187.67 41.7612 188.662 41.6692C188.795 41.6589 188.917 41.7612 188.938 41.8941C188.948 42.0271 188.846 42.1498 188.713 42.1702C188.202 42.2213 187.68 42.2418 187.158 42.2418H187.148ZM182.649 41.618C182.649 41.618 182.608 41.618 182.577 41.618C181.586 41.3419 180.614 40.9636 179.694 40.5034C179.571 40.4421 179.52 40.2887 179.581 40.166C179.643 40.0433 179.796 39.9922 179.919 40.0535C180.808 40.5034 181.749 40.8613 182.71 41.1374C182.843 41.1783 182.925 41.3113 182.884 41.4442C182.854 41.5567 182.751 41.6283 182.639 41.6283L182.649 41.618ZM191.668 41.618C191.555 41.618 191.453 41.5465 191.423 41.434C191.382 41.301 191.463 41.1579 191.596 41.1272C192.558 40.8511 193.498 40.4932 194.388 40.0433C194.511 39.9819 194.664 40.0331 194.725 40.1558C194.787 40.2785 194.736 40.4319 194.613 40.4932C193.693 40.9534 192.721 41.3317 191.729 41.6078C191.709 41.6078 191.678 41.6078 191.658 41.6078L191.668 41.618ZM177.219 38.9287C177.168 38.9287 177.117 38.9083 177.066 38.8776C176.248 38.2538 175.481 37.5585 174.786 36.8018C174.694 36.6995 174.704 36.5359 174.806 36.4439C174.908 36.3519 175.072 36.3621 175.164 36.4643C175.839 37.2006 176.585 37.8755 177.383 38.4788C177.495 38.5606 177.516 38.7242 177.434 38.8265C177.383 38.8878 177.311 38.9287 177.229 38.9287H177.219ZM197.088 38.9185C197.016 38.9185 196.934 38.8878 196.883 38.8162C196.801 38.7037 196.822 38.5504 196.934 38.4686C197.732 37.8652 198.478 37.1904 199.143 36.4439C199.235 36.3416 199.398 36.3314 199.501 36.4234C199.603 36.5155 199.613 36.6791 199.521 36.7813C198.826 37.538 198.059 38.2436 197.241 38.8673C197.2 38.898 197.139 38.9185 197.088 38.9185ZM173.139 34.4601C173.057 34.4601 172.976 34.4192 172.925 34.3374C172.383 33.458 171.912 32.5377 171.544 31.5765C171.493 31.4436 171.554 31.3004 171.687 31.2493C171.82 31.1982 171.963 31.2595 172.014 31.3925C172.372 32.323 172.822 33.2228 173.354 34.0716C173.426 34.1943 173.395 34.3477 173.272 34.4192C173.231 34.4499 173.18 34.4601 173.139 34.4601ZM201.168 34.4397C201.168 34.4397 201.075 34.4295 201.035 34.3988C200.912 34.3272 200.881 34.1738 200.953 34.0511C201.485 33.2024 201.924 32.3025 202.292 31.372C202.343 31.2391 202.487 31.1777 202.62 31.2289C202.752 31.28 202.814 31.4231 202.763 31.5561C202.395 32.5173 201.924 33.4478 201.382 34.317C201.331 34.3886 201.249 34.4397 201.168 34.4397ZM170.941 28.8156C170.818 28.8156 170.716 28.7338 170.695 28.6111C170.511 27.609 170.409 26.566 170.409 25.5332C170.409 25.3901 170.521 25.2776 170.654 25.2776C170.798 25.2776 170.91 25.3901 170.91 25.523C170.91 26.5251 171.002 27.5272 171.186 28.5089C171.207 28.6418 171.125 28.7747 170.982 28.8054C170.961 28.8054 170.951 28.8054 170.931 28.8054L170.941 28.8156ZM203.356 28.7952C203.356 28.7952 203.325 28.7952 203.305 28.7952C203.172 28.7747 203.08 28.6418 203.1 28.4986C203.284 27.517 203.376 26.5149 203.376 25.5128C203.376 25.3696 203.489 25.2367 203.622 25.2367C203.765 25.2367 203.867 25.3287 203.877 25.4616V25.4821C203.877 26.5353 203.785 27.5783 203.591 28.5804C203.571 28.7031 203.468 28.7849 203.346 28.7849L203.356 28.7952ZM170.931 22.7621C170.931 22.7621 170.9 22.7621 170.89 22.7621C170.757 22.7416 170.665 22.6087 170.685 22.4655C170.869 21.4532 171.155 20.4511 171.524 19.4899C171.575 19.357 171.718 19.2956 171.851 19.3467C171.984 19.3979 172.045 19.541 171.994 19.674C171.636 20.6045 171.36 21.5759 171.176 22.5576C171.155 22.6803 171.053 22.7621 170.931 22.7621ZM203.346 22.6905C203.223 22.6905 203.121 22.6087 203.1 22.486C202.916 21.5043 202.64 20.5329 202.272 19.6126C202.221 19.4797 202.282 19.3365 202.415 19.2854C202.548 19.2343 202.691 19.2956 202.742 19.4286C203.121 20.3898 203.407 21.3816 203.591 22.394C203.622 22.5269 203.53 22.6598 203.386 22.6905C203.366 22.6905 203.356 22.6905 203.335 22.6905H203.346ZM173.109 17.1073C173.109 17.1073 173.017 17.0971 172.976 17.0664C172.853 16.9949 172.822 16.8415 172.894 16.7188C173.436 15.8394 174.06 15.0111 174.755 14.2544C174.847 14.1522 175.011 14.1419 175.113 14.234C175.215 14.326 175.225 14.4896 175.133 14.5919C174.458 15.3281 173.855 16.1359 173.334 16.9846C173.282 17.0562 173.201 17.1073 173.119 17.1073H173.109ZM201.137 17.046C201.055 17.046 200.973 17.0051 200.922 16.9233C200.39 16.0746 199.787 15.277 199.112 14.5407C199.02 14.4385 199.03 14.2851 199.133 14.1828C199.235 14.0908 199.398 14.101 199.491 14.2033C200.186 14.96 200.82 15.7883 201.362 16.6574C201.433 16.7699 201.403 16.9335 201.28 17.0051C201.239 17.0358 201.188 17.046 201.147 17.046H201.137ZM177.178 12.6286C177.107 12.6286 177.025 12.5979 176.974 12.5263C176.892 12.4138 176.912 12.2604 177.025 12.1786C177.843 11.5549 178.722 11.0027 179.643 10.5425C179.765 10.4812 179.919 10.5323 179.98 10.655C180.041 10.7777 179.99 10.9311 179.868 10.9925C178.978 11.4424 178.119 11.9741 177.322 12.5774C177.281 12.6081 177.219 12.6286 177.168 12.6286H177.178ZM182.598 9.91878C182.485 9.91878 182.393 9.8472 182.352 9.73472C182.312 9.60179 182.393 9.45863 182.526 9.42795C183.518 9.14164 184.531 8.95757 185.563 8.85532C185.696 8.84509 185.819 8.94735 185.839 9.08028C185.85 9.21321 185.747 9.33592 185.614 9.35637C184.623 9.4484 183.631 9.63246 182.669 9.90855C182.649 9.90855 182.618 9.90855 182.598 9.90855V9.91878Z" fill="#92B5F2"/>
<path d="M195.165 13.1501H193.335V7.31128H195.165V13.1501ZM193.509 12.9762H194.991V7.49534H193.509V12.9762Z" fill="#92B5F2"/>
<path d="M192.343 13.15H190.512V5.26611H192.343V13.15ZM190.686 12.9762H192.169V5.43995H190.686V12.9762Z" fill="#92B5F2"/>
<path d="M189.521 13.1501H187.69V3.12903H189.521V13.1501ZM187.864 12.9762H189.347V3.30286H187.864V12.9762Z" fill="#92B5F2"/>
<path d="M197.987 13.1501H196.157V5.21509H197.987V13.1501ZM196.331 12.9763H197.814V5.39915H196.331V12.9763Z" fill="#92B5F2"/>
<path d="M200.81 13.1501H198.979V3.51758H200.81V13.1501ZM199.153 12.9762H200.636V3.70164H199.153V12.9865V12.9762Z" fill="#92B5F2"/>
<path d="M194.603 3.83456H194.582L188.242 2.02464C188.242 2.02464 188.171 1.96328 188.181 1.91216C188.191 1.86103 188.242 1.84058 188.294 1.8508L194.603 3.6505L200.861 0.255615C200.861 0.255615 200.953 0.255615 200.983 0.286292C201.004 0.327194 200.983 0.378322 200.953 0.408999L194.664 3.81411C194.664 3.81411 194.633 3.82434 194.623 3.82434L194.603 3.83456Z" fill="#92B5F2"/>
<path d="M200.656 1.65654C200.656 1.65654 200.636 1.65654 200.626 1.65654C200.585 1.63609 200.564 1.58496 200.574 1.54406L201.137 0.18406H199.623C199.623 0.18406 199.531 0.143158 199.531 0.0920301C199.531 0.0409023 199.572 0 199.623 0H201.27C201.27 0 201.331 0.0102256 201.341 0.0409023C201.362 0.0613534 201.362 0.0920301 201.341 0.122707L200.728 1.60541C200.728 1.60541 200.677 1.65654 200.646 1.65654H200.656Z" fill="#92B5F2"/>
<path d="M14.8475 53.1933C13.0683 53.1933 11.6265 51.7515 11.6265 49.9723C11.6265 48.193 13.0683 46.7512 14.8475 46.7512C16.6268 46.7512 18.0686 48.193 18.0686 49.9723C18.0686 51.7515 16.6268 53.1933 14.8475 53.1933ZM14.8475 46.9966C13.2114 46.9966 11.8821 48.326 11.8821 49.962C11.8821 51.5981 13.2114 52.9275 14.8475 52.9275C16.4836 52.9275 17.8129 51.5981 17.8129 49.962C17.8129 48.326 16.4836 46.9966 14.8475 46.9966Z" fill="#92B5F2"/>
<path d="M14.8475 48.5816C14.0499 48.5816 13.283 48.2851 12.6899 47.7534L12.8638 47.5591C13.4057 48.0499 14.1113 48.3158 14.8475 48.3158C15.5838 48.3158 16.2791 48.0499 16.8211 47.5591L16.9949 47.7534C16.4018 48.2851 15.6451 48.5714 14.8475 48.5714V48.5816Z" fill="#92B5F2"/>
<path d="M12.9149 52.4162L12.7513 52.222C13.3341 51.7209 14.0806 51.4448 14.8577 51.4448C15.6349 51.4448 16.3711 51.7209 16.954 52.222L16.7904 52.4162C16.2484 51.9561 15.5633 51.7005 14.8577 51.7005C14.1522 51.7005 13.4568 51.9561 12.9149 52.4162Z" fill="#92B5F2"/>
<path d="M14.8475 53.1933C13.917 53.1933 13.1808 51.772 13.1808 49.9723C13.1808 48.1726 13.917 46.7512 14.8475 46.7512C15.778 46.7512 16.5143 48.1726 16.5143 49.9723C16.5143 51.772 15.778 53.1933 14.8475 53.1933ZM14.8475 46.9966C14.0806 46.9966 13.4364 48.3566 13.4364 49.962C13.4364 51.5675 14.0806 52.9275 14.8475 52.9275C15.6144 52.9275 16.2586 51.5675 16.2586 49.962C16.2586 48.3566 15.6144 46.9966 14.8475 46.9966Z" fill="#92B5F2"/>
<path d="M14.9804 46.874H14.7248V53.0707H14.9804V46.874Z" fill="#92B5F2"/>
<path d="M17.9561 49.8394H11.7594V50.095H17.9561V49.8394Z" fill="#92B5F2"/>
<path d="M158.915 11.9639H146.123C146.123 11.9639 146.031 11.923 146.031 11.8718V2.14733C146.031 2.14733 146.072 2.0553 146.123 2.0553H158.915C158.915 2.0553 159.008 2.0962 159.008 2.14733V11.8821C159.008 11.8821 158.967 11.9741 158.915 11.9741V11.9639ZM146.215 11.79H158.823V2.23936H146.215V11.79Z" fill="#92B5F2"/>
<path d="M159.314 13.0786H145.724C145.724 13.0786 145.632 13.0377 145.632 12.9865V11.8719C145.632 11.8719 145.673 11.7799 145.724 11.7799H159.314C159.314 11.7799 159.406 11.8208 159.406 11.8719V12.9865C159.406 12.9865 159.365 13.0786 159.314 13.0786ZM145.817 12.9047H159.232V11.9742H145.817V12.9047Z" fill="#92B5F2"/>
<path d="M152.524 15.0111C152.167 15.0111 151.88 14.7248 151.88 14.3669C151.88 14.009 152.167 13.7227 152.524 13.7227C152.882 13.7227 153.169 14.009 153.169 14.3669C153.169 14.7248 152.882 15.0111 152.524 15.0111ZM152.524 13.8965C152.269 13.8965 152.054 14.101 152.054 14.3669C152.054 14.6327 152.269 14.8372 152.524 14.8372C152.78 14.8372 152.995 14.6327 152.995 14.3669C152.995 14.101 152.78 13.8965 152.524 13.8965Z" fill="#92B5F2"/>
<path d="M152.524 13.8761C152.524 13.8761 152.432 13.8352 152.432 13.784V13.0273C152.432 13.0273 152.473 12.9353 152.524 12.9353C152.576 12.9353 152.617 12.9762 152.617 13.0273V13.784C152.617 13.784 152.576 13.8761 152.524 13.8761Z" fill="#92B5F2"/>
<path d="M149.416 11.0436H147.545C147.545 11.0436 147.453 11.0027 147.453 10.9516V6.35009C147.453 6.35009 147.494 6.25806 147.545 6.25806H149.416C149.416 6.25806 149.508 6.29896 149.508 6.35009V10.9516C149.508 10.9516 149.467 11.0436 149.416 11.0436ZM147.626 10.8698H149.324V6.44212H147.626V10.8698Z" fill="#92B5F2"/>
<path d="M153.118 11.0436H151.246C151.246 11.0436 151.154 11.0027 151.154 10.9516V4.49926C151.154 4.49926 151.195 4.40723 151.246 4.40723H153.118C153.118 4.40723 153.21 4.44813 153.21 4.49926V10.9516C153.21 10.9516 153.169 11.0436 153.118 11.0436ZM151.328 10.8698H153.026V4.60151H151.328V10.8698Z" fill="#92B5F2"/>
<path d="M157.044 11.0436H155.173C155.173 11.0436 155.081 11.0027 155.081 10.9516V3.16991C155.081 3.16991 155.122 3.07788 155.173 3.07788H157.044C157.044 3.07788 157.136 3.11878 157.136 3.16991V10.9516C157.136 10.9516 157.095 11.0436 157.044 11.0436ZM155.255 10.8698H156.952V3.25172H155.255V10.8595V10.8698Z" fill="#92B5F2"/>
<path d="M67.049 16.2076C65.9549 16.2076 65.0755 15.3179 65.0755 14.234C65.0755 13.1501 65.9651 12.2605 67.049 12.2605C67.049 12.2605 67.0695 12.2605 67.0797 12.2707C67.0797 12.2707 67.0899 12.2912 67.0899 12.3014L67.0695 14.2136H68.9817C68.9817 14.2136 69.0021 14.2136 69.0123 14.2238C69.0123 14.2238 69.0226 14.2443 69.0226 14.2545C69.0123 15.3282 68.1227 16.2076 67.049 16.2076ZM66.9979 12.3525C65.9856 12.3832 65.1675 13.2115 65.1675 14.234C65.1675 15.2566 66.0162 16.1155 67.049 16.1155C68.0818 16.1155 68.8896 15.3077 68.9305 14.3056H67.0183C67.0183 14.3056 66.9979 14.3056 66.9877 14.2954C66.9877 14.2954 66.9774 14.2749 66.9774 14.2647L66.9979 12.3525Z" fill="#92B5F2"/>
<path d="M69.3498 13.9681H67.3967C67.3967 13.9681 67.3762 13.9681 67.366 13.9579C67.366 13.9579 67.3558 13.9374 67.3558 13.9272L67.3762 11.9741C67.3762 11.9741 67.3967 11.923 67.4274 11.923C68.5215 11.923 69.4111 12.8126 69.4111 13.8965C69.4111 13.8965 69.4111 13.9067 69.4111 13.917C69.4111 13.917 69.3907 13.9783 69.36 13.9783L69.3498 13.9681ZM67.4376 13.8761H69.2986C69.2884 12.8637 68.4704 12.0355 67.458 12.015L67.4376 13.8761Z" fill="#92B5F2"/>
<path d="M49.8394 10.2461L36.1883 23.8972C36.311 24.2551 36.4644 24.613 36.628 24.9504L50.9029 10.6755C50.5654 10.5119 50.2075 10.3688 49.8496 10.2358L49.8394 10.2461Z" fill="#3DB2F9"/>
<path d="M47.3341 9.68359L35.6259 21.3919C35.6668 21.7702 35.7179 22.1486 35.7997 22.5269L48.459 9.86765C48.0908 9.78585 47.7125 9.73472 47.3239 9.69382L47.3341 9.68359Z" fill="#3DB2F9"/>
<path d="M56.9666 20.3285C56.9666 20.2364 56.9666 20.1444 56.9666 20.0524L46.0048 31.0142C46.0968 31.0142 46.1889 31.0142 46.2809 31.0142C46.6592 31.0142 47.0274 30.9937 47.3955 30.9528L56.9155 21.4328C56.9564 21.0647 56.9768 20.6966 56.9768 20.3182L56.9666 20.3285Z" fill="#3DB2F9"/>
<path d="M52.8662 11.9128C52.5901 11.698 52.314 11.5037 52.0175 11.3094L37.2517 26.0752C37.4358 26.3615 37.6403 26.6478 37.855 26.9239L52.8662 11.9128Z" fill="#3DB2F9"/>
<path d="M35.5952 19.6536L45.5958 9.65295C45.3095 9.67341 45.0232 9.70408 44.7368 9.74498L35.6872 18.7946C35.6463 19.0809 35.6156 19.3672 35.5952 19.6536Z" fill="#3DB2F9"/>
<path d="M53.8069 12.7411L38.6833 27.8647C38.9696 28.151 39.2764 28.4271 39.5934 28.6827L54.625 13.6512C54.3693 13.3342 54.1035 13.0274 53.8069 12.7411Z" fill="#3DB2F9"/>
<path d="M55.9338 15.7474C55.76 15.3793 55.5657 15.0214 55.351 14.6737L40.6262 29.3985C40.9738 29.6133 41.3215 29.8075 41.6998 29.9814L55.9441 15.7372L55.9338 15.7474Z" fill="#3DB2F9"/>
<path d="M42.3338 10.3789C39.5934 11.4628 37.4051 13.6511 36.3212 16.3915L42.3338 10.3789Z" fill="#3DB2F9"/>
<path d="M49.6349 30.4722C52.8355 29.4087 55.3612 26.883 56.4144 23.6926L49.6349 30.4722Z" fill="#3DB2F9"/>
<path d="M56.4349 17.0154L42.9576 30.4927C43.4177 30.6461 43.8983 30.7585 44.3892 30.8506L56.7928 18.447C56.7008 17.9561 56.5883 17.4755 56.4349 17.0154Z" fill="#3DB2F9"/>
<path d="M84.6983 8.385C85.2349 8.385 85.6698 7.95007 85.6698 7.41357C85.6698 6.87706 85.2349 6.44214 84.6983 6.44214C84.1618 6.44214 83.7269 6.87706 83.7269 7.41357C83.7269 7.95007 84.1618 8.385 84.6983 8.385Z" fill="#ABC9FD"/>
<path d="M89.9134 8.385C90.4499 8.385 90.8848 7.95007 90.8848 7.41357C90.8848 6.87706 90.4499 6.44214 89.9134 6.44214C89.3769 6.44214 88.942 6.87706 88.942 7.41357C88.942 7.95007 89.3769 8.385 89.9134 8.385Z" fill="#ABC9FD"/>
<path d="M95.1284 8.385C95.6649 8.385 96.0998 7.95007 96.0998 7.41357C96.0998 6.87706 95.6649 6.44214 95.1284 6.44214C94.5919 6.44214 94.157 6.87706 94.157 7.41357C94.157 7.95007 94.5919 8.385 95.1284 8.385Z" fill="#ABC9FD"/>
<path d="M100.333 8.385C100.87 8.385 101.305 7.95007 101.305 7.41357C101.305 6.87706 100.87 6.44214 100.333 6.44214C99.7967 6.44214 99.3618 6.87706 99.3618 7.41357C99.3618 7.95007 99.7967 8.385 100.333 8.385Z" fill="#ABC9FD"/>
<path d="M84.6983 13.6C85.2349 13.6 85.6698 13.165 85.6698 12.6285C85.6698 12.092 85.2349 11.6571 84.6983 11.6571C84.1618 11.6571 83.7269 12.092 83.7269 12.6285C83.7269 13.165 84.1618 13.6 84.6983 13.6Z" fill="#ABC9FD"/>
<path d="M89.9134 13.6C90.4499 13.6 90.8848 13.165 90.8848 12.6285C90.8848 12.092 90.4499 11.6571 89.9134 11.6571C89.3769 11.6571 88.942 12.092 88.942 12.6285C88.942 13.165 89.3769 13.6 89.9134 13.6Z" fill="#ABC9FD"/>
<path d="M95.1284 13.6C95.6649 13.6 96.0998 13.165 96.0998 12.6285C96.0998 12.092 95.6649 11.6571 95.1284 11.6571C94.5919 11.6571 94.157 12.092 94.157 12.6285C94.157 13.165 94.5919 13.6 95.1284 13.6Z" fill="#ABC9FD"/>
<path d="M100.333 13.6C100.87 13.6 101.305 13.165 101.305 12.6285C101.305 12.092 100.87 11.6571 100.333 11.6571C99.7967 11.6571 99.3618 12.092 99.3618 12.6285C99.3618 13.165 99.7967 13.6 100.333 13.6Z" fill="#ABC9FD"/>
<path d="M200.155 61.4761L204.798 52.7946L204.092 51.496L198.212 62.468H210.064L209.522 61.4761H200.155Z" fill="#ABC9FD"/>
<path d="M207.702 49.4814L201.822 60.4637H213.673L207.702 49.4814Z" fill="#3DB2F9"/>
<path d="M131.726 14.2953L132.881 13.1398C133.413 12.6081 133.413 11.7491 132.881 11.2174C132.349 10.6857 131.491 10.6857 130.959 11.2174L129.803 12.3729L128.648 11.2174C128.116 10.6857 127.257 10.6857 126.725 11.2174C126.194 11.7491 126.194 12.6081 126.725 13.1398L127.881 14.2953L126.725 15.4508C126.194 15.9825 126.194 16.8415 126.725 17.3732C127.257 17.9049 128.116 17.9049 128.648 17.3732L129.803 16.2177L130.959 17.3732C131.491 17.9049 132.349 17.9049 132.881 17.3732C133.413 16.8415 133.413 15.9825 132.881 15.4508L131.726 14.2953Z" fill="#3DB2F9"/>
<path d="M3.85504 74.5955L4.68332 73.7673C5.06166 73.3889 5.06166 72.7754 4.68332 72.397C4.30497 72.0187 3.69144 72.0187 3.31309 72.397L2.48482 73.2253L1.65655 72.397C1.2782 72.0187 0.664669 72.0187 0.286323 72.397C-0.092023 72.7754 -0.092023 73.3889 0.286323 73.7673L1.11459 74.5955L0.286323 75.4238C-0.092023 75.8022 -0.092023 76.4157 0.286323 76.794C0.664669 77.1724 1.2782 77.1724 1.65655 76.794L2.48482 75.9658L3.31309 76.794C3.69144 77.1724 4.30497 77.1724 4.68332 76.794C5.06166 76.4157 5.06166 75.8022 4.68332 75.4238L3.85504 74.5955Z" fill="#ABC9FD"/>
<path d="M207.62 136H1.11459V134.783C1.11459 133.127 2.22918 131.777 3.58918 131.777H205.145C206.515 131.777 207.62 133.127 207.62 134.783V136Z" fill="#B4CCF0"/>
<path d="M68.7056 119.915H58.981V126.746H68.7056V119.915Z" fill="#0086D1"/>
<path d="M172.066 119.915H162.341V126.746H172.066V119.915Z" fill="#0086D1"/>
<path d="M193.938 20.2466H37.0984C35.534 20.2466 34.2659 21.5147 34.2659 23.0791V119.097C34.2659 120.661 35.534 121.93 37.0984 121.93H193.938C195.502 121.93 196.771 120.661 196.771 119.097V23.0791C196.771 21.5147 195.502 20.2466 193.938 20.2466Z" fill="#14243C"/>
<path d="M200.084 124.834H31.7913C30.5037 124.834 29.4599 125.878 29.4599 127.165V129.486C29.4599 130.774 30.5037 131.818 31.7913 131.818H200.084C201.371 131.818 202.415 130.774 202.415 129.486V127.165C202.415 125.878 201.371 124.834 200.084 124.834Z" fill="#14243C"/>
<path d="M192.731 21.8112H38.3152C36.9485 21.8112 35.8406 22.9191 35.8406 24.2857V112.645C35.8406 114.012 36.9485 115.119 38.3152 115.119H192.731C194.098 115.119 195.206 114.012 195.206 112.645V24.2857C195.206 22.9191 194.098 21.8112 192.731 21.8112Z" fill="#0086D1"/>
<path d="M192.762 24.255H38.2845V112.686H192.762V24.255Z" fill="#EBF3FE"/>
<path d="M187.997 107.91V29.0304L43.0599 29.0304V107.91L187.997 107.91Z" fill="white"/>
<g style="mix-blend-mode:multiply">
<path d="M64.7074 86.6207H55.5759C53.5146 86.6207 51.8436 88.2918 51.8436 90.3531V99.4845C51.8436 101.546 53.5146 103.217 55.5759 103.217H64.7074C66.7687 103.217 68.4397 101.546 68.4397 99.4845V90.3531C68.4397 88.2918 66.7687 86.6207 64.7074 86.6207Z" fill="#B6BDD4"/>
</g>
<path d="M63.4189 85.046H54.2875C52.2262 85.046 50.5552 86.717 50.5552 88.7784V97.9098C50.5552 99.9711 52.2262 101.642 54.2875 101.642H63.4189C65.4802 101.642 67.1513 99.9711 67.1513 97.9098V88.7784C67.1513 86.717 65.4802 85.046 63.4189 85.046Z" fill="#EBF3FE"/>
<g style="mix-blend-mode:multiply">
<path d="M86.0992 86.6207H76.9678C74.9065 86.6207 73.2355 88.2918 73.2355 90.3531V99.4845C73.2355 101.546 74.9065 103.217 76.9678 103.217H86.0992C88.1605 103.217 89.8316 101.546 89.8316 99.4845V90.3531C89.8316 88.2918 88.1605 86.6207 86.0992 86.6207Z" fill="#B6BDD4"/>
</g>
<path d="M84.8108 85.046H75.6794C73.6181 85.046 71.9471 86.717 71.9471 88.7784V97.9098C71.9471 99.9711 73.6181 101.642 75.6794 101.642H84.8108C86.8721 101.642 88.5432 99.9711 88.5432 97.9098V88.7784C88.5432 86.717 86.8721 85.046 84.8108 85.046Z" fill="#EBF3FE"/>
<g style="mix-blend-mode:multiply">
<path d="M107.491 86.6207H98.3597C96.2984 86.6207 94.6273 88.2918 94.6273 90.3531V99.4845C94.6273 101.546 96.2984 103.217 98.3597 103.217H107.491C109.552 103.217 111.223 101.546 111.223 99.4845V90.3531C111.223 88.2918 109.552 86.6207 107.491 86.6207Z" fill="#B6BDD4"/>
</g>
<path d="M106.203 85.046H97.0713C95.01 85.046 93.3389 86.717 93.3389 88.7784V97.9098C93.3389 99.9711 95.01 101.642 97.0713 101.642H106.203C108.264 101.642 109.935 99.9711 109.935 97.9098V88.7784C109.935 86.717 108.264 85.046 106.203 85.046Z" fill="#EBF3FE"/>
<g style="mix-blend-mode:multiply">
<path d="M100.937 39.0719H52.8559C50.3372 39.0719 48.2953 41.1137 48.2953 43.6325V75.2295C48.2953 77.7482 50.3372 79.7901 52.8559 79.7901H100.937C103.455 79.7901 105.497 77.7482 105.497 75.2295V43.6325C105.497 41.1137 103.455 39.0719 100.937 39.0719Z" fill="#B6BDD4"/>
</g>
<path d="M98.1961 36.0758H50.1155C47.5967 36.0758 45.5549 38.1177 45.5549 40.6364V72.2334C45.5549 74.7522 47.5967 76.794 50.1155 76.794H98.1961C100.715 76.794 102.757 74.7522 102.757 72.2334V40.6364C102.757 38.1177 100.715 36.0758 98.1961 36.0758Z" fill="#EBF3FE"/>
<path d="M98.1961 36.0758H50.1257C47.6 36.0758 45.5651 38.1209 45.5651 40.6364V41.8839H102.767V40.6364C102.767 38.1107 100.722 36.0758 98.2063 36.0758H98.1961Z" fill="#0086D1"/>
<path d="M50.2119 39.2144C50.2827 38.7796 49.9875 38.3698 49.5528 38.2991C49.118 38.2283 48.7082 38.5235 48.6374 38.9582C48.5667 39.393 48.8618 39.8028 49.2966 39.8736C49.7314 39.9443 50.1412 39.6492 50.2119 39.2144Z" fill="white"/>
<path d="M53.132 39.8797C53.5725 39.8797 53.9296 39.5226 53.9296 39.0821C53.9296 38.6416 53.5725 38.2845 53.132 38.2845C52.6915 38.2845 52.3344 38.6416 52.3344 39.0821C52.3344 39.5226 52.6915 39.8797 53.132 39.8797Z" fill="white"/>
<path d="M56.8439 39.8797C57.2844 39.8797 57.6415 39.5226 57.6415 39.0821C57.6415 38.6416 57.2844 38.2845 56.8439 38.2845C56.4034 38.2845 56.0463 38.6416 56.0463 39.0821C56.0463 39.5226 56.4034 39.8797 56.8439 39.8797Z" fill="white"/>
<g style="mix-blend-mode:multiply">
<path d="M56.0668 60.0548C60.1442 60.0548 63.4496 56.7494 63.4496 52.6719C63.4496 48.5945 60.1442 45.2891 56.0668 45.2891C51.9893 45.2891 48.6839 48.5945 48.6839 52.6719C48.6839 56.7494 51.9893 60.0548 56.0668 60.0548Z" fill="#B6BDD4"/>
</g>
<path d="M54.9624 59.3184C59.0399 59.3184 62.3453 56.013 62.3453 51.9356C62.3453 47.8582 59.0399 44.5527 54.9624 44.5527C50.885 44.5527 47.5796 47.8582 47.5796 51.9356C47.5796 56.013 50.885 59.3184 54.9624 59.3184Z" fill="#0086D1"/>
<g style="mix-blend-mode:multiply">
<path d="M80.7922 49.8394H69.452C68.4192 49.8394 67.5807 49.0009 67.5807 47.9681C67.5807 46.9353 68.4192 46.0968 69.452 46.0968H80.7922C81.825 46.0968 82.6635 46.9353 82.6635 47.9681C82.6635 49.0009 81.825 49.8394 80.7922 49.8394Z" fill="#B6BDD4"/>
</g>
<path d="M80.2093 49.0826H68.8692C67.8364 49.0826 66.9979 48.2441 66.9979 47.2114C66.9979 46.1786 67.8364 45.3401 68.8692 45.3401H80.2093C81.2421 45.3401 82.0806 46.1786 82.0806 47.2114C82.0806 48.2441 81.2421 49.0826 80.2093 49.0826Z" fill="white"/>
<g style="mix-blend-mode:multiply">
<path d="M94.9341 53.3569H69.452C68.4186 53.3569 67.5807 54.1924 67.5807 55.2231C67.5807 56.2538 68.4186 57.0893 69.452 57.0893H94.9341C95.9676 57.0893 96.8054 56.2538 96.8054 55.2231C96.8054 54.1924 95.9676 53.3569 94.9341 53.3569Z" fill="#B6BDD4"/>
</g>
<path d="M94.3513 52.5901H68.8692C67.8357 52.5901 66.9979 53.4256 66.9979 54.4563C66.9979 55.4869 67.8357 56.3224 68.8692 56.3224H94.3513C95.3848 56.3224 96.2226 55.4869 96.2226 54.4563C96.2226 53.4256 95.3848 52.5901 94.3513 52.5901Z" fill="white"/>
<g style="mix-blend-mode:multiply">
<path d="M77.5916 63.9609H52.1095C51.076 63.9609 50.2382 64.7964 50.2382 65.8271C50.2382 66.8578 51.076 67.6933 52.1095 67.6933H77.5916C78.625 67.6933 79.4628 66.8578 79.4628 65.8271C79.4628 64.7964 78.625 63.9609 77.5916 63.9609Z" fill="#B6BDD4"/>
</g>
<path d="M77.0087 66.9365H51.5266C50.4938 66.9365 49.6553 66.098 49.6553 65.0652C49.6553 64.0325 50.4938 63.194 51.5266 63.194H77.0087C78.0415 63.194 78.88 64.0325 78.88 65.0652C78.88 66.098 78.0415 66.9365 77.0087 66.9365Z" fill="white"/>
<path d="M38.6526 76.0168H9.55068C7.90728 76.0168 6.57504 77.3491 6.57504 78.9925V128.842C6.57504 130.486 7.90728 131.818 9.55068 131.818H38.6526C40.296 131.818 41.6283 130.486 41.6283 128.842V78.9925C41.6283 77.3491 40.296 76.0168 38.6526 76.0168Z" fill="#B971FF"/>
<path d="M39.7059 76.0168H10.6039C8.9605 76.0168 7.62827 77.3491 7.62827 78.9925V128.842C7.62827 130.486 8.9605 131.818 10.6039 131.818H39.7059C41.3493 131.818 42.6815 130.486 42.6815 128.842V78.9925C42.6815 77.3491 41.3493 76.0168 39.7059 76.0168Z" fill="#6900BC"/>
<path d="M39.2764 77.3462H11.0436C9.89154 77.3462 8.9576 78.2801 8.9576 79.4322V128.402C8.9576 129.555 9.89154 130.488 11.0436 130.488H39.2764C40.4285 130.488 41.3624 129.555 41.3624 128.402V79.4322C41.3624 78.2801 40.4285 77.3462 39.2764 77.3462Z" fill="white"/>
<path d="M44.2153 76.0168H15.1134C13.47 76.0168 12.1377 77.3491 12.1377 78.9925V128.842C12.1377 130.486 13.47 131.818 15.1134 131.818H44.2153C45.8587 131.818 47.191 130.486 47.191 128.842V78.9925C47.191 77.3491 45.8587 76.0168 44.2153 76.0168Z" fill="#B971FF"/>
<path d="M45.2788 76.0168H16.1768C14.5334 76.0168 13.2012 77.3491 13.2012 78.9925V128.842C13.2012 130.486 14.5334 131.818 16.1768 131.818H45.2788C46.9222 131.818 48.2544 130.486 48.2544 128.842V78.9925C48.2544 77.3491 46.9222 76.0168 45.2788 76.0168Z" fill="#6900BC"/>
<path d="M40.9636 75.9146H37.7528V131.715H40.9636V75.9146Z" fill="#B971FF"/>
<path d="M15.4508 83.277C16.0607 83.277 16.5552 82.7825 16.5552 82.1726C16.5552 81.5627 16.0607 81.0682 15.4508 81.0682C14.8409 81.0682 14.3465 81.5627 14.3465 82.1726C14.3465 82.7825 14.8409 83.277 15.4508 83.277Z" fill="#D64956"/>
<path d="M15.502 81.6H5.60362C5.46243 81.6 5.34798 81.7144 5.34798 81.8556V82.3771C5.34798 82.5183 5.46243 82.6328 5.60362 82.6328H15.502C15.6431 82.6328 15.7576 82.5183 15.7576 82.3771V81.8556C15.7576 81.7144 15.6431 81.6 15.502 81.6Z" fill="#FFADB5"/>
<path d="M15.4508 91.4984C16.0607 91.4984 16.5552 91.004 16.5552 90.394C16.5552 89.7841 16.0607 89.2897 15.4508 89.2897C14.8409 89.2897 14.3465 89.7841 14.3465 90.394C14.3465 91.004 14.8409 91.4984 15.4508 91.4984Z" fill="#D64956"/>
<path d="M15.502 89.8214H5.60362C5.46243 89.8214 5.34798 89.9359 5.34798 90.0771V90.5986C5.34798 90.7397 5.46243 90.8542 5.60362 90.8542H15.502C15.6431 90.8542 15.7576 90.7397 15.7576 90.5986V90.0771C15.7576 89.9359 15.6431 89.8214 15.502 89.8214Z" fill="#FFADB5"/>
<path d="M15.4508 99.7095C16.0607 99.7095 16.5552 99.215 16.5552 98.6051C16.5552 97.9952 16.0607 97.5007 15.4508 97.5007C14.8409 97.5007 14.3465 97.9952 14.3465 98.6051C14.3465 99.215 14.8409 99.7095 15.4508 99.7095Z" fill="#D64956"/>
<path d="M15.502 98.0325H5.60362C5.46243 98.0325 5.34798 98.1469 5.34798 98.2881V98.8096C5.34798 98.9508 5.46243 99.0652 5.60362 99.0652H15.502C15.6431 99.0652 15.7576 98.9508 15.7576 98.8096V98.2881C15.7576 98.1469 15.6431 98.0325 15.502 98.0325Z" fill="#FFADB5"/>
<path d="M15.4508 107.931C16.0607 107.931 16.5552 107.436 16.5552 106.826C16.5552 106.216 16.0607 105.722 15.4508 105.722C14.8409 105.722 14.3465 106.216 14.3465 106.826C14.3465 107.436 14.8409 107.931 15.4508 107.931Z" fill="#D64956"/>
<path d="M15.502 106.254H5.60362C5.46243 106.254 5.34798 106.368 5.34798 106.51V107.031C5.34798 107.172 5.46243 107.287 5.60362 107.287H15.502C15.6431 107.287 15.7576 107.172 15.7576 107.031V106.51C15.7576 106.368 15.6431 106.254 15.502 106.254Z" fill="#FFADB5"/>
<path d="M15.4508 116.142C16.0607 116.142 16.5552 115.648 16.5552 115.038C16.5552 114.428 16.0607 113.933 15.4508 113.933C14.8409 113.933 14.3465 114.428 14.3465 115.038C14.3465 115.648 14.8409 116.142 15.4508 116.142Z" fill="#D64956"/>
<path d="M15.502 114.465H5.60362C5.46243 114.465 5.34798 114.579 5.34798 114.721V115.242C5.34798 115.383 5.46243 115.498 5.60362 115.498H15.502C15.6431 115.498 15.7576 115.383 15.7576 115.242V114.721C15.7576 114.579 15.6431 114.465 15.502 114.465Z" fill="#FFADB5"/>
<path d="M15.4508 124.363C16.0607 124.363 16.5552 123.869 16.5552 123.259C16.5552 122.649 16.0607 122.155 15.4508 122.155C14.8409 122.155 14.3465 122.649 14.3465 123.259C14.3465 123.869 14.8409 124.363 15.4508 124.363Z" fill="#D64956"/>
<path d="M15.502 122.686H5.60362C5.46243 122.686 5.34798 122.801 5.34798 122.942V123.463C5.34798 123.605 5.46243 123.719 5.60362 123.719H15.502C15.6431 123.719 15.7576 123.605 15.7576 123.463V122.942C15.7576 122.801 15.6431 122.686 15.502 122.686Z" fill="#FFADB5"/>
<path d="M57.9278 102.481H30.4722C29.9357 102.481 29.5007 102.916 29.5007 103.452V130.846C29.5007 131.383 29.9357 131.818 30.4722 131.818H57.9278C58.4643 131.818 58.8992 131.383 58.8992 130.846V103.452C58.8992 102.916 58.4643 102.481 57.9278 102.481Z" fill="#FFF0F1"/>
<path d="M43.1008 103.053H31.2187C30.6821 103.053 30.2472 103.488 30.2472 104.025V115.907C30.2472 116.443 30.6821 116.878 31.2187 116.878H43.1008C43.6373 116.878 44.0722 116.443 44.0722 115.907V104.025C44.0722 103.488 43.6373 103.053 43.1008 103.053Z" fill="#3DB2F9"/>
<path d="M57.3552 103.053H45.4731C44.9366 103.053 44.5016 103.488 44.5016 104.025V115.907C44.5016 116.443 44.9366 116.878 45.4731 116.878H57.3552C57.8917 116.878 58.3266 116.443 58.3266 115.907V104.025C58.3266 103.488 57.8917 103.053 57.3552 103.053Z" fill="#3DB2F9"/>
<path d="M43.1008 117.349H31.2187C30.6821 117.349 30.2472 117.783 30.2472 118.32V130.202C30.2472 130.739 30.6821 131.173 31.2187 131.173H43.1008C43.6373 131.173 44.0722 130.739 44.0722 130.202V118.32C44.0722 117.783 43.6373 117.349 43.1008 117.349Z" fill="#3DB2F9"/>
<path d="M57.3552 117.349H45.4731C44.9366 117.349 44.5016 117.783 44.5016 118.32V130.202C44.5016 130.739 44.9366 131.173 45.4731 131.173H57.3552C57.8917 131.173 58.3266 130.739 58.3266 130.202V118.32C58.3266 117.783 57.8917 117.349 57.3552 117.349Z" fill="#3DB2F9"/>
<path d="M36.4848 108.299C36.4848 109.904 35.6463 110.702 34.6544 110.702C33.6626 110.702 32.8854 109.945 32.8752 108.411C32.8752 106.888 33.7035 106.029 34.7158 106.029C35.7793 106.029 36.4848 106.847 36.4848 108.299ZM33.6932 108.371C33.6728 109.342 34.0307 110.078 34.6749 110.078C35.3498 110.078 35.6565 109.352 35.6565 108.34C35.6565 107.42 35.3907 106.642 34.6749 106.642C34.0307 106.642 33.6932 107.399 33.6932 108.36V108.371ZM34.5829 113.903L39.0617 106.029H39.7161L35.2373 113.903H34.5829ZM41.434 111.459C41.434 113.064 40.5955 113.862 39.6138 113.862C38.6322 113.862 37.8448 113.105 37.8346 111.581C37.8346 110.048 38.6629 109.189 39.6752 109.189C40.7387 109.189 41.434 110.007 41.434 111.459ZM38.6424 111.53C38.6322 112.502 39.0003 113.238 39.6343 113.238C40.3092 113.238 40.6159 112.512 40.6159 111.51C40.6159 110.59 40.3501 109.812 39.6343 109.812C38.9901 109.812 38.6424 110.569 38.6424 111.53Z" fill="white"/>
<path d="M40.6159 123.576H33.7035V124.946H40.6159V123.576Z" fill="white"/>
<path d="M54.8704 122.308H47.9579V123.678H54.8704V122.308Z" fill="white"/>
<path d="M54.8704 124.834H47.9579V126.204H54.8704V124.834Z" fill="white"/>
<path d="M54.8704 109.281H52.0993V106.51H50.729V109.281H47.9579V110.651H50.729V113.422H52.0993V110.651H54.8704V109.281Z" fill="white"/>
<path d="M39.757 56.8234C39.757 56.8234 39.7877 56.8234 39.7979 56.8234C40.166 56.6598 40.391 56.4451 40.4728 56.169C40.6262 55.6679 40.258 55.1055 39.9411 54.6147C39.7059 54.2568 39.4707 53.8785 39.5627 53.6944C39.7161 53.3876 39.7161 52.9582 39.5627 52.5185C39.3377 51.9152 38.8674 51.4141 38.2538 51.1482C37.2006 50.6983 36.8223 49.7473 37.0472 49.0827C37.2824 48.418 37.354 46.9762 35.9429 46.2707C34.6135 45.606 33.8262 44.4914 33.6012 42.9371C33.6012 42.886 33.5501 42.8451 33.4887 42.8451L26.1774 43.2337C26.1774 43.2337 26.1161 43.2541 26.0956 43.2746C26.0752 43.295 26.0752 43.3359 26.0752 43.3564C26.3513 44.4914 26.0752 45.4322 25.2878 45.9434C24.4698 46.4752 23.9687 47.8352 24.5005 48.8373C24.9504 49.686 24.5005 50.3302 23.4063 51.3732C22.6905 52.0481 22.578 53.4388 22.8439 54.4102C23.0075 55.0033 23.2938 55.3714 23.6313 55.4532C23.6926 55.4634 23.7438 55.4328 23.754 55.3714C23.7642 55.3203 23.7335 55.2589 23.6722 55.2487C23.4165 55.1873 23.1711 54.8601 23.0382 54.3591C22.7826 53.4388 22.9053 52.1299 23.5393 51.5368C24.5311 50.6063 25.2367 49.8087 24.6743 48.7555C24.1937 47.8556 24.6743 46.6081 25.3901 46.1275C26.2183 45.5855 26.5456 44.6039 26.2899 43.4382L33.3762 43.0598C33.6319 44.6346 34.4499 45.7696 35.8099 46.4547C37.0881 47.0989 37.0268 48.4078 36.812 49.0111C36.5462 49.7473 36.9245 50.821 38.1311 51.3323C38.6833 51.5675 39.123 52.0276 39.3173 52.5798C39.4502 52.9582 39.4605 53.3365 39.3377 53.5922C39.1946 53.8785 39.44 54.267 39.7263 54.717C40.0229 55.1771 40.3603 55.6986 40.2376 56.1076C40.1762 56.3224 39.9922 56.4962 39.6752 56.6292C39.6241 56.6496 39.6036 56.711 39.6241 56.7621C39.6445 56.803 39.6752 56.8234 39.7161 56.8234H39.757Z" fill="#2B1710"/>
<path d="M24.2755 51.5879C25.206 50.412 25.5332 50.0848 25.206 49.1542C24.8788 48.2237 24.7152 47.3648 25.7786 46.3524C26.8319 45.3401 26.4638 44.522 26.2695 43.7142L31.8731 41.1578C33.049 41.3623 33.7444 42.3747 33.7444 43.7142C33.7444 45.0538 33.9898 45.9843 35.1248 46.5978C36.2598 47.2114 36.628 48.4282 36.3008 49.3996C35.9735 50.3711 36.9961 51.3527 37.8039 51.7515C38.6117 52.1605 38.9798 53.1729 38.7344 53.9398C38.489 54.7067 39.665 54.7885 39.665 55.852C39.665 56.9154 37.7119 56.7007 37.7119 56.7007C36.3723 57.1915 23.7847 55.7293 23.4983 54.7885C23.212 53.858 23.3347 52.7536 24.2653 51.5777L24.2755 51.5879Z" fill="#2B1710"/>
<path d="M8.74286 101.908C8.45654 101.325 8.14978 100.231 8.22136 98.6358C8.30316 98.0427 8.40542 97.2962 8.5179 96.4373C8.57925 96.0078 8.63038 95.5579 8.69173 95.0875L5.84903 95.8442C5.90015 96.3555 5.94106 96.8361 5.98196 97.2758C6.07399 98.2063 6.04331 99.1471 5.8797 100.078C5.82857 100.354 5.76722 100.589 5.70587 100.722C5.48091 101.182 3.84481 102.757 3.10857 104.127C3.037 104.291 1.34978 104.556 1.60542 104.945C1.7588 105.027 4.69354 105.262 5.02075 104.945C5.34797 104.628 6.13534 103.841 7.00451 103.667C7.05564 103.667 7.05564 105.098 7.05564 105.098H8.32361C8.32361 105.098 8.46677 103.851 8.52812 103.462C8.58948 103.084 9.01895 102.501 8.72241 101.918L8.74286 101.908Z" fill="#FF8762"/>
<path d="M3.09834 104.137C3.63007 104.199 4.21293 104.311 4.41744 104.229C4.69353 104.106 6.50345 101.857 8.49744 101.305C8.56902 101.55 8.65082 101.755 8.73263 101.918C9.02917 102.501 8.58947 103.084 8.53834 103.462C8.47699 103.841 8.33383 105.098 8.33383 105.098H7.06586C7.06586 105.098 7.06586 103.677 7.01473 103.667C6.13533 103.841 5.35819 104.628 5.03097 104.945C4.70376 105.262 1.76902 105.027 1.61564 104.945C1.37022 104.567 2.95518 104.321 3.10857 104.137H3.09834Z" fill="#2B1710"/>
<path d="M29.2758 63.6848L26.8421 64.1756C26.8421 64.1756 22.2099 67.1001 17.4653 68.7464C16.2484 69.1657 9.07008 72.9491 6.51369 77.5916C3.96752 82.2442 2.70978 99.4845 2.70978 99.4845H9.66316C9.66316 99.4845 12.7104 83.2872 13.7125 80.8842C14.7146 78.4812 25.3083 77.9801 27.0057 73.8899L30.3188 70.9858L29.2656 63.6746L29.2758 63.6848Z" fill="#1A2B70"/>
<g style="mix-blend-mode:multiply">
<path d="M3.11879 98.0426C3.06767 98.0426 3.02676 98.0017 3.02676 97.9506C3.02676 97.8995 3.06767 97.8586 3.11879 97.8586L9.57112 97.8381C9.62225 97.8381 9.66315 97.879 9.66315 97.9302C9.66315 97.9813 9.62225 98.0222 9.57112 98.0222L3.11879 98.0426Z" fill="#D4D4D4"/>
</g>
<path d="M26.3615 50.2382C23.345 51.5879 20.0932 57.5903 18.5492 59.5434C17.0051 61.4965 13.917 62.5497 13.917 62.5497C13.917 62.5497 18.5492 64.5846 19.6024 64.6562C24.797 62.6213 26.9137 57.5903 26.9137 57.5903L26.3615 50.2382Z" fill="#3D6AD9"/>
<path d="M17.455 101.908C17.1687 101.325 16.8619 100.231 16.9335 98.6358C17.0153 98.0427 17.1176 97.2962 17.2301 96.4373C17.2914 96.0078 17.3426 95.5579 17.4039 95.0875L14.5612 95.8442C14.6123 96.3555 14.6532 96.8361 14.6941 97.2758C14.7862 98.2063 14.7555 99.1471 14.5919 100.078C14.5407 100.354 14.4794 100.589 14.418 100.722C14.1931 101.182 12.557 102.757 11.8207 104.127C11.7492 104.291 10.062 104.556 10.3176 104.945C10.471 105.027 13.4057 105.262 13.7329 104.945C14.0601 104.628 14.8475 103.841 15.7167 103.667C15.7678 103.667 15.7678 105.098 15.7678 105.098H17.0358C17.0358 105.098 17.1789 103.851 17.2403 103.462C17.3017 103.084 17.7311 102.501 17.4346 101.918L17.455 101.908Z" fill="#FF8762"/>
<path d="M11.8208 104.137C12.3525 104.199 12.9353 104.311 13.1399 104.229C13.4159 104.106 15.2259 101.857 17.2199 101.305C17.2914 101.55 17.3732 101.755 17.455 101.918C17.7516 102.501 17.3119 103.084 17.2608 103.462C17.1994 103.841 17.0562 105.098 17.0562 105.098H15.7883C15.7883 105.098 15.7883 103.677 15.7371 103.667C14.8577 103.841 14.0806 104.628 13.7534 104.945C13.4262 105.262 10.4914 105.027 10.338 104.945C10.0926 104.567 11.6776 104.321 11.831 104.137H11.8208Z" fill="#2B1710"/>
<path d="M28.1407 49.9723L26.3615 50.2382C26.1365 52.6718 23.9278 55.2998 23.8153 56.6496C23.7029 57.9994 25.4616 60.024 26.1774 61.3022C26.8932 62.5804 26.8932 63.7052 26.8932 63.7052H34.3579C34.3579 63.3678 36.1576 55.0033 35.9326 52.9479C35.7077 50.8824 33.0592 50.1154 33.0592 50.1154C33.0592 50.1154 30.3801 50.3302 28.151 49.9825L28.1407 49.9723Z" fill="#618AF2"/>
<path d="M34.1329 64.1961C34.1329 64.1961 37.4358 69.7997 35.7281 73.8899C34.0307 77.9904 23.4268 78.4914 22.4349 80.8842C21.443 83.277 18.3856 99.4845 18.3856 99.4845H11.4322C11.4322 99.4845 12.6797 82.234 15.2361 77.5916C17.7823 72.939 25.1344 69.4929 26.1877 68.7465C27.2409 68 28.2839 63.9507 28.2839 63.9507L34.1329 64.1961Z" fill="#203489"/>
<path d="M34.4908 63.5315H26.6683V64.2473H34.4908V63.5315Z" fill="#2B1710"/>
<path d="M30.9937 63.286H30.6153V64.4108H30.9937V63.286Z" fill="#203489"/>
<path d="M33.6523 63.286H33.274V64.4108H33.6523V63.286Z" fill="#203489"/>
<g style="mix-blend-mode:multiply">
<path d="M33.4785 69.4418C33.4785 69.4418 33.4683 69.4418 33.458 69.4418C31.7402 69.0225 30.8812 67.1615 31.2902 64.6869C31.2902 64.6358 31.3516 64.5949 31.4027 64.6051C31.4538 64.6051 31.4947 64.6664 31.4845 64.7176C31.0959 67.0797 31.8935 68.8692 33.5092 69.2577C33.5603 69.268 33.591 69.3191 33.5808 69.3702C33.5705 69.4111 33.5296 69.4418 33.4887 69.4418H33.4785Z" fill="#D4D4D4"/>
</g>
<g style="mix-blend-mode:multiply">
<path d="M16.4325 97.6848C16.4325 97.6848 16.4223 97.6848 16.412 97.6848C16.3609 97.6848 16.3302 97.6235 16.3405 97.5723C16.4632 96.9486 19.2547 82.1829 20.6966 79.2993C21.6373 77.4178 25.4208 76.4463 28.4578 75.6692C30.2063 75.2193 31.7197 74.8307 32.3741 74.3705C34.2556 73.0514 34.0205 68.542 33.182 64.7687C33.1717 64.7176 33.2024 64.6665 33.2535 64.6563C33.3047 64.646 33.3558 64.6767 33.366 64.7278C34.2147 68.5624 34.4295 73.1537 32.4764 74.5239C31.7913 75.0045 30.2575 75.4033 28.4987 75.8532C25.5026 76.6202 21.7702 77.5814 20.8602 79.3913C19.4286 82.2442 16.545 97.4599 16.5143 97.6132C16.5143 97.6542 16.4632 97.6951 16.4223 97.6951L16.4325 97.6848Z" fill="#D4D4D4"/>
</g>
<g style="mix-blend-mode:multiply">
<path d="M11.831 98.0426C11.7799 98.0426 11.739 98.0017 11.739 97.9506C11.739 97.8995 11.7799 97.8586 11.831 97.8586L18.2833 97.8381C18.3344 97.8381 18.3753 97.879 18.3753 97.9302C18.3753 97.9813 18.3344 98.0222 18.2833 98.0222L11.831 98.0426Z" fill="#D4D4D4"/>
</g>
<path d="M39.215 58.9504C39.215 58.9504 40.2785 62.4782 40.2171 65.5868C40.1558 68.6954 38.7242 72.9697 38.7242 73.4196C38.6629 74.7182 37.5892 75.3931 36.812 75.3011C36.0349 75.2091 35.5338 75.1068 35.452 75.2806C35.36 75.5567 34.8385 75.976 34.5931 75.9146C34.3068 76.0885 34.1125 75.9964 34.1125 75.9964C33.8977 76.1396 33.7035 75.9351 33.7035 75.9351C33.7035 75.9351 33.7035 75.2704 33.7648 75.1375C33.8262 75.0046 33.9796 74.5853 33.9796 74.5853C33.9796 74.5853 33.6421 74.8921 33.6217 75.0557C33.6012 75.2193 33.6523 75.7306 33.4274 75.7817C33.2638 75.3011 33.3149 74.8716 33.3353 74.6467C33.3558 74.4217 33.8671 73.6139 34.3068 73.5321C34.7465 73.4503 36.5053 73.4809 36.6382 73.3173C36.7711 73.1537 36.2292 65.3209 36.086 64.5949C35.9429 63.8689 34.4806 59.6867 34.4806 59.6867L39.2048 58.9402L39.215 58.9504Z" fill="#FF8762"/>
<g style="mix-blend-mode:multiply">
<path d="M34.0818 74.4216C34.0818 74.4216 34.1023 74.4216 34.1125 74.4114L34.3681 74.1353C34.3681 74.1353 34.3886 74.0842 34.3681 74.0739C34.3477 74.0535 34.317 74.0535 34.3068 74.0739L34.0511 74.35C34.0511 74.35 34.0307 74.4011 34.0511 74.4114C34.0511 74.4114 34.0716 74.4216 34.0818 74.4216Z" fill="#E0B3A8"/>
</g>
<g style="mix-blend-mode:multiply">
<path d="M34.1636 75.7714C34.1636 75.7714 34.2556 75.1681 34.2761 75.0965C34.2863 75.0556 34.4704 74.7795 34.6442 74.5341C34.6544 74.5136 34.6442 74.483 34.634 74.4727C34.6135 74.4625 34.5829 74.4727 34.5726 74.483C34.4602 74.6363 34.2045 75.0147 34.1841 75.0863C34.1738 75.1579 34.0716 75.7714 34.0716 75.7714H34.1636Z" fill="#E0B3A8"/>
</g>
<g style="mix-blend-mode:multiply">
<path d="M34.6033 75.7305C34.6033 75.7305 34.6442 75.7203 34.6442 75.6998C34.6442 75.6998 34.7669 75.3317 34.7874 75.2806C34.8078 75.2397 34.9919 75.0045 35.1657 74.8C35.1862 74.7795 35.1759 74.7488 35.1657 74.7386C35.1453 74.7182 35.1146 74.7284 35.1044 74.7386C35.0226 74.8409 34.7362 75.1885 34.7056 75.2499C34.6851 75.3112 34.5624 75.6589 34.5624 75.6794C34.5624 75.6998 34.5624 75.7305 34.5931 75.7407C34.5931 75.7407 34.5931 75.7407 34.6033 75.7407V75.7305Z" fill="#E0B3A8"/>
</g>
<path d="M34.8794 51.1278C32.4764 52.8559 32.7832 56.5269 33.9795 59.4514C35.1759 62.3759 36.1576 65.372 36.1576 71.0779C38.4788 71.5278 39.3786 71.2313 39.3786 71.2313C39.3786 71.2313 41.1783 66.0571 40.1251 60.9546C39.0719 55.852 36.8223 51.1278 34.8794 51.1278Z" fill="#3D6AD9"/>
<path d="M9.93925 61.5476H23.3245L25.6457 71.4255H12.2605L9.93925 61.5476Z" fill="#DBE5FF"/>
<path d="M9.3564 61.5476H22.7417L25.0629 71.4255H11.6776L9.3564 61.5476Z" fill="#ACBFF0"/>
<path d="M16.5961 67.2331H18.4265V66.3434C18.4265 66.0162 18.1606 65.7504 17.8334 65.7504H16.003V66.64C16.003 66.9672 16.2689 67.2331 16.5961 67.2331Z" fill="#DBE5FF"/>
<path d="M30.2677 71.4255H11.739V72.3049H30.2677V71.4255Z" fill="#ACBFF0"/>
<path d="M9.56091 66.9876C8.57925 66.2821 8.19068 63.8382 9.80632 63.3167C9.86767 63.3985 9.94948 64.0222 9.94948 64.0222C9.94948 64.0222 12.3832 64.2472 12.4956 65.0039C12.874 65.4027 12.4547 65.8321 12.4547 65.8321C12.4956 66.2718 11.4322 66.5377 11.4322 66.5377C11.4322 66.5377 12.0764 66.415 12.0559 66.7218C12.0355 67.0388 10.2869 67.2842 9.56091 66.9672V66.9876Z" fill="#FF8762"/>
<g style="mix-blend-mode:multiply">
<path d="M11.7185 65.2289C11.1663 65.2289 10.3278 65.1778 9.76542 64.871C9.7552 64.871 9.74497 64.8506 9.7552 64.8301C9.7552 64.8199 9.77565 64.8097 9.7961 64.8199C10.6755 65.2903 12.2502 65.1471 12.2707 65.1471C12.2809 65.1471 12.3014 65.1471 12.3014 65.1676C12.3014 65.1778 12.3014 65.1983 12.2809 65.1983C12.2809 65.1983 12.0559 65.2187 11.7287 65.2187L11.7185 65.2289Z" fill="#E0B3A8"/>
</g>
<g style="mix-blend-mode:multiply">
<path d="M10.4403 66.1595C10.4301 66.1595 10.4096 66.1492 10.4096 66.1288C10.4096 66.1186 10.4096 66.0981 10.4403 66.0981C10.4403 66.0981 11.3811 66.0981 12.3525 65.822C12.3627 65.822 12.3832 65.822 12.3832 65.8425C12.3832 65.8527 12.3832 65.8731 12.3627 65.8731C11.4424 66.1492 10.5426 66.1595 10.4505 66.1595H10.4403Z" fill="#E0B3A8"/>
</g>
<g style="mix-blend-mode:multiply">
<path d="M10.8289 66.6502H10.7471C10.7368 66.6502 10.7164 66.64 10.7266 66.6195C10.7266 66.6093 10.7368 66.5991 10.7573 66.5991C10.7573 66.5991 11.0129 66.6195 11.3402 66.5377C11.3504 66.5377 11.3708 66.5377 11.3708 66.5582C11.3708 66.5786 11.3708 66.5889 11.3504 66.5889C11.1254 66.64 10.9311 66.6502 10.8289 66.6502Z" fill="#E0B3A8"/>
</g>
<path d="M30.8198 47.416C32.6195 47.733 33.6626 46.056 33.1411 44.7471C33.2842 42.0578 32.1389 39.3991 28.1101 40.8409C26.1059 41.0966 25.3287 43.745 26.9853 44.4301C29.1735 46.373 30.8301 47.416 30.8301 47.416H30.8198Z" fill="#2B1710"/>
<path d="M29.2144 48.4487C29.3371 49.2054 28.8463 49.9314 28.1203 49.9723C28.151 53.357 33.2638 50.6881 33.2433 50.1871C33.2433 50.1257 32.3332 49.9212 32.006 49.3383C31.6788 48.7555 31.5254 47.283 31.6481 45.3095C30.8812 45.514 30.6153 44.9004 30.5949 43.8574C30.5744 42.8042 30.0734 41.1272 28.0385 41.4033C27.2716 42.3441 26.8626 42.9371 26.9239 44.1642C26.9853 45.381 26.8523 46.2502 26.9955 46.8331C27.1386 47.4159 27.7726 48.4794 29.2042 48.4487H29.2144Z" fill="#FF8762"/>
<path d="M32.6605 45.7287C32.6605 46.0764 32.3844 46.3525 32.0367 46.3525C31.689 46.3525 31.4129 46.0764 31.4129 45.7287C31.4129 45.3811 31.689 45.105 32.0367 45.105C32.3844 45.105 32.6605 45.3811 32.6605 45.7287Z" fill="#FF8762"/>
<g style="mix-blend-mode:multiply">
<path d="M31.9038 46.056C31.9038 46.056 31.8731 46.056 31.8629 46.0355C31.8629 46.0151 31.8629 45.9946 31.8833 45.9844C31.9344 45.964 31.9651 45.923 31.9753 45.8821C31.9753 45.8412 31.9549 45.7901 31.914 45.7697C31.8731 45.739 31.8117 45.739 31.7708 45.7697C31.7606 45.7697 31.7401 45.7697 31.7299 45.7697C31.7197 45.7697 31.7095 45.7492 31.7095 45.7288C31.7095 45.5754 31.8117 45.4629 31.9753 45.4118C32.1389 45.3606 32.3026 45.4118 32.3946 45.5345C32.4048 45.5549 32.3946 45.5754 32.3946 45.5958C32.3741 45.6061 32.3537 45.5958 32.3332 45.5958C32.2514 45.4834 32.1083 45.4731 32.006 45.5038C31.9242 45.5243 31.8424 45.5856 31.8117 45.6879C31.8629 45.6879 31.9242 45.6879 31.9753 45.7185C32.0469 45.7594 32.0776 45.8412 32.0776 45.9128C32.0776 45.9537 32.0469 46.0253 31.9447 46.0764C31.9447 46.0764 31.9344 46.0764 31.9242 46.0764L31.9038 46.056Z" fill="#E0B3A8"/>
</g>
<g style="mix-blend-mode:multiply">
<path d="M29.3371 48.4488C29.3371 48.4488 29.3371 48.4488 29.3474 48.4488C30.3801 48.1522 31.2186 47.2831 31.4641 46.2298C31.4641 46.2094 31.4641 46.1889 31.4334 46.1787C31.4129 46.1787 31.3925 46.1787 31.3822 46.2094C31.1368 47.2319 30.329 48.0909 29.3269 48.3772C29.3065 48.3772 29.2962 48.4079 29.2962 48.4283C29.2962 48.4488 29.3167 48.459 29.3371 48.459V48.4488Z" fill="#E0B3A8"/>
</g>
<path d="M30.3495 43.9495C30.3495 43.9495 30.3802 43.9495 30.3802 43.9291C30.3904 43.9086 30.3802 43.8882 30.3699 43.8779C30.0223 43.3871 29.286 43.0088 28.969 43.6325C28.969 43.653 28.9384 43.6632 28.9384 43.6837C28.9384 43.7041 28.969 43.7143 28.9895 43.7143C29.2042 43.653 29.8075 43.653 30.329 43.9495C30.329 43.9495 30.3393 43.9495 30.3495 43.9495Z" fill="#2B1710"/>
<path d="M27.0875 43.9904C27.0875 43.9904 27.108 43.9904 27.1182 43.9699C27.1182 43.9699 27.2818 43.7552 27.8033 43.8165C27.8238 43.8165 27.8442 43.8063 27.8442 43.7859C27.8442 43.7654 27.8135 43.7654 27.8135 43.745C27.5272 43.1212 27.0773 43.8983 27.0568 43.929C27.0466 43.9495 27.0568 43.9699 27.0568 43.9801H27.0773L27.0875 43.9904Z" fill="#2B1710"/>
<path d="M28.018 46.1173C28.018 46.1173 28.0385 46.1173 28.0487 46.107C28.0589 46.0866 28.0589 46.0661 28.0487 46.0559C27.8442 45.8923 27.609 45.6878 27.5579 45.6162C27.5886 45.6162 27.6704 45.6162 27.7317 45.6162C27.8749 45.6162 28.0385 45.6162 28.1408 45.5549C28.3555 45.4322 28.1408 44.5323 27.9567 44.1028C27.9567 44.0824 27.926 44.0722 27.9056 44.0824C27.8851 44.0824 27.8749 44.1131 27.8851 44.1335C28.0998 44.6243 28.2328 45.4117 28.0998 45.4833C28.018 45.5242 27.8647 45.5344 27.7317 45.5344C27.5681 45.5344 27.4761 45.5344 27.4761 45.6162C27.4761 45.698 27.7624 45.9332 28.0078 46.1275H28.0283L28.018 46.1173Z" fill="#2B1710"/>
<path d="M29.4701 45.2072C29.6056 45.2072 29.7155 45.0149 29.7155 44.7777C29.7155 44.5406 29.6056 44.3483 29.4701 44.3483C29.3345 44.3483 29.2247 44.5406 29.2247 44.7777C29.2247 45.0149 29.3345 45.2072 29.4701 45.2072Z" fill="#2B1710"/>
<g style="mix-blend-mode:multiply">
<path d="M29.5314 45.3503C29.6132 45.3503 29.7973 45.3094 29.8586 45.0129C29.8586 45.0027 29.8586 44.9924 29.8382 44.9924C29.828 44.9924 29.8177 44.9924 29.8177 45.0129C29.7564 45.3094 29.5826 45.3299 29.511 45.3196C29.5008 45.3196 29.4905 45.3196 29.4905 45.3401C29.4905 45.3503 29.4905 45.3606 29.511 45.3606C29.511 45.3606 29.5212 45.3606 29.5314 45.3606V45.3503Z" fill="#E0B3A8"/>
</g>
<path d="M27.3943 44.8289C27.3943 45.0641 27.5068 45.2584 27.6397 45.2584C27.7726 45.2584 27.8851 45.0641 27.8851 44.8289C27.8851 44.5937 27.7726 44.3994 27.6397 44.3994C27.5068 44.3994 27.3943 44.5937 27.3943 44.8289Z" fill="#2B1710"/>
<g style="mix-blend-mode:multiply">
<path d="M27.6908 45.4117C27.7726 45.4117 27.9567 45.3708 28.0181 45.0743C28.0181 45.0641 28.0181 45.0538 27.9976 45.0538C27.9874 45.0538 27.9772 45.0538 27.9772 45.0743C27.9158 45.3708 27.742 45.3913 27.6704 45.3811C27.6602 45.3811 27.6499 45.3811 27.6499 45.4015C27.6499 45.4117 27.6499 45.422 27.6704 45.422C27.6704 45.422 27.6806 45.422 27.6908 45.422V45.4117Z" fill="#E0B3A8"/>
</g>
<path d="M29.7973 45.739C29.8893 45.8719 29.9609 45.9844 29.9404 45.9946C29.92 46.0048 29.828 45.9128 29.7359 45.7901C29.6439 45.6572 29.5723 45.5447 29.5928 45.5345C29.6132 45.5242 29.7053 45.6163 29.7973 45.739Z" fill="#FF7E57"/>
<path d="M29.5519 45.7696C29.6439 45.9025 29.7155 46.015 29.695 46.0253C29.6746 46.0355 29.5826 45.9435 29.4905 45.8207C29.3985 45.698 29.3269 45.5753 29.3474 45.5651C29.3678 45.5549 29.4599 45.6469 29.5519 45.7696Z" fill="#FF7E57"/>
<path d="M29.286 45.8003C29.378 45.9332 29.4496 46.0457 29.4292 46.0559C29.4087 46.0661 29.3167 45.9741 29.2247 45.8514C29.1326 45.7185 29.0611 45.606 29.0815 45.5957C29.102 45.5855 29.194 45.6776 29.286 45.8003Z" fill="#FF7E57"/>
<path d="M31.6072 46.5877C31.6072 46.7513 31.7401 46.8842 31.9038 46.8842C32.0674 46.8842 32.2003 46.7513 32.2003 46.5877C32.2003 46.4241 32.0674 46.2911 31.9038 46.2911C31.7401 46.2911 31.6072 46.4241 31.6072 46.5877Z" fill="white"/>
<g style="mix-blend-mode:multiply">
<path d="M29.1429 46.5774C28.4373 46.3627 27.6704 46.4138 27.5988 46.6388C27.9874 46.8535 28.8361 46.7001 29.1429 46.5774Z" fill="#E0B3A8"/>
</g>
<g style="mix-blend-mode:multiply">
<path d="M28.3453 47.508C28.4884 47.508 28.6316 47.4875 28.7441 47.4057C28.7645 47.3955 28.7645 47.375 28.7543 47.3546C28.7441 47.3341 28.7236 47.3341 28.7032 47.3444C28.4475 47.5182 27.9771 47.3955 27.926 47.3546C27.9056 47.3444 27.8851 47.3546 27.8749 47.3546C27.8647 47.375 27.8749 47.3955 27.8749 47.4057C27.9158 47.4364 28.1203 47.4977 28.335 47.4977L28.3453 47.508Z" fill="#E0B3A8"/>
</g>
<g style="mix-blend-mode:multiply">
<path d="M27.6192 46.7103C27.926 47.5079 28.4782 47.4159 29.1326 46.6183C28.4986 46.7614 28.0385 46.8432 27.6192 46.7103Z" fill="#E0B3A8"/>
</g>
<path d="M28.1714 46.7922C28.5293 46.7922 28.9486 46.741 29.194 46.6183C29.2144 46.6183 29.2144 46.5877 29.2144 46.5672C29.2144 46.5468 29.1838 46.5468 29.1633 46.5468C28.7338 46.7615 27.7829 46.741 27.5886 46.6388C27.5681 46.6388 27.5477 46.6388 27.5374 46.649C27.5374 46.6695 27.5374 46.6899 27.5477 46.7001C27.6397 46.7513 27.8749 46.7819 28.1612 46.7819L28.1714 46.7922Z" fill="#2B1710"/>
<path d="M28.0385 41.4033C28.4271 43.3564 31.6379 43.6427 31.6379 43.6427L31.1062 41.209L28.7543 41.0045L28.0385 41.4033Z" fill="#2B1710"/>
<path d="M23.028 50.9336C23.028 50.9336 23.0484 50.9336 23.0689 50.9336C23.1098 50.9233 23.9483 50.5961 24.1528 49.9826C24.2448 49.7167 24.1937 49.4406 24.0096 49.1543C23.3552 48.1522 23.7744 46.4445 24.8583 45.6981C26.0241 44.9005 26.3308 44.0211 26.5251 42.5793C26.5251 42.5179 26.4944 42.4668 26.4331 42.4668C26.382 42.4668 26.3206 42.4975 26.3206 42.5588C26.1365 43.9393 25.84 44.7778 24.7356 45.5345C23.5495 46.3423 23.12 48.1624 23.8358 49.2668C23.9789 49.4918 24.0199 49.7065 23.9585 49.911C23.7847 50.4325 23.0075 50.7291 22.9973 50.7291C22.9462 50.7495 22.9155 50.8109 22.9359 50.862C22.9564 50.9029 22.9871 50.9336 23.028 50.9336Z" fill="#2B1710"/>
<path d="M136.951 43.7756C130.928 43.7756 125.948 48.2237 125.1 54.0114L137.002 55.7702L130.918 66.0878C132.687 67.1206 134.752 67.7137 136.951 67.7137C143.567 67.7137 148.925 62.3555 148.925 55.7395C148.925 49.1236 143.567 43.7654 136.951 43.7654V43.7756Z" fill="#ACBFF0"/>
<path d="M136.225 55.7804L130.141 66.098C131.91 67.1308 133.975 67.7239 136.174 67.7239C142.054 67.7239 146.941 63.4802 147.954 57.8971L136.235 55.7804H136.225Z" fill="#B971FF"/>
<path d="M117.318 52.9787L136.225 55.7805L126.398 39.3889C121.592 42.2623 118.156 47.2012 117.318 52.9787Z" fill="#0086D1"/>
<path d="M155.224 55.7498C155.224 51.4653 153.803 47.508 151.42 44.3176L136.235 55.7703L143.986 73.123C150.612 70.1372 155.224 63.4803 155.224 55.7498Z" fill="#6900BC"/>
<path d="M131.163 58.0506L112.256 55.2488C112.123 56.1486 112.052 57.0792 112.052 58.0199C112.052 65.0142 115.825 71.1189 121.439 74.4422L131.163 58.0506Z" fill="#ACBFF0"/>
<path d="M136.174 75.1374C132.687 75.1374 129.272 74.1967 126.286 72.4276C126.122 72.3356 126.071 72.1311 126.173 71.9675C126.265 71.8039 126.47 71.7527 126.633 71.855C129.507 73.5627 132.81 74.4625 136.174 74.4625C146.491 74.4625 154.887 66.0673 154.887 55.7497C154.887 45.4321 146.491 37.0369 136.174 37.0369C127.001 37.0369 119.046 43.8574 117.666 52.9172C117.635 53.1013 117.461 53.224 117.287 53.1933C117.103 53.1627 116.98 52.9991 117.011 52.815C117.696 48.2851 119.997 44.1233 123.484 41.0965C127.001 38.0493 131.511 36.3621 136.174 36.3621C146.86 36.3621 155.561 45.064 155.561 55.7497C155.561 66.4354 146.86 75.1374 136.174 75.1374Z" fill="#4879E0"/>
<path d="M162.505 45.2277H158.425V49.3077H162.505V45.2277Z" fill="#6900BC"/>
<path d="M182.393 45.2277H165.347V49.3077H182.393V45.2277Z" fill="#ACBFF0"/>
<path d="M162.505 56.6189H158.425V60.6989H162.505V56.6189Z" fill="#0086D1"/>
<path d="M182.373 56.6189H165.347V60.6989H182.373V56.6189Z" fill="#ACBFF0"/>
<path d="M176.667 77.3768H167.423V105.651H176.667V77.3768Z" fill="#0086D1"/>
<path d="M159.12 86.3242H149.876V105.651H159.12V86.3242Z" fill="#0086D1"/>
<path d="M140.295 95.2716H131.051V105.651H140.295V95.2716Z" fill="#0086D1"/>
<path d="M174.1 66.0674L166.421 69.2884L169.11 70.0042L162.668 76.4463H151.931C151.635 76.4463 151.379 76.6202 151.257 76.886L147.494 85.1585H145.561C145.244 85.1585 144.968 85.3528 144.866 85.6493L143.874 88.3489H131.174C130.928 88.3489 130.703 88.4716 130.56 88.6659L128.229 92.0096C127.993 92.3471 128.075 92.8072 128.413 93.0424C128.546 93.1344 128.689 93.1754 128.842 93.1754C129.077 93.1754 129.312 93.0629 129.456 92.8584L131.562 89.8316H144.395C144.712 89.8316 144.988 89.6373 145.091 89.3408L146.082 86.6412H147.974C148.271 86.6412 148.526 86.4674 148.649 86.2015L152.412 77.929H162.975C163.169 77.929 163.364 77.8472 163.507 77.7143L170.164 71.0575L170.879 73.7468L174.1 66.0674Z" fill="#6900BC"/>
<path d="M187.956 29.061H43.1519V34.0307H187.956V29.061Z" fill="#0086D1"/>
<path d="M178.671 31.8629H175.9V32.4764H178.671V31.8629Z" fill="white"/>
<path d="M182.511 32.3456L180.552 30.3861L180.118 30.8199L182.078 32.7794L182.511 32.3456Z" fill="white"/>
<path d="M180.551 32.7784L182.51 30.819L182.076 30.3851L180.117 32.3446L180.551 32.7784Z" fill="white"/>
<path d="M183.661 30.2472V32.7729H186.187V30.2472H183.661ZM185.696 32.2821H184.152V30.738H185.696V32.2821Z" fill="white"/>
<path d="M52.0686 32.3843C52.5034 32.3843 52.8559 32.0318 52.8559 31.5969C52.8559 31.1621 52.5034 30.8096 52.0686 30.8096C51.6337 30.8096 51.2812 31.1621 51.2812 31.5969C51.2812 32.0318 51.6337 32.3843 52.0686 32.3843Z" fill="white"/>
<path d="M48.7862 32.3843C49.221 32.3843 49.5735 32.0318 49.5735 31.5969C49.5735 31.1621 49.221 30.8096 48.7862 30.8096C48.3513 30.8096 47.9988 31.1621 47.9988 31.5969C47.9988 32.0318 48.3513 32.3843 48.7862 32.3843Z" fill="white"/>
<path d="M45.5038 32.3843C45.9386 32.3843 46.2911 32.0318 46.2911 31.5969C46.2911 31.1621 45.9386 30.8096 45.5038 30.8096C45.0689 30.8096 44.7164 31.1621 44.7164 31.5969C44.7164 32.0318 45.0689 32.3843 45.5038 32.3843Z" fill="white"/>
</g>
<defs>
<clipPath id="clip0_21_2">
<rect width="213.673" height="136" fill="white"/>
</clipPath>
</defs>
</svg>
