<svg width="206" height="202" viewBox="0 0 206 202" fill="none" xmlns="http://www.w3.org/2000/svg">
<path d="M180.741 172.835C176.611 177.125 172.711 179.885 169.631 182.075C133.381 207.755 90.4809 200.275 81.3709 198.445C67.9109 195.745 41.8909 190.525 23.0709 168.685C-5.38913 135.635 -0.959131 83.565 21.1209 49.195C25.1609 42.905 46.4909 8.015 89.8509 2.415C116.091 -0.975004 146.681 5.855 168.831 24.185C215.331 62.645 212.021 140.345 180.751 172.845L180.741 172.835Z" fill="url(#paint0_linear_13_428)"/>
<path d="M194.471 21.135C194.151 20.065 192.611 20.135 192.391 21.235C190.301 31.805 183.961 59.365 172.071 74.655C152.701 99.555 141.571 138.395 156.691 156.865C156.691 156.865 229.321 137.495 194.481 21.135H194.471Z" fill="#3DB2F9"/>
<path opacity="0.43" d="M193.591 36.055C193.591 36.395 193.561 36.675 193.551 36.975L193.491 37.865L193.341 39.645C193.231 40.835 193.111 42.015 192.981 43.205C192.721 45.575 192.431 47.945 192.121 50.305C191.491 55.035 190.731 59.735 189.901 64.435C189.081 69.135 188.121 73.805 187.071 78.455C186.011 83.105 184.891 87.745 183.611 92.335C181.081 101.535 178.041 110.605 174.371 119.425C172.491 123.815 170.501 128.155 168.251 132.375C165.981 136.575 163.531 140.675 160.791 144.585C160.731 144.665 160.611 144.695 160.531 144.635C160.451 144.575 160.431 144.465 160.481 144.375C163.061 140.375 165.411 136.245 167.561 132.015C169.721 127.785 171.641 123.435 173.431 119.035C175.231 114.635 176.841 110.165 178.361 105.665C179.871 101.165 181.201 96.595 182.501 92.025C185.071 82.875 187.141 73.585 188.961 64.245C189.861 59.575 190.661 54.885 191.391 50.185C191.751 47.835 192.101 45.485 192.411 43.125L192.851 39.585L193.051 37.815L193.141 36.925C193.171 36.635 193.201 36.325 193.211 36.065V36.025C193.211 35.925 193.301 35.845 193.411 35.845C193.511 35.845 193.591 35.935 193.591 36.035V36.055Z" fill="white"/>
<path d="M156.771 0.464951C156.191 -0.425049 154.791 0.0549507 154.891 1.12495C155.861 11.395 157.561 38.3949 150.831 55.6649C139.861 83.7849 140.251 122.435 159.151 135.255C159.151 135.255 220.471 97.6849 156.771 0.474951V0.464951Z" fill="#B971FF"/>
<path opacity="0.43" d="M160.041 14.385C160.131 14.695 160.191 14.965 160.251 15.245L160.431 16.085L160.781 17.765C161.011 18.885 161.211 20.005 161.421 21.125C161.831 23.365 162.211 25.615 162.571 27.865C163.281 32.375 163.871 36.895 164.391 41.425C164.921 45.955 165.311 50.505 165.621 55.055C165.921 59.605 166.151 64.165 166.241 68.735C166.431 77.865 166.111 87.005 165.161 96.095C164.631 100.635 163.991 105.155 163.081 109.635C162.141 114.105 161.011 118.535 159.561 122.875C159.531 122.975 159.421 123.025 159.331 122.995C159.241 122.965 159.181 122.865 159.211 122.775C160.481 118.405 161.521 113.975 162.331 109.505C163.161 105.035 163.731 100.525 164.171 96.005C164.621 91.485 164.881 86.945 165.041 82.405C165.201 77.865 165.171 73.315 165.121 68.765C164.981 59.675 164.351 50.585 163.471 41.535C163.021 37.005 162.481 32.485 161.861 27.975C161.551 25.725 161.231 23.465 160.871 21.215L160.311 17.845L160.011 16.165L159.851 15.325C159.791 15.055 159.741 14.755 159.681 14.515V14.475C159.651 14.375 159.711 14.275 159.801 14.255C159.891 14.235 159.991 14.285 160.021 14.375L160.041 14.385Z" fill="white"/>
<path d="M57.2809 35.125C57.6509 35.065 58.0109 35.295 58.1109 35.665C58.3309 36.475 58.5209 37.305 58.6709 38.125C58.7409 38.525 58.4809 38.915 58.0709 38.985C58.0709 38.985 58.0709 38.985 58.0609 38.985C57.6609 39.045 57.2909 38.785 57.2109 38.385C57.0709 37.595 56.8909 36.815 56.6809 36.045C56.5709 35.655 56.8109 35.245 57.2009 35.135C57.2309 35.135 57.2509 35.125 57.2809 35.115V35.125ZM58.2609 41.505C58.2609 41.505 58.3209 41.505 58.3509 41.505C58.7609 41.485 59.1009 41.805 59.1209 42.215C59.1609 43.055 59.1609 43.905 59.1209 44.735C59.1009 45.145 58.7609 45.455 58.3509 45.445C57.9409 45.425 57.6209 45.085 57.6409 44.675C57.6709 43.885 57.6709 43.075 57.6409 42.275C57.6209 41.895 57.9009 41.575 58.2609 41.515V41.505ZM57.8109 47.945C57.8909 47.935 57.9809 47.935 58.0609 47.945C58.4609 48.015 58.7309 48.405 58.6509 48.805C58.5009 49.625 58.3109 50.455 58.0909 51.265C57.9809 51.655 57.5709 51.895 57.1809 51.785C56.7909 51.675 56.5509 51.265 56.6609 50.875C56.8709 50.105 57.0509 49.325 57.2009 48.535C57.2609 48.215 57.5109 47.985 57.8109 47.935V47.945ZM55.9309 54.115C56.0609 54.095 56.2109 54.115 56.3409 54.165C56.7209 54.325 56.8909 54.765 56.7309 55.135C56.4009 55.905 56.0309 56.675 55.6309 57.405C55.4409 57.765 54.9909 57.905 54.6309 57.705C54.2709 57.515 54.1309 57.065 54.3309 56.705C54.7109 56.005 55.0609 55.275 55.3709 54.545C55.4709 54.305 55.6909 54.145 55.9309 54.105V54.115ZM52.7209 59.715C52.9109 59.685 53.1109 59.725 53.2809 59.845C53.6109 60.085 53.6809 60.545 53.4409 60.885C52.9509 61.565 52.4209 62.225 51.8609 62.855C51.5909 63.165 51.1209 63.195 50.8209 62.925C50.5109 62.655 50.4809 62.185 50.7509 61.875C51.2709 61.275 51.7809 60.645 52.2509 59.995C52.3709 59.835 52.5409 59.735 52.7309 59.705L52.7209 59.715ZM48.3609 64.465C48.6009 64.425 48.8609 64.505 49.0409 64.705C49.3109 65.015 49.2809 65.485 48.9709 65.755C48.3409 66.305 47.6709 66.835 47.0009 67.335C46.6709 67.575 46.2109 67.505 45.9609 67.175C45.7209 66.845 45.7909 66.385 46.1209 66.135C46.7609 65.665 47.3909 65.165 47.9909 64.635C48.1009 64.545 48.2309 64.485 48.3609 64.465ZM21.8509 70.535C21.9509 70.515 22.0609 70.525 22.1609 70.555C22.9309 70.765 23.7109 70.945 24.5009 71.085C24.9009 71.155 25.1709 71.545 25.1009 71.945C25.0309 72.345 24.6409 72.615 24.2409 72.545C23.4109 72.395 22.5809 72.205 21.7809 71.985C21.3909 71.875 21.1509 71.465 21.2609 71.075C21.3409 70.785 21.5809 70.585 21.8609 70.535H21.8509ZM43.0609 68.135C43.3609 68.085 43.6809 68.235 43.8309 68.515C44.0209 68.875 43.8909 69.325 43.5309 69.515C42.7909 69.915 42.0309 70.285 41.2609 70.615C40.8809 70.775 40.4509 70.605 40.2909 70.225C40.1309 69.845 40.3009 69.415 40.6809 69.255C41.4109 68.945 42.1409 68.595 42.8409 68.215C42.9109 68.175 42.9909 68.145 43.0709 68.135H43.0609ZM28.2309 71.525C28.2309 71.525 28.3309 71.515 28.3809 71.525C29.1809 71.555 29.9809 71.555 30.7809 71.525C31.1909 71.505 31.5309 71.825 31.5509 72.235C31.5709 72.645 31.2509 72.995 30.8409 73.005C30.0009 73.045 29.1509 73.045 28.3109 73.005C27.9009 72.985 27.5809 72.645 27.6009 72.235C27.6109 71.875 27.8809 71.585 28.2209 71.535L28.2309 71.525ZM37.0709 70.525C37.4409 70.465 37.8009 70.695 37.9009 71.065C38.0109 71.455 37.7809 71.865 37.3809 71.975C36.5709 72.195 35.7409 72.385 34.9209 72.535C34.9209 72.535 34.9109 72.535 34.9009 72.535C34.5009 72.595 34.1309 72.335 34.0509 71.935C33.9809 71.535 34.2409 71.145 34.6509 71.075C35.4309 70.935 36.2209 70.755 36.9909 70.545C37.0209 70.545 37.0409 70.535 37.0709 70.525Z" fill="#5ACDFF"/>
<path d="M16.9809 68.7149C17.1209 68.6949 17.2809 68.7149 17.4209 68.7749C17.7609 68.9449 18.1209 69.1049 18.4709 69.2549C18.8509 69.4149 19.0209 69.8549 18.8609 70.2249C18.7009 70.6049 18.2609 70.7749 17.8909 70.6149C17.5209 70.4549 17.1509 70.2849 16.7809 70.1149C16.4109 69.9349 16.2609 69.4949 16.4309 69.1249C16.5409 68.8949 16.7509 68.7549 16.9809 68.7149Z" fill="#5ACDFF"/>
<path d="M2.05088 51.7649C2.40088 51.7049 2.75088 51.9149 2.87088 52.2649C2.99088 52.6249 3.12088 52.9949 3.25088 53.3549C3.39088 53.7349 3.20088 54.1649 2.82088 54.3049C2.44088 54.4449 2.01088 54.2549 1.87088 53.8749C1.73088 53.4949 1.59088 53.1149 1.47088 52.7249C1.34088 52.3349 1.55088 51.9149 1.94088 51.7849C1.98088 51.7749 2.02088 51.7649 2.06088 51.7549L2.05088 51.7649Z" fill="#5ACDFF"/>
<path d="M24.8109 14.225C25.1509 14.175 25.4909 14.125 25.8309 14.075C26.2409 14.025 26.6109 14.315 26.6609 14.715C26.7109 15.115 26.4209 15.495 26.0209 15.545C25.2309 15.645 24.4509 15.775 23.6909 15.935C23.2909 16.015 22.9009 15.765 22.8109 15.365C22.7309 14.965 22.9809 14.575 23.3809 14.485C23.8509 14.385 24.3309 14.295 24.8109 14.215V14.225ZM29.7309 13.855C29.7309 13.855 29.8109 13.855 29.8609 13.855C30.6909 13.855 31.5209 13.905 32.3409 13.985C32.7509 14.025 33.0509 14.385 33.0109 14.795C32.9709 15.205 32.6109 15.505 32.2009 15.465C31.4209 15.395 30.6309 15.355 29.8409 15.345C29.4309 15.345 29.1009 15.005 29.1109 14.595C29.1109 14.225 29.3809 13.925 29.7309 13.875V13.855ZM19.6309 15.565C19.9709 15.505 20.3209 15.705 20.4409 16.045C20.5809 16.425 20.3809 16.855 19.9909 16.995C19.2509 17.265 18.5209 17.565 17.8109 17.885C17.4409 18.055 17.0009 17.885 16.8309 17.525C16.6609 17.155 16.8309 16.715 17.1909 16.545C17.9409 16.195 18.7109 15.885 19.4909 15.605C19.5309 15.585 19.5809 15.575 19.6209 15.575L19.6309 15.565ZM36.0409 14.615C36.1309 14.605 36.2309 14.605 36.3309 14.625C37.1309 14.815 37.9409 15.035 38.7209 15.295C39.1109 15.425 39.3209 15.835 39.1909 16.225C39.0609 16.615 38.6509 16.825 38.2609 16.695C37.5209 16.455 36.7509 16.235 35.9909 16.055C35.5909 15.965 35.3409 15.565 35.4409 15.165C35.5109 14.865 35.7609 14.645 36.0409 14.605V14.615ZM13.9409 18.375C14.2209 18.325 14.5209 18.455 14.6809 18.705C14.9009 19.045 14.8009 19.505 14.4509 19.725C13.7909 20.145 13.1409 20.605 12.5209 21.075C12.1909 21.325 11.7309 21.265 11.4809 20.935C11.2309 20.605 11.2909 20.145 11.6209 19.895C12.2809 19.395 12.9609 18.915 13.6609 18.475C13.7509 18.415 13.8409 18.385 13.9409 18.365V18.375ZM9.00089 22.355C9.23089 22.315 9.47089 22.385 9.64089 22.565C9.93089 22.855 9.93089 23.325 9.64089 23.615C9.09089 24.175 8.55089 24.755 8.05089 25.355C7.79089 25.665 7.32089 25.705 7.01089 25.445C6.70089 25.185 6.66089 24.715 6.92089 24.405C7.45089 23.775 8.01089 23.155 8.60089 22.575C8.71089 22.455 8.86089 22.395 9.01089 22.365L9.00089 22.355ZM5.04089 27.325C5.21089 27.295 5.39089 27.325 5.55089 27.425C5.90089 27.645 6.00089 28.105 5.78089 28.445C5.36089 29.105 4.97089 29.795 4.60089 30.495C4.41089 30.855 3.96089 30.995 3.60089 30.815C3.24089 30.625 3.10089 30.175 3.28089 29.815C3.66089 29.085 4.08089 28.355 4.52089 27.665C4.64089 27.475 4.83089 27.365 5.03089 27.325H5.04089ZM2.26089 33.035C2.38089 33.015 2.50089 33.035 2.63089 33.065C3.02089 33.205 3.22089 33.625 3.08089 34.015C2.82089 34.755 2.58089 35.515 2.38089 36.275C2.28089 36.675 1.87089 36.905 1.47089 36.805C1.07089 36.705 0.840889 36.295 0.940889 35.895C1.15089 35.095 1.40089 34.295 1.68089 33.525C1.77089 33.265 2.00089 33.085 2.26089 33.045V33.035ZM0.800889 39.215C0.870889 39.205 0.940889 39.205 1.01089 39.215C1.42089 39.265 1.71089 39.635 1.66089 40.035C1.57089 40.815 1.50089 41.605 1.48089 42.385C1.47089 42.795 1.12089 43.115 0.710889 43.095C0.300889 43.085 -0.0191112 42.735 0.000888819 42.325C0.0308888 41.495 0.0908888 40.665 0.190889 39.845C0.230889 39.505 0.490889 39.255 0.810889 39.205L0.800889 39.215ZM0.740889 45.565C0.740889 45.565 0.770889 45.565 0.790889 45.565C1.20089 45.525 1.56089 45.825 1.60089 46.225C1.66089 46.795 1.73089 47.375 1.82089 47.945C1.85089 48.155 1.89089 48.355 1.93089 48.565C2.00089 48.965 1.74089 49.355 1.34089 49.425C0.930889 49.505 0.550889 49.235 0.480889 48.835C0.440889 48.625 0.400889 48.405 0.370889 48.185C0.270889 47.585 0.190889 46.975 0.130889 46.375C0.0908888 45.985 0.360889 45.635 0.750889 45.575L0.740889 45.565Z" fill="#5ACDFF"/>
<path d="M42.0409 16.745C42.1909 16.725 42.3409 16.745 42.4809 16.815C42.8409 16.995 43.2009 17.175 43.5609 17.365C43.9209 17.555 44.0609 18.005 43.8609 18.365C43.6709 18.725 43.2209 18.865 42.8609 18.665C42.5209 18.485 42.1809 18.305 41.8309 18.135C41.4609 17.955 41.3109 17.515 41.4909 17.145C41.6009 16.915 41.8109 16.775 42.0409 16.735V16.745Z" fill="#5ACDFF"/>
<path d="M51.5809 39.815C51.5809 39.665 51.4709 39.545 51.3309 39.505L47.2809 38.365C46.7009 36.425 45.8209 34.625 44.6809 33.015L46.3009 29.125C46.3609 28.985 46.3209 28.835 46.2109 28.735L42.4309 25.375C42.3209 25.275 42.1609 25.255 42.0309 25.335L38.3609 27.405C36.6309 26.465 34.7409 25.805 32.7409 25.455L31.1309 21.565C31.0709 21.425 30.9409 21.345 30.7909 21.355L25.7409 21.655C25.5909 21.655 25.4709 21.765 25.4309 21.905L24.2909 25.955C22.3509 26.535 20.5509 27.415 18.9409 28.555L15.0509 26.935C14.9109 26.875 14.7609 26.915 14.6609 27.025L11.3009 30.805C11.2009 30.915 11.1809 31.075 11.2609 31.205L13.3309 34.875C12.3909 36.605 11.7309 38.495 11.3809 40.495L7.49087 42.105C7.35087 42.165 7.27087 42.295 7.28087 42.445L7.58087 47.495C7.58087 47.645 7.69087 47.765 7.83087 47.805L11.8809 48.945C12.4609 50.885 13.3409 52.685 14.4809 54.295L12.8609 58.185C12.8009 58.325 12.8409 58.475 12.9509 58.575L16.7309 61.935C16.8409 62.035 17.0009 62.055 17.1309 61.975L20.8009 59.905C22.5309 60.845 24.4209 61.505 26.4209 61.855L28.0309 65.745C28.0909 65.885 28.2209 65.965 28.3709 65.955L33.4209 65.655C33.5709 65.655 33.6909 65.545 33.7309 65.405L34.8709 61.355C36.8109 60.775 38.6109 59.895 40.2209 58.755L44.1109 60.375C44.2509 60.435 44.4009 60.395 44.5009 60.285L47.8609 56.505C47.9609 56.395 47.9809 56.235 47.9009 56.105L45.8309 52.435C46.7709 50.705 47.4309 48.815 47.7809 46.815L51.6709 45.205C51.8109 45.145 51.8909 45.015 51.8809 44.865L51.5809 39.815ZM34.4209 42.115C35.2609 44.785 33.7809 47.645 31.1109 48.495C29.8209 48.905 28.4409 48.785 27.2409 48.155C26.0409 47.525 25.1509 46.475 24.7409 45.175C23.9009 42.505 25.3809 39.645 28.0509 38.795C28.2909 38.715 28.5309 38.665 28.7809 38.625C31.2209 38.235 33.6609 39.675 34.4309 42.105L34.4209 42.115ZM30.2509 56.205C26.9209 56.405 23.7109 55.295 21.2209 53.075C19.0509 51.145 17.6409 48.585 17.1909 45.755C17.1209 45.335 17.0809 44.905 17.0509 44.475C16.8509 41.145 17.9609 37.935 20.1809 35.445C22.1109 33.275 24.6809 31.865 27.5109 31.415C27.9309 31.345 28.3609 31.305 28.7909 31.275C28.9309 31.275 29.0609 31.265 29.2009 31.255C29.8709 31.235 30.5409 31.275 31.2009 31.365C31.2009 31.365 31.2209 31.365 31.2309 31.365C31.2609 31.365 31.2809 31.365 31.3109 31.375C31.3609 31.375 31.4109 31.385 31.4609 31.395C31.5909 31.415 31.6909 31.515 31.7109 31.645C31.7109 31.675 31.7109 31.705 31.7109 31.735C31.6909 31.895 31.5309 32.005 31.3709 31.985C30.5409 31.855 29.6909 31.815 28.8409 31.865C24.6309 32.115 21.0609 34.535 19.1409 37.965C18.0709 39.875 17.5209 42.105 17.6609 44.445C17.6809 44.855 17.7309 45.265 17.7909 45.665C18.2309 48.365 19.5609 50.805 21.6309 52.645C24.0109 54.755 27.0609 55.815 30.2309 55.625C36.7809 55.235 41.7909 49.595 41.4109 43.045C41.3909 42.645 41.3409 42.245 41.2809 41.845C41.0009 40.125 40.3509 38.485 39.3709 37.045C39.3409 37.005 39.3309 36.965 39.3209 36.925C39.3009 36.815 39.3509 36.695 39.4509 36.635C39.5909 36.545 39.7709 36.575 39.8609 36.715C40.8909 38.225 41.5809 39.945 41.8709 41.755C41.9409 42.175 41.9809 42.595 42.0109 43.015C42.4209 49.895 37.1509 55.815 30.2809 56.225L30.2509 56.205Z" fill="#5ACDFF"/>
<path d="M79.1209 11.825C79.3209 11.795 79.5209 11.895 79.6109 12.075C79.7809 12.425 79.9409 12.785 80.0809 13.145C80.1809 13.375 80.0609 13.645 79.8309 13.745C79.6009 13.845 79.3309 13.725 79.2309 13.495C79.0909 13.155 78.9409 12.805 78.7809 12.475C78.6709 12.245 78.7709 11.975 79.0009 11.865C79.0409 11.845 79.0809 11.835 79.1209 11.825Z" fill="#5ACDFF"/>
<path d="M80.3409 15.125C80.5709 15.085 80.7909 15.225 80.8509 15.455C81.0209 16.105 81.1609 16.765 81.2709 17.425C81.2909 17.565 81.3109 17.705 81.3309 17.845C81.3609 18.095 81.1809 18.315 80.9409 18.365C80.6909 18.395 80.4609 18.225 80.4209 17.975C80.4009 17.845 80.3809 17.705 80.3609 17.575C80.2609 16.945 80.1209 16.315 79.9609 15.695C79.8909 15.455 80.0409 15.205 80.2809 15.135C80.3009 15.135 80.3109 15.135 80.3309 15.135L80.3409 15.125ZM81.0009 19.825C81.0009 19.825 81.0409 19.825 81.0709 19.825C81.3209 19.825 81.5309 20.025 81.5409 20.275C81.5509 21.085 81.5209 21.905 81.4309 22.705C81.4009 22.955 81.1809 23.135 80.9309 23.115C80.6809 23.085 80.5009 22.865 80.5209 22.615C80.6009 21.845 80.6409 21.065 80.6209 20.295C80.6209 20.065 80.7809 19.875 81.0009 19.835V19.825ZM80.5009 24.545C80.5609 24.545 80.6209 24.545 80.6809 24.545C80.9309 24.605 81.0809 24.845 81.0209 25.095C80.8309 25.885 80.6009 26.665 80.3209 27.425C80.2309 27.665 79.9709 27.785 79.7309 27.695C79.4909 27.605 79.3709 27.345 79.4609 27.105C79.7309 26.385 79.9509 25.635 80.1309 24.885C80.1709 24.695 80.3309 24.565 80.5009 24.535V24.545ZM78.8509 29.005C78.9409 28.985 79.0409 29.005 79.1309 29.055C79.3509 29.175 79.4409 29.445 79.3309 29.675C78.9609 30.395 78.5409 31.095 78.0809 31.765C77.9409 31.975 77.6509 32.025 77.4409 31.885C77.2309 31.745 77.1809 31.455 77.3209 31.245C77.7609 30.605 78.1609 29.935 78.5109 29.255C78.5809 29.125 78.7109 29.035 78.8409 29.015L78.8509 29.005ZM76.1609 32.925C76.2909 32.905 76.4309 32.935 76.5409 33.035C76.7309 33.205 76.7509 33.495 76.5809 33.685C76.0409 34.295 75.4609 34.875 74.8609 35.405C74.6709 35.575 74.3809 35.555 74.2109 35.365C74.0409 35.175 74.0609 34.885 74.2509 34.715C74.8309 34.205 75.3809 33.655 75.8909 33.075C75.9609 32.995 76.0609 32.945 76.1609 32.925ZM72.6009 36.075C72.7709 36.045 72.9509 36.115 73.0509 36.265C73.1909 36.475 73.1409 36.755 72.9309 36.905C72.2609 37.365 71.5609 37.785 70.8409 38.155C70.6109 38.275 70.3409 38.185 70.2209 37.955C70.1009 37.735 70.1909 37.455 70.4209 37.335C71.1009 36.985 71.7709 36.585 72.4109 36.145C72.4709 36.105 72.5309 36.085 72.6009 36.075ZM68.3809 38.255C68.5909 38.225 68.8009 38.335 68.8809 38.545C68.9709 38.785 68.8509 39.045 68.6109 39.135C67.8509 39.415 67.0709 39.645 66.2809 39.835C66.0309 39.885 65.7909 39.735 65.7309 39.495C65.6709 39.245 65.8309 39.005 66.0709 38.945C66.8209 38.765 67.5709 38.545 68.2909 38.275C68.3209 38.265 68.3509 38.255 68.3809 38.255ZM61.3809 39.445C61.3809 39.445 61.4309 39.445 61.4609 39.445C62.1309 39.455 62.8109 39.425 63.4809 39.365C63.5809 39.365 63.6809 39.345 63.7809 39.335C64.0309 39.305 64.2609 39.485 64.2809 39.745C64.3109 39.995 64.1309 40.225 63.8709 40.245C63.7609 40.255 63.6609 40.265 63.5509 40.275C62.8509 40.335 62.1409 40.365 61.4409 40.355C61.1909 40.355 60.9909 40.145 60.9909 39.895C60.9909 39.665 61.1609 39.485 61.3709 39.455L61.3809 39.445Z" fill="#5ACDFF"/>
<path d="M58.3509 1.13505C58.6009 1.09505 58.8309 1.26505 58.8709 1.50505C58.9109 1.75505 58.7509 1.99505 58.5009 2.03505C57.7509 2.16505 57.0009 2.34505 56.2809 2.56505C56.0409 2.63505 55.7809 2.50505 55.7109 2.25505C55.6409 2.01505 55.7709 1.75505 56.0209 1.68505C56.7809 1.45505 57.5609 1.26505 58.3509 1.13505ZM60.6809 0.875046C60.6809 0.875046 60.7109 0.875046 60.7309 0.875046C61.5309 0.835046 62.3309 0.835045 63.1309 0.895045C63.3809 0.915045 63.5709 1.12505 63.5609 1.38505C63.5409 1.63505 63.3209 1.82505 63.0709 1.81505C62.3109 1.76505 61.5409 1.75505 60.7809 1.79505C60.5309 1.80505 60.3109 1.61505 60.3009 1.36505C60.2909 1.12505 60.4609 0.925046 60.6809 0.885046V0.875046ZM53.8809 2.49505C54.0809 2.46505 54.2809 2.56505 54.3709 2.76505C54.4709 2.99505 54.3709 3.26505 54.1409 3.36505C53.4409 3.67505 52.7609 4.02505 52.1109 4.41505C51.8909 4.54505 51.6109 4.47505 51.4809 4.25505C51.3509 4.03505 51.4209 3.75505 51.6409 3.62505C52.3209 3.21505 53.0409 2.84505 53.7709 2.52505C53.8109 2.50505 53.8409 2.49505 53.8809 2.49505ZM65.3409 1.19505C65.3909 1.19505 65.4509 1.19505 65.5009 1.19505C66.2809 1.34505 67.0609 1.54505 67.8209 1.78505C68.0609 1.86505 68.1909 2.12505 68.1209 2.36505C68.0409 2.60505 67.7809 2.73505 67.5409 2.65505C66.8209 2.42505 66.0709 2.23505 65.3309 2.08505C65.0809 2.03505 64.9209 1.79505 64.9709 1.54505C65.0109 1.35505 65.1609 1.20505 65.3509 1.17505L65.3409 1.19505ZM49.8709 4.89505C50.0309 4.86505 50.2009 4.92505 50.3009 5.06505C50.4609 5.26505 50.4209 5.55505 50.2209 5.70505C49.6209 6.17505 49.0409 6.67505 48.5009 7.21505C48.3209 7.39505 48.0309 7.39505 47.8509 7.21505C47.6709 7.03505 47.6709 6.74505 47.8509 6.56505C48.4209 6.00505 49.0209 5.47505 49.6509 4.98505C49.7109 4.93505 49.7809 4.90505 49.8609 4.89505H49.8709ZM46.5509 8.18505C46.6709 8.16505 46.8009 8.18505 46.9109 8.27505C47.1109 8.43505 47.1409 8.71505 46.9909 8.91505C46.5209 9.51505 46.0809 10.145 45.6809 10.785C45.5509 11.005 45.2709 11.065 45.0509 10.935C44.8309 10.805 44.7709 10.525 44.9009 10.305C45.3109 9.62505 45.7809 8.96505 46.2709 8.33505C46.3409 8.24505 46.4509 8.18505 46.5609 8.16505L46.5509 8.18505ZM44.1109 12.175C44.2009 12.165 44.2909 12.175 44.3709 12.215C44.6009 12.315 44.7009 12.595 44.6009 12.825C44.2809 13.515 44.0109 14.235 43.7809 14.955C43.7009 15.195 43.4509 15.325 43.2109 15.255C42.9709 15.175 42.8409 14.925 42.9109 14.685C43.1509 13.925 43.4409 13.175 43.7709 12.445C43.8409 12.305 43.9709 12.205 44.1109 12.185V12.175Z" fill="#5ACDFF"/>
<path d="M69.8109 2.62494C69.9009 2.61494 69.9909 2.62494 70.0809 2.66494C70.4409 2.82494 70.7909 3.00494 71.1309 3.18494C71.3509 3.30494 71.4409 3.58494 71.3209 3.80494C71.2009 4.02494 70.9209 4.11494 70.7009 3.99494C70.3809 3.82494 70.0409 3.65494 69.7009 3.49494C69.4709 3.38494 69.3709 3.11494 69.4809 2.88494C69.5509 2.74494 69.6809 2.64494 69.8209 2.62494H69.8109Z" fill="#5ACDFF"/>
<path d="M76.5009 18.1749C76.5009 18.0749 76.4309 17.9949 76.3309 17.9649L73.6209 17.2049C73.2309 15.9049 72.6409 14.7049 71.8809 13.6249L72.9609 11.0249C73.0009 10.9349 72.9709 10.8249 72.9009 10.7649L70.3709 8.51494C70.3009 8.44494 70.1909 8.43494 70.1009 8.48494L67.6409 9.86494C66.4809 9.23494 65.2209 8.79494 63.8809 8.56494L62.8109 5.96494C62.7709 5.87494 62.6809 5.81494 62.5809 5.82494L59.2009 6.02494C59.1009 6.02494 59.0209 6.09494 58.9909 6.19494L58.2309 8.90494C56.9309 9.29494 55.7309 9.88494 54.6509 10.6449L52.0509 9.56494C51.9609 9.52494 51.8509 9.55494 51.7909 9.62494L49.5409 12.1549C49.4709 12.2249 49.4609 12.3349 49.5109 12.4249L50.8909 14.8849C50.2609 16.0449 49.8209 17.3049 49.5909 18.6449L46.9909 19.7149C46.9009 19.7549 46.8409 19.8449 46.8509 19.9449L47.0509 23.3249C47.0509 23.4249 47.1209 23.5049 47.2209 23.5349L49.9309 24.2949C50.3209 25.5949 50.9109 26.7949 51.6709 27.8749L50.5909 30.4749C50.5509 30.5649 50.5809 30.6749 50.6509 30.7349L53.1809 32.9849C53.2509 33.0549 53.3609 33.0649 53.4509 33.0149L55.9109 31.6349C57.0709 32.2649 58.3309 32.7049 59.6709 32.9349L60.7409 35.5349C60.7809 35.6249 60.8709 35.6849 60.9709 35.6749L64.3509 35.4749C64.4509 35.4749 64.5309 35.4049 64.5609 35.3049L65.3209 32.5949C66.6209 32.2049 67.8209 31.6149 68.9009 30.8549L71.5009 31.9349C71.5909 31.9749 71.7009 31.9449 71.7609 31.8749L74.0109 29.3449C74.0809 29.2749 74.0909 29.1649 74.0409 29.0749L72.6609 26.6149C73.2909 25.4549 73.7309 24.1949 73.9609 22.8549L76.5609 21.7849C76.6509 21.7449 76.7109 21.6549 76.7009 21.5549L76.5009 18.1749ZM65.0809 19.6949C65.6609 21.5149 64.6409 23.4649 62.8209 24.0349C61.0009 24.6049 59.0509 23.5949 58.4809 21.7749C58.2009 20.8949 58.2809 19.9549 58.7109 19.1349C59.1409 18.3149 59.8609 17.7049 60.7409 17.4349C60.9009 17.3849 61.0709 17.3449 61.2409 17.3149C61.9709 17.1949 62.7109 17.3149 63.3809 17.6649C64.2009 18.0949 64.8109 18.8149 65.0809 19.6949ZM68.1809 26.5149C66.6509 28.2349 64.5509 29.2549 62.2509 29.3949C59.9509 29.5349 57.7409 28.7649 56.0209 27.2349C54.5209 25.9049 53.5509 24.1349 53.2409 22.1849C53.1909 21.8949 53.1609 21.6049 53.1409 21.3049C52.8809 16.8549 56.0509 12.9849 60.3609 12.2849C60.6509 12.2349 60.9409 12.2049 61.2309 12.1849C61.8209 12.1549 62.4109 12.1749 62.9809 12.2549C63.0109 12.2549 63.0309 12.2549 63.0609 12.2649C63.2609 12.2949 63.4109 12.4549 63.4409 12.6449C63.4409 12.6949 63.4409 12.7349 63.4409 12.7849C63.4009 13.0349 63.1709 13.2049 62.9209 13.1649C62.3809 13.0849 61.8309 13.0549 61.2809 13.0849C61.2809 13.0849 61.2209 13.0849 61.1909 13.0849C59.9009 13.1749 58.6709 13.5849 57.6109 14.2649C57.0309 14.6349 56.5009 15.0849 56.0309 15.6049C56.0309 15.6049 56.0309 15.6049 56.0209 15.6149C56.0109 15.6249 56.0009 15.6449 55.9909 15.6549C54.6209 17.1949 53.9409 19.1749 54.0609 21.2249C54.0809 21.4949 54.1009 21.7549 54.1509 22.0149C54.4309 23.7549 55.3009 25.3449 56.6409 26.5349C58.1809 27.9049 60.1609 28.5849 62.2109 28.4649C64.2609 28.3449 66.1509 27.4249 67.5109 25.8949C68.8809 24.3549 69.5609 22.3749 69.4409 20.3249C69.4209 20.0649 69.4009 19.8049 69.3509 19.5449C69.1709 18.4349 68.7509 17.3749 68.1109 16.4349C68.0709 16.3749 68.0509 16.3149 68.0409 16.2549C68.0109 16.0849 68.0809 15.9049 68.2309 15.8049C68.4409 15.6649 68.7209 15.7149 68.8709 15.9249C69.5809 16.9649 70.0509 18.1549 70.2609 19.3949C70.3109 19.6849 70.3409 19.9749 70.3609 20.2649C70.5009 22.5649 69.7309 24.7749 68.2009 26.4949L68.1809 26.5149Z" fill="#5ACDFF"/>
<path d="M85.4109 153.015L81.3509 189.465H128.491L122.351 153.015H85.4109Z" fill="url(#paint1_linear_13_428)"/>
<path d="M3.37088 60.615V146.505C3.37088 153.575 9.00088 159.345 16.0609 159.535C47.4309 160.345 157.161 162.305 187.021 161.865C192.151 161.785 196.311 157.685 196.461 152.555C197.041 132.605 197.971 84.615 194.511 62.345C193.781 57.655 189.821 54.145 185.081 53.995C158.791 53.155 42.4809 50.485 12.6309 51.155C7.48088 51.275 3.37088 55.475 3.37088 60.625V60.615Z" fill="url(#paint2_linear_13_428)"/>
<path d="M8.76086 60.205V141.805C8.76086 145.935 12.0709 149.295 16.2009 149.355L182.731 151.415C186.821 151.475 190.171 148.185 190.191 144.095L190.471 63.225C190.481 60.305 188.151 57.905 185.231 57.835L14.7309 54.395C11.4609 54.315 8.77086 56.945 8.77086 60.215L8.76086 60.205Z" fill="url(#paint3_linear_13_428)"/>
<path d="M191.441 154.795L8.76089 151.685C8.61089 151.685 8.49089 151.565 8.50089 151.415C8.50089 151.265 8.62089 151.155 8.77089 151.155L191.451 154.265C191.601 154.265 191.721 154.385 191.711 154.535C191.711 154.685 191.591 154.795 191.441 154.795Z" fill="url(#paint4_linear_13_428)"/>
<path d="M138.651 196.925H69.6509C67.7809 196.925 66.3708 195.595 66.7308 194.155L67.6208 190.655C67.8908 189.605 69.0408 188.825 70.4208 188.785L136.941 186.705C138.381 186.665 139.651 187.425 139.961 188.515L141.561 194.095C141.971 195.545 140.561 196.915 138.661 196.915L138.651 196.925Z" fill="url(#paint5_linear_13_428)"/>
<path d="M65.9209 136.465L36.1109 136.415C35.6209 136.415 35.2309 136.055 35.2309 135.605V133.705C35.2309 133.255 35.6209 132.905 36.1109 132.905L65.9209 133.075C66.3709 133.075 66.7409 133.425 66.7409 133.855V135.685C66.7409 136.115 66.3709 136.465 65.9209 136.465Z" fill="#003759"/>
<path d="M37.2609 137.135L39.8209 146.535C39.9809 147.125 40.5609 147.545 41.2309 147.535L61.0809 147.315C61.7109 147.315 62.2709 146.895 62.4209 146.315L64.8409 137.165L37.2609 137.145V137.135ZM44.6209 145.985C44.6209 146.355 44.2909 146.665 43.8909 146.665H43.1909C42.7909 146.675 42.4609 146.375 42.4609 146.005V138.715C42.4609 138.345 42.7909 138.035 43.1909 138.035H43.8909C44.2909 138.035 44.6209 138.335 44.6209 138.705V145.975V145.985ZM48.4909 145.945C48.4909 146.315 48.1709 146.625 47.7709 146.625H47.0809C46.6809 146.635 46.3509 146.335 46.3509 145.965V138.715C46.3509 138.345 46.6809 138.045 47.0809 138.045H47.7709C48.1709 138.045 48.4909 138.345 48.4909 138.715V145.945ZM52.3309 145.905C52.3309 146.275 52.0109 146.575 51.6109 146.585H50.9309C50.5309 146.595 50.2109 146.295 50.2109 145.925V138.705C50.2109 138.335 50.5309 138.035 50.9309 138.035H51.6109C52.0109 138.035 52.3309 138.335 52.3309 138.705V145.905ZM56.1309 145.865C56.1309 146.235 55.8109 146.535 55.4209 146.535H54.7409C54.3509 146.545 54.0309 146.255 54.0309 145.885V138.695C54.0309 138.325 54.3509 138.025 54.7409 138.025H55.4209C55.8109 138.025 56.1309 138.325 56.1309 138.695V145.865ZM59.9009 145.825C59.9009 146.195 59.5809 146.495 59.2009 146.495H58.5309C58.1409 146.505 57.8209 146.215 57.8209 145.845V138.685C57.8209 138.315 58.1409 138.015 58.5309 138.015H59.2009C59.5909 138.015 59.9009 138.315 59.9009 138.675V145.815V145.825Z" fill="#003759"/>
<path d="M40.6109 131.985C40.1609 132.345 39.4709 132.295 39.0709 131.875C38.6709 131.455 38.7209 130.825 39.1809 130.465C39.6309 130.105 40.3209 130.155 40.7209 130.575C41.1109 130.995 41.0709 131.625 40.6109 131.985Z" fill="#003759"/>
<path d="M50.1809 123.055C50.0309 122.895 49.7209 122.915 49.4909 123.095L40.0509 130.595C39.8109 130.785 39.7409 131.065 39.9009 131.235C40.0509 131.395 40.3709 131.375 40.6109 131.185L50.0409 123.685C50.2709 123.505 50.3409 123.225 50.1909 123.055H50.1809Z" fill="#003759"/>
<path d="M61.6709 132.125C62.1009 132.485 62.7509 132.445 63.1309 132.045C63.5009 131.645 63.4609 131.025 63.0309 130.665C62.6009 130.305 61.9509 130.345 61.5709 130.745C61.1909 131.145 61.2409 131.765 61.6709 132.125Z" fill="#003759"/>
<path d="M52.3609 123.085C52.5109 122.925 52.8209 122.955 53.0509 123.145L62.2109 130.765C62.4309 130.955 62.5009 131.235 62.3509 131.385C62.2009 131.545 61.9009 131.515 61.6809 131.325L52.5109 123.705C52.2809 123.515 52.2109 123.235 52.3609 123.075V123.085Z" fill="#003759"/>
<path d="M166.351 95.5651C174.845 95.5651 181.731 88.6792 181.731 80.1851C181.731 71.6909 174.845 64.8051 166.351 64.8051C157.857 64.8051 150.971 71.6909 150.971 80.1851C150.971 88.6792 157.857 95.5651 166.351 95.5651Z" fill="#003759"/>
<path d="M166.461 90.3449C166.291 90.3449 166.121 90.3449 165.951 90.3349C160.081 90.0749 155.501 85.4049 155.741 79.9149C155.861 77.2449 157.081 74.7949 159.191 72.9949C161.281 71.2149 164.001 70.3049 166.831 70.4249C172.701 70.6849 177.281 75.3549 177.041 80.8449C176.921 83.5149 175.701 85.9649 173.591 87.7649C171.631 89.4349 169.111 90.3449 166.471 90.3449H166.461ZM166.301 71.8249C163.991 71.8249 161.791 72.6149 160.091 74.0649C158.291 75.6049 157.241 77.6949 157.141 79.9749C156.931 84.6849 160.911 88.7049 166.011 88.9349C168.491 89.0449 170.861 88.2549 172.681 86.7049C174.481 85.1649 175.531 83.0749 175.631 80.7949C175.841 76.0849 171.861 72.0649 166.761 71.8349C166.611 71.8349 166.461 71.8349 166.311 71.8349L166.301 71.8249Z" fill="url(#paint6_linear_13_428)"/>
<path d="M168.921 80.425C168.921 82.055 168.811 83.695 168.521 85.305C168.451 85.705 168.361 86.105 168.261 86.505C168.161 86.905 168.041 87.295 167.901 87.675C167.761 88.055 167.591 88.435 167.361 88.785C167.251 88.955 167.121 89.125 166.961 89.255C166.881 89.325 166.791 89.385 166.701 89.425C166.601 89.465 166.501 89.495 166.391 89.495C166.281 89.495 166.181 89.475 166.081 89.435C165.981 89.395 165.891 89.335 165.811 89.275C165.651 89.145 165.521 88.985 165.401 88.815C165.171 88.475 165.001 88.095 164.861 87.715C164.721 87.335 164.601 86.935 164.501 86.545C164.401 86.145 164.311 85.745 164.241 85.345C164.091 84.545 163.991 83.725 163.931 82.915C163.861 82.105 163.831 81.285 163.831 80.465C163.831 80.055 163.831 79.645 163.851 79.235C163.871 78.825 163.891 78.415 163.921 78.015C163.981 77.205 164.071 76.385 164.201 75.585C164.271 75.185 164.351 74.785 164.441 74.385C164.531 73.985 164.641 73.595 164.781 73.205C164.851 73.015 164.921 72.825 165.011 72.635C165.101 72.445 165.191 72.265 165.301 72.095C165.411 71.925 165.541 71.765 165.701 71.625C165.781 71.565 165.871 71.505 165.971 71.465C166.071 71.425 166.171 71.405 166.281 71.415C166.381 71.415 166.491 71.445 166.581 71.485C166.671 71.525 166.761 71.585 166.841 71.645C167.001 71.775 167.131 71.935 167.251 72.105C167.481 72.445 167.661 72.815 167.811 73.195C167.961 73.575 168.091 73.965 168.201 74.355C168.311 74.745 168.401 75.145 168.481 75.545C168.791 77.145 168.921 78.785 168.931 80.415L168.921 80.425ZM168.801 80.425C168.801 79.615 168.771 78.795 168.701 77.985C168.631 77.175 168.531 76.365 168.381 75.565C168.311 75.165 168.221 74.765 168.111 74.375C168.011 73.985 167.891 73.595 167.741 73.215C167.591 72.835 167.421 72.465 167.201 72.135C167.091 71.965 166.961 71.815 166.801 71.685C166.721 71.625 166.641 71.565 166.551 71.525C166.461 71.485 166.361 71.455 166.261 71.455C166.161 71.455 166.061 71.475 165.971 71.505C165.881 71.545 165.791 71.595 165.721 71.665C165.571 71.795 165.441 71.955 165.331 72.125C165.221 72.295 165.131 72.475 165.051 72.665C164.971 72.855 164.901 73.045 164.831 73.235C164.701 73.615 164.591 74.015 164.511 74.405C164.421 74.805 164.351 75.205 164.281 75.605C164.161 76.405 164.071 77.215 164.021 78.035C163.971 78.845 163.951 79.665 163.951 80.475C163.951 81.285 163.971 82.105 164.041 82.915C164.101 83.725 164.191 84.535 164.331 85.335C164.401 85.735 164.481 86.135 164.581 86.525C164.681 86.915 164.791 87.305 164.931 87.695C165.071 88.075 165.231 88.445 165.461 88.785C165.571 88.955 165.701 89.115 165.851 89.235C165.931 89.295 166.011 89.355 166.101 89.385C166.191 89.425 166.291 89.445 166.381 89.435C166.481 89.435 166.571 89.405 166.661 89.365C166.751 89.325 166.831 89.265 166.911 89.205C167.061 89.075 167.181 88.915 167.291 88.745C167.511 88.405 167.671 88.035 167.811 87.655C167.951 87.275 168.061 86.885 168.161 86.485C168.261 86.095 168.341 85.695 168.411 85.295C168.551 84.495 168.641 83.685 168.701 82.875C168.761 82.065 168.791 81.245 168.791 80.435L168.801 80.425Z" fill="url(#paint7_linear_13_428)"/>
<path d="M166.381 89.7349C166.261 89.7349 166.131 89.7049 166.001 89.6649C165.891 89.6249 165.781 89.5549 165.671 89.4649C165.511 89.3349 165.361 89.1749 165.211 88.9449C165.001 88.6349 164.821 88.2649 164.641 87.7949C164.501 87.4349 164.381 87.0449 164.271 86.5949C164.171 86.2149 164.091 85.8149 164.011 85.3849C163.871 84.6149 163.771 83.8149 163.691 82.9349C163.621 82.1349 163.591 81.3049 163.581 80.4649C163.581 80.0249 163.591 79.5949 163.601 79.2349C163.621 78.8149 163.641 78.4049 163.671 78.0049C163.741 77.1249 163.831 76.3149 163.961 75.5549C164.031 75.1149 164.111 74.7149 164.201 74.3349C164.311 73.8849 164.421 73.4949 164.551 73.1349C164.631 72.9149 164.701 72.7249 164.791 72.5449C164.891 72.3249 164.991 72.1449 165.101 71.9749C165.251 71.7549 165.391 71.5849 165.551 71.4549C165.661 71.3649 165.771 71.3049 165.881 71.2549C166.011 71.2049 166.151 71.1749 166.281 71.1849C166.411 71.1849 166.541 71.2149 166.671 71.2749C166.781 71.3249 166.881 71.3849 166.991 71.4749C167.151 71.6049 167.291 71.7649 167.451 71.9849C167.661 72.2949 167.851 72.6549 168.041 73.1249C168.181 73.4849 168.311 73.8749 168.431 74.3149C168.541 74.6949 168.631 75.0949 168.711 75.5249C169.011 77.0449 169.161 78.6549 169.161 80.4449C169.161 82.2449 169.031 83.8549 168.761 85.3649C168.681 85.7949 168.601 86.1949 168.501 86.5849C168.391 87.0249 168.271 87.4249 168.131 87.7849C167.951 88.2649 167.771 88.6249 167.571 88.9349C167.421 89.1549 167.281 89.3249 167.121 89.4549C167.011 89.5449 166.911 89.6149 166.801 89.6649C166.671 89.7249 166.531 89.7549 166.401 89.7549C166.401 89.7549 166.381 89.7549 166.371 89.7549L166.381 89.7349ZM166.261 71.6849C166.201 71.6849 166.141 71.6949 166.081 71.7249C166.021 71.7549 165.951 71.7949 165.891 71.8449C165.771 71.9449 165.671 72.0749 165.551 72.2449C165.461 72.3949 165.371 72.5549 165.281 72.7549C165.211 72.9149 165.141 73.0949 165.071 73.3049C164.951 73.6449 164.851 74.0249 164.751 74.4549C164.671 74.8249 164.591 75.2149 164.531 75.6349C164.411 76.3849 164.331 77.1749 164.281 78.0449C164.231 78.7849 164.211 79.5749 164.211 80.4649C164.211 81.2849 164.241 82.1049 164.291 82.8849C164.351 83.7449 164.451 84.5349 164.581 85.2849C164.651 85.7049 164.731 86.0949 164.831 86.4649C164.941 86.8949 165.051 87.2649 165.171 87.6049C165.331 88.0349 165.491 88.3749 165.671 88.6449C165.791 88.8149 165.901 88.9449 166.011 89.0449C166.081 89.0949 166.141 89.1349 166.201 89.1649C166.271 89.1949 166.331 89.2049 166.391 89.2049C166.451 89.2049 166.521 89.1849 166.581 89.1549C166.641 89.1249 166.711 89.0849 166.771 89.0249C166.891 88.9249 166.991 88.7949 167.111 88.6149C167.291 88.3349 167.451 88.0049 167.601 87.5649C167.721 87.2249 167.831 86.8449 167.941 86.4249C168.031 86.0549 168.111 85.6749 168.181 85.2449C168.311 84.4949 168.401 83.7149 168.471 82.8449C168.531 82.0649 168.561 81.2449 168.561 80.4249C168.561 79.6049 168.531 78.7949 168.461 78.0049C168.391 77.1449 168.291 76.3549 168.151 75.6149C168.071 75.1949 167.991 74.8149 167.891 74.4449C167.781 74.0249 167.661 73.6549 167.531 73.3049C167.361 72.8749 167.201 72.5449 167.011 72.2649C166.891 72.0849 166.781 71.9649 166.661 71.8649C166.591 71.8049 166.531 71.7649 166.461 71.7349C166.391 71.7049 166.331 71.6849 166.271 71.6849C166.271 71.6849 166.271 71.6849 166.261 71.6849Z" fill="url(#paint8_linear_13_428)"/>
<path d="M173.031 80.4251C173.031 81.4751 172.891 82.5251 172.611 83.5451C172.321 84.5551 171.891 85.5351 171.311 86.4051C171.021 86.8451 170.691 87.2551 170.321 87.6251C169.951 87.9951 169.541 88.3351 169.101 88.6151C168.661 88.8951 168.181 89.1151 167.671 89.2651C167.171 89.4151 166.641 89.4951 166.121 89.4951C165.601 89.4951 165.071 89.4151 164.571 89.2651C164.071 89.1151 163.591 88.8951 163.141 88.6151C162.701 88.3351 162.291 88.0051 161.921 87.6251C161.551 87.2551 161.221 86.8451 160.931 86.4051C160.341 85.5351 159.911 84.5551 159.631 83.5451C159.491 83.0351 159.381 82.5251 159.311 81.9951C159.241 81.4751 159.211 80.9451 159.201 80.4251C159.201 79.8951 159.241 79.3751 159.311 78.8551C159.381 78.3351 159.491 77.8151 159.631 77.3051C159.921 76.2951 160.351 75.3151 160.931 74.4451C161.221 74.0051 161.551 73.5951 161.921 73.2251C162.291 72.8551 162.701 72.5151 163.141 72.2451C163.581 71.9651 164.061 71.7451 164.571 71.5951C165.071 71.4451 165.591 71.3651 166.121 71.3651C166.641 71.3651 167.171 71.4451 167.671 71.5951C168.171 71.7451 168.651 71.9651 169.091 72.2451C169.531 72.5251 169.941 72.8551 170.311 73.2351C170.681 73.6051 171.011 74.0151 171.301 74.4551C171.881 75.3251 172.321 76.3051 172.601 77.3151C172.881 78.3251 173.021 79.3851 173.021 80.4351L173.031 80.4251ZM172.891 80.4251C172.891 79.3851 172.761 78.3451 172.491 77.3451C172.221 76.3451 171.801 75.3751 171.231 74.5051C170.951 74.0751 170.621 73.6651 170.261 73.2851C169.901 72.9151 169.501 72.5751 169.061 72.2951C168.621 72.0151 168.151 71.7951 167.651 71.6451C167.151 71.4951 166.641 71.4151 166.121 71.4151C165.601 71.4151 165.081 71.4951 164.591 71.6451C164.091 71.7951 163.621 72.0251 163.181 72.2951C162.741 72.5751 162.341 72.9151 161.981 73.2851C161.621 73.6551 161.301 74.0651 161.011 74.5051C160.441 75.3751 160.031 76.3451 159.761 77.3451C159.621 77.8451 159.531 78.3551 159.461 78.8751C159.391 79.3951 159.361 79.9051 159.361 80.4251C159.361 80.9451 159.391 81.4651 159.461 81.9751C159.531 82.4851 159.631 83.0051 159.761 83.5051C160.031 84.5051 160.451 85.4751 161.021 86.3451C161.301 86.7751 161.631 87.1851 161.991 87.5651C162.351 87.9351 162.751 88.2751 163.191 88.5551C163.631 88.8351 164.101 89.0551 164.601 89.2051C165.091 89.3551 165.611 89.4351 166.131 89.4451C166.651 89.4451 167.161 89.3651 167.661 89.2151C168.161 89.0651 168.631 88.8451 169.071 88.5651C169.511 88.2851 169.911 87.9551 170.271 87.5751C170.631 87.2051 170.961 86.7951 171.241 86.3551C171.811 85.4851 172.221 84.5151 172.501 83.5151C172.771 82.5151 172.901 81.4751 172.911 80.4351L172.891 80.4251Z" fill="url(#paint9_linear_13_428)"/>
<path d="M166.121 89.7349C165.571 89.7349 165.031 89.6549 164.501 89.4949C163.991 89.3449 163.491 89.1149 163.021 88.8149C162.571 88.5349 162.151 88.1949 161.751 87.7949C161.381 87.4249 161.041 87.0049 160.731 86.5449C160.151 85.6749 159.701 84.6949 159.401 83.6149C159.261 83.1049 159.151 82.5749 159.081 82.0349C159.011 81.5149 158.971 80.9749 158.971 80.4349C158.971 79.8949 159.011 79.3549 159.081 78.8249C159.151 78.2849 159.261 77.7549 159.401 77.2449C159.711 76.1649 160.151 75.1849 160.741 74.3149C161.051 73.8549 161.391 73.4349 161.761 73.0649C162.151 72.6649 162.581 72.3249 163.021 72.0449C163.491 71.7549 163.991 71.5249 164.501 71.3649C165.031 71.2049 165.571 71.1249 166.121 71.1249C166.671 71.1249 167.211 71.2049 167.741 71.3649C168.251 71.5249 168.751 71.7449 169.221 72.0449C169.671 72.3249 170.091 72.6649 170.481 73.0649C170.851 73.4349 171.191 73.8549 171.501 74.3149C172.081 75.1849 172.531 76.1649 172.831 77.2349C173.111 78.2449 173.261 79.3149 173.261 80.4149C173.261 81.5149 173.111 82.5849 172.831 83.5949C172.531 84.6749 172.081 85.6549 171.501 86.5249C171.191 86.9849 170.851 87.4049 170.481 87.7849C170.091 88.1849 169.661 88.5249 169.221 88.8049C168.751 89.1049 168.251 89.3349 167.741 89.4849C167.211 89.6449 166.671 89.7249 166.121 89.7249V89.7349ZM166.121 71.6549C165.631 71.6549 165.141 71.7349 164.661 71.8749C164.201 72.0149 163.741 72.2249 163.311 72.5049C162.911 72.7649 162.521 73.0849 162.151 73.4549C161.811 73.8049 161.491 74.2049 161.211 74.6349C160.681 75.4549 160.271 76.3849 159.991 77.4049C159.861 77.8749 159.761 78.3849 159.691 78.9049C159.631 79.4049 159.591 79.9149 159.591 80.4249C159.591 80.9349 159.631 81.4549 159.691 81.9449C159.761 82.4649 159.861 82.9649 159.991 83.4449C160.271 84.4649 160.681 85.3949 161.221 86.2149C161.501 86.6449 161.821 87.0449 162.161 87.3949C162.531 87.7749 162.911 88.0949 163.321 88.3449C163.751 88.6149 164.201 88.8249 164.671 88.9649C165.151 89.1149 165.641 89.1849 166.131 89.1849C166.621 89.1849 167.111 89.1049 167.591 88.9649C168.051 88.8249 168.511 88.6149 168.941 88.3449C169.341 88.0949 169.731 87.7649 170.101 87.3949C170.441 87.0449 170.761 86.6449 171.041 86.2149C171.571 85.4049 171.991 84.4649 172.271 83.4449C172.531 82.4849 172.671 81.4749 172.671 80.4249C172.671 79.3749 172.541 78.3649 172.271 77.4049C171.991 76.3849 171.581 75.4449 171.041 74.6349C170.761 74.2049 170.441 73.8049 170.101 73.4549C169.731 73.0749 169.351 72.7549 168.941 72.5049C168.511 72.2349 168.051 72.0249 167.591 71.8749C167.111 71.7249 166.621 71.6549 166.131 71.6549H166.121Z" fill="url(#paint10_linear_13_428)"/>
<path d="M158.061 76.835L160.131 76.815H162.201L166.351 76.795H170.501L172.571 76.815L174.641 76.835L172.571 76.855H170.501L166.351 76.875H162.201L160.131 76.855L158.061 76.835C158.061 76.825 158.061 76.825 158.061 76.825V76.835Z" fill="url(#paint11_linear_13_428)"/>
<path d="M166.361 77.1251L160.131 77.1151L157.961 77.0951L157.811 76.9451V76.8451L157.821 76.6051L158.051 76.5951L162.201 76.5751L166.361 76.5651L172.581 76.5851L174.891 76.6051L174.901 77.0851L174.661 77.0951L170.511 77.1151L166.361 77.1251Z" fill="url(#paint12_linear_13_428)"/>
<path d="M160.461 73.3451C160.951 73.3451 161.441 73.3351 161.931 73.3251H163.401C163.891 73.3151 164.381 73.3151 164.871 73.3151H166.341H169.291H170.761C171.251 73.3351 171.741 73.3351 172.231 73.3451C171.741 73.3451 171.251 73.3551 170.761 73.3651H169.291L166.341 73.3851H164.871C164.381 73.3851 163.891 73.3851 163.401 73.3851H161.931C161.441 73.3651 160.951 73.3651 160.461 73.3551V73.3451Z" fill="url(#paint13_linear_13_428)"/>
<path d="M166.361 73.6351H164.501C164.141 73.6351 163.771 73.6351 163.411 73.6351H161.451C161.121 73.6151 160.791 73.6151 160.471 73.6051H160.241V73.1151H160.481C160.801 73.1051 161.111 73.0951 161.431 73.0951L163.431 73.0751C163.781 73.0751 164.121 73.0751 164.471 73.0751H166.381L171.341 73.0951C171.651 73.0951 171.971 73.0951 172.281 73.1051H172.521L172.511 73.5851H172.281C171.961 73.5951 171.631 73.6051 171.301 73.6051L169.341 73.6251H166.391L166.361 73.6351Z" fill="url(#paint14_linear_13_428)"/>
<path d="M157.341 80.325L159.601 80.305H161.861L166.371 80.285H170.881L173.141 80.305L175.401 80.325L173.141 80.345H170.881L166.371 80.365H161.861L159.601 80.345L157.341 80.325Z" fill="url(#paint15_linear_13_428)"/>
<path d="M166.361 80.6151L159.591 80.5951L157.101 80.5851L157.091 80.0951L157.331 80.0851L161.841 80.0651L166.361 80.0551L173.121 80.0751L175.481 80.0951L175.621 80.2351L175.611 80.5751H175.381L170.871 80.6051L166.361 80.6151Z" fill="url(#paint16_linear_13_428)"/>
<path d="M158.061 83.815L160.131 83.795H162.201L166.351 83.775H170.501L172.571 83.795L174.641 83.815L172.571 83.835H170.501L166.351 83.855H162.201L160.131 83.835L158.061 83.815Z" fill="url(#paint17_linear_13_428)"/>
<path d="M166.361 84.105L160.131 84.085L157.961 84.075L157.811 83.925V83.815L157.821 83.585L158.051 83.575L162.201 83.555L166.361 83.545L172.581 83.565L174.891 83.585L174.901 84.065H174.661L170.511 84.095L166.361 84.105Z" fill="url(#paint18_linear_13_428)"/>
<path d="M172.551 87.345H160.761C160.761 87.345 160.731 87.335 160.731 87.315C160.731 87.295 160.741 87.285 160.761 87.285H172.551C172.551 87.285 172.581 87.295 172.581 87.315C172.581 87.335 172.571 87.345 172.551 87.345Z" fill="url(#paint19_linear_13_428)"/>
<path d="M172.551 87.585H160.761C160.611 87.585 160.491 87.465 160.491 87.315C160.491 87.165 160.611 87.045 160.761 87.045H172.551C172.701 87.045 172.821 87.165 172.821 87.315C172.821 87.465 172.701 87.585 172.551 87.585Z" fill="url(#paint20_linear_13_428)"/>
<path d="M130.551 50.485C139.387 50.485 146.551 43.3215 146.551 34.485C146.551 25.6484 139.387 18.485 130.551 18.485C121.714 18.485 114.551 25.6484 114.551 34.485C114.551 43.3215 121.714 50.485 130.551 50.485Z" fill="#003759"/>
<path d="M133.991 39.225H124.671C124.421 39.225 124.201 39.055 124.141 38.805C124.121 38.735 124.101 38.665 124.071 38.595C124.071 38.595 124.071 38.575 124.061 38.575C124.021 38.485 123.981 38.415 123.931 38.335C123.611 37.865 123.091 37.585 122.531 37.585C121.971 37.585 121.451 37.865 121.131 38.335C121.081 38.415 121.031 38.485 121.001 38.575C121.001 38.575 121.001 38.595 120.991 38.595C120.961 38.655 120.931 38.725 120.921 38.805C120.861 39.055 120.641 39.225 120.391 39.225H119.921C119.441 39.225 119.051 38.835 119.051 38.355V30.085C119.051 29.605 119.441 29.215 119.921 29.215H134.011C134.491 29.215 134.881 29.605 134.881 30.085V38.355C134.881 38.835 134.491 39.225 134.011 39.225H133.991ZM125.061 38.135H133.771V30.305H120.121V37.875C120.151 37.825 120.181 37.775 120.221 37.725C120.751 36.965 121.611 36.505 122.521 36.505C123.431 36.505 124.301 36.965 124.821 37.725C124.911 37.855 124.981 37.985 125.051 38.125C125.051 38.125 125.051 38.125 125.051 38.135H125.061Z" fill="url(#paint21_linear_13_428)"/>
<path d="M140.861 39.225H140.461C140.211 39.225 139.991 39.055 139.931 38.805C139.911 38.735 139.891 38.665 139.861 38.595C139.861 38.595 139.861 38.585 139.851 38.575C139.811 38.485 139.771 38.415 139.721 38.335C139.401 37.865 138.871 37.585 138.321 37.585C137.771 37.585 137.241 37.865 136.921 38.335C136.871 38.415 136.821 38.485 136.791 38.575C136.791 38.575 136.791 38.595 136.781 38.595C136.751 38.655 136.721 38.725 136.711 38.805C136.651 39.055 136.431 39.225 136.181 39.225H136.061C135.581 39.225 135.191 38.835 135.191 38.355V31.885C135.191 31.405 135.581 31.015 136.061 31.015H137.471C137.821 30.995 139.451 31.015 140.681 32.325C141.891 33.625 141.811 35.225 141.771 35.615V38.365C141.771 38.845 141.381 39.235 140.901 39.235L140.861 39.225ZM138.301 36.495C139.221 36.495 140.081 36.955 140.601 37.715C140.611 37.735 140.621 37.745 140.631 37.765V35.575C140.631 35.575 140.631 35.535 140.631 35.505C140.661 35.265 140.751 34.045 139.831 33.065C138.911 32.085 137.691 32.095 137.461 32.105C137.461 32.105 137.441 32.105 137.431 32.105H136.231V37.405C136.761 36.825 137.501 36.495 138.291 36.495H138.301Z" fill="url(#paint22_linear_13_428)"/>
<path d="M122.521 41.415C121.711 41.415 121.041 40.755 121.041 39.935C121.041 39.585 121.171 39.245 121.401 38.985C121.671 38.655 122.081 38.465 122.521 38.465C122.961 38.465 123.361 38.655 123.631 38.985C123.861 39.255 123.991 39.595 123.991 39.935C123.991 40.745 123.331 41.415 122.521 41.415ZM122.521 39.555C122.411 39.555 122.311 39.595 122.241 39.675C122.241 39.675 122.241 39.685 122.221 39.695C122.181 39.745 122.131 39.825 122.131 39.935C122.131 40.145 122.301 40.315 122.511 40.315C122.721 40.315 122.891 40.145 122.891 39.935C122.891 39.825 122.841 39.745 122.801 39.695C122.801 39.695 122.791 39.685 122.781 39.675C122.721 39.595 122.621 39.555 122.511 39.555H122.521Z" fill="url(#paint23_linear_13_428)"/>
<path d="M138.301 41.415C137.491 41.415 136.821 40.755 136.821 39.935C136.821 39.585 136.951 39.245 137.181 38.975C137.451 38.645 137.861 38.455 138.301 38.455C138.741 38.455 139.151 38.645 139.421 38.975C139.651 39.245 139.781 39.585 139.781 39.935C139.781 40.745 139.121 41.415 138.301 41.415ZM138.301 39.555C138.191 39.555 138.091 39.605 138.021 39.675C138.021 39.675 138.021 39.685 138.001 39.695C137.961 39.745 137.911 39.825 137.911 39.935C137.911 40.145 138.091 40.315 138.291 40.315C138.491 40.315 138.671 40.135 138.671 39.935C138.671 39.825 138.621 39.745 138.581 39.695C138.581 39.695 138.571 39.685 138.561 39.675C138.501 39.595 138.401 39.555 138.281 39.555H138.301Z" fill="url(#paint24_linear_13_428)"/>
<path d="M82.6609 50.485C91.4588 50.485 98.5909 43.3529 98.5909 34.555C98.5909 25.7571 91.4588 18.625 82.6609 18.625C73.863 18.625 66.7309 25.7571 66.7309 34.555C66.7309 43.3529 73.863 50.485 82.6609 50.485Z" fill="#003759"/>
<path d="M81.8909 31.165H87.0609C87.4509 31.165 87.7709 30.845 87.7709 30.455V27.225C87.7709 26.835 87.4509 26.515 87.0609 26.515H81.8909C81.5009 26.515 81.1809 26.835 81.1809 27.225V30.455C81.1809 30.845 81.5009 31.165 81.8909 31.165ZM82.2409 30.105V27.575H86.7109V30.105H82.2409Z" fill="url(#paint25_linear_13_428)"/>
<path d="M95.3909 33.565C95.1809 33.195 94.8009 32.975 94.3809 32.975H91.5509V32.255C91.5509 31.865 91.2309 31.545 90.8409 31.545H85.6709C85.2809 31.545 84.9609 31.865 84.9609 32.255V35.245H84.5409V32.255C84.5409 31.865 84.2209 31.545 83.8309 31.545H78.6609C78.2709 31.545 77.9509 31.865 77.9509 32.255V35.305L71.8209 35.355C71.4109 35.355 71.0409 35.585 70.8509 35.945C70.6609 36.305 70.6809 36.745 70.9209 37.085L73.4309 40.735C73.9009 41.415 74.6709 41.825 75.5009 41.825H89.8609C90.5909 41.825 91.2609 41.455 91.6509 40.835L95.3609 34.755C95.5809 34.395 95.5909 33.945 95.3909 33.575V33.565ZM86.0209 35.245V32.605H90.4909V32.975H89.1009C88.4609 32.975 87.8509 33.295 87.4909 33.825L86.5109 35.245H86.0209ZM79.0209 32.605H83.4909V35.265L79.1209 35.295H79.0209V32.605ZM94.4709 34.195L90.7609 40.275C90.5709 40.585 90.2309 40.765 89.8709 40.765H75.5109C75.0309 40.765 74.5809 40.525 74.3109 40.135L71.8109 36.495C71.8109 36.495 71.7909 36.465 71.8109 36.435C71.8209 36.405 71.8409 36.405 71.8509 36.405L79.1409 36.345L84.6709 36.305H85.5109H86.8009C86.9709 36.295 87.1309 36.205 87.2309 36.065L88.3609 34.425C88.5309 34.175 88.8109 34.035 89.1009 34.035H94.3809C94.4209 34.035 94.4509 34.055 94.4709 34.085C94.4909 34.125 94.4909 34.155 94.4709 34.195Z" fill="url(#paint26_linear_13_428)"/>
<path d="M39.6909 95.5649C48.2237 95.5649 55.1409 88.6477 55.1409 80.1149C55.1409 71.5821 48.2237 64.6649 39.6909 64.6649C31.1581 64.6649 24.2409 71.5821 24.2409 80.1149C24.2409 88.6477 31.1581 95.5649 39.6909 95.5649Z" fill="#003759"/>
<path d="M48.1309 79.655H36.4209C36.1109 79.655 35.8609 79.405 35.8609 79.095C35.8609 78.785 36.1109 78.535 36.4209 78.535H48.1309C48.4409 78.535 48.6909 78.785 48.6909 79.095C48.6909 79.405 48.4409 79.655 48.1309 79.655Z" fill="url(#paint27_linear_13_428)"/>
<path d="M40.0909 87.2051C39.7809 87.2051 39.5309 86.7951 39.5309 86.2751V76.2751C39.5309 75.7651 39.7809 75.3451 40.0909 75.3451C40.4009 75.3451 40.6509 75.7551 40.6509 76.2751V86.2751C40.6509 86.7851 40.4009 87.2051 40.0909 87.2051Z" fill="url(#paint28_linear_13_428)"/>
<path d="M44.3709 87.2051C44.0609 87.2051 43.8109 86.7951 43.8109 86.2751V76.2751C43.8109 75.7651 44.0609 75.3451 44.3709 75.3451C44.6809 75.3451 44.9309 75.7551 44.9309 76.2751V86.2751C44.9309 86.7851 44.6809 87.2051 44.3709 87.2051Z" fill="url(#paint29_linear_13_428)"/>
<path d="M47.7709 83.595H36.4909C36.1409 83.595 35.8609 83.345 35.8609 83.035C35.8609 82.725 36.1409 82.475 36.4909 82.475H47.7709C48.1209 82.475 48.4009 82.725 48.4009 83.035C48.4009 83.345 48.1209 83.595 47.7709 83.595Z" fill="url(#paint30_linear_13_428)"/>
<path d="M48.4009 87.555H36.0609C35.6609 87.555 35.3309 87.225 35.3309 86.825V75.685C35.3309 75.285 35.6609 74.955 36.0609 74.955H48.4009C48.8009 74.955 49.1309 75.285 49.1309 75.685V86.825C49.1309 87.225 48.8009 87.555 48.4009 87.555ZM36.7909 86.105H47.6809V76.415H36.7909V86.105Z" fill="url(#paint31_linear_13_428)"/>
<path d="M36.0609 87.555H30.7809C30.5809 87.555 30.3809 87.465 30.2409 87.315C30.1009 87.165 30.0309 86.965 30.0509 86.755L31.4809 71.885C31.5209 71.515 31.8309 71.225 32.2009 71.225H34.7509C35.1309 71.225 35.4409 71.515 35.4709 71.885L36.7709 86.755C36.7909 86.955 36.7209 87.155 36.5809 87.305C36.4409 87.455 36.2509 87.545 36.0409 87.545L36.0609 87.555ZM31.5809 86.105H35.2609L34.0909 72.695H32.8709L31.5809 86.105Z" fill="url(#paint32_linear_13_428)"/>
<path d="M142.211 195.765V168.895C142.211 165.365 145.051 162.495 148.581 162.455C159.171 162.335 181.021 162.335 198.901 163.845C201.341 164.055 203.241 166.045 203.331 168.495L205.001 194.465C205.121 197.905 202.411 200.775 198.971 200.835L148.371 201.795C144.991 201.855 142.221 199.135 142.221 195.755L142.211 195.765Z" fill="url(#paint33_linear_13_428)"/>
<path opacity="0.37" d="M171.121 185.335L178.391 186.115C179.411 186.225 180.281 185.385 180.201 184.365L178.611 162.735C175.561 162.635 172.551 162.565 169.651 162.515V183.695C169.651 184.535 170.281 185.235 171.111 185.325L171.121 185.335Z" fill="white"/>
<path d="M174.111 181.585C174.131 181.975 174.451 182.275 174.841 182.275C174.851 182.275 174.871 182.275 174.881 182.275C175.281 182.255 175.591 181.905 175.571 181.505L174.471 162.625C173.981 162.615 173.491 162.605 173.001 162.595L174.101 181.595L174.111 181.585Z" fill="white"/>
<path d="M150.701 159.695V140.825C150.701 138.345 152.691 136.325 155.171 136.305C162.611 136.225 177.951 136.215 190.511 137.275C192.221 137.415 193.561 138.825 193.621 140.545L194.791 158.785C194.881 161.195 192.971 163.215 190.561 163.255L155.031 163.935C152.661 163.985 150.711 162.065 150.711 159.695H150.701Z" fill="url(#paint34_linear_13_428)"/>
<path opacity="0.37" d="M171.011 152.375L176.121 152.925C176.831 153.005 177.441 152.415 177.391 151.695L176.271 136.505C174.131 136.435 172.021 136.385 169.981 136.355V151.235C169.981 151.825 170.421 152.315 171.011 152.375Z" fill="white"/>
<path d="M173.101 149.735C173.121 150.005 173.341 150.215 173.611 150.215C173.621 150.215 173.631 150.215 173.641 150.215C173.921 150.195 174.141 149.955 174.121 149.675L173.351 136.415C173.001 136.415 172.661 136.395 172.321 136.395L173.091 149.735H173.101Z" fill="white"/>
<path d="M141.191 119.625L138.481 116.385C137.751 115.505 137.501 114.325 137.801 113.225C138.551 110.445 138.961 107.625 139.061 104.805C139.101 103.665 139.681 102.605 140.641 101.985L144.191 99.6851C145.691 98.7151 146.401 96.9051 145.971 95.1751L144.691 90.0051C144.261 88.2751 142.781 87.0051 141.001 86.8451L136.791 86.4751C135.651 86.3751 134.641 85.7151 134.071 84.7151C132.661 82.2751 130.971 79.9651 129.011 77.8651C128.231 77.0251 127.901 75.8751 128.131 74.7551L129.011 70.6251C129.381 68.8851 128.611 67.0951 127.081 66.1751L122.521 63.4251C120.991 62.5051 119.051 62.6551 117.681 63.8051L114.441 66.5151C113.561 67.2451 112.381 67.4951 111.281 67.1951C108.501 66.4451 105.681 66.0351 102.861 65.9351C101.721 65.8951 100.661 65.3151 100.041 64.3551L97.7409 60.8051C96.7709 59.3051 94.9609 58.5951 93.2309 59.0251L88.0609 60.3051C86.3309 60.7351 85.0609 62.2151 84.9009 63.9951L84.5309 68.2051C84.4309 69.3451 83.7709 70.3551 82.7709 70.9251C80.3309 72.3351 78.0209 74.0151 75.9209 75.9851C75.0809 76.7651 73.9309 77.0951 72.8109 76.8651L68.6809 75.9851C66.9409 75.6151 65.1509 76.3851 64.2309 77.9151L61.4809 82.4751C60.5609 84.0051 60.7109 85.9451 61.8609 87.3151L64.5709 90.5551C65.3009 91.4351 65.5509 92.6151 65.2509 93.7151C64.5009 96.4951 64.0909 99.3151 63.9909 102.135C63.9509 103.275 63.3709 104.335 62.4109 104.955L58.8609 107.255C57.3609 108.225 56.6509 110.035 57.0809 111.765L58.3609 116.935C58.7909 118.665 60.2709 119.935 62.0509 120.095L66.2609 120.465C67.4009 120.565 68.4109 121.225 68.9809 122.225C70.3909 124.665 72.0709 126.975 74.0409 129.075C74.8209 129.915 75.1509 131.065 74.9209 132.185L74.0409 136.315C73.6709 138.055 74.4409 139.845 75.9709 140.765L80.5309 143.515C82.0609 144.435 84.0009 144.285 85.3709 143.135L88.6109 140.425C89.4909 139.695 90.6709 139.445 91.7709 139.745C94.5509 140.495 97.3709 140.905 100.191 141.005C101.331 141.045 102.391 141.625 103.011 142.585L105.311 146.135C106.281 147.635 108.091 148.345 109.821 147.915L114.991 146.635C116.721 146.205 117.991 144.725 118.151 142.945L118.521 138.735C118.621 137.595 119.281 136.585 120.281 136.015C122.721 134.605 125.031 132.925 127.131 130.955C127.971 130.175 129.121 129.845 130.241 130.075L134.371 130.955C136.111 131.325 137.901 130.555 138.821 129.025L141.571 124.465C142.491 122.935 142.341 120.995 141.191 119.625ZM88.3009 131.485C72.8209 124.185 66.2009 105.715 73.5009 90.2451C80.8009 74.7651 99.2709 68.1451 114.741 75.4451C130.221 82.7451 136.841 101.215 129.541 116.685C122.241 132.165 103.771 138.785 88.3009 131.485Z" fill="#0070BF"/>
<path d="M83.0509 94.865C83.0509 94.865 96.3409 91.535 110.391 93.545C114.341 94.115 117.841 96.415 119.971 99.785C123.811 105.865 129.241 116.705 128.101 128.005L122.071 129.495C122.071 129.495 117.901 116.085 113.211 110.625C113.211 110.625 107.651 123.285 107.941 130.245C107.941 130.445 107.961 130.635 107.981 130.825C108.621 137.625 81.3109 132.095 81.3109 132.095L83.0609 94.875L83.0509 94.865Z" fill="#14243C"/>
<path d="M97.4309 83.5149L94.6009 92.5249C94.3409 93.3649 94.6009 94.2649 95.2609 94.7649C96.7709 95.9349 99.7709 97.7849 103.431 97.7349C104.101 97.7349 104.661 97.1549 104.711 96.4549L105.721 81.3849L97.4409 83.5049L97.4309 83.5149Z" fill="#F4AF9F"/>
<path d="M108.381 73.6351C108.381 73.6351 109.481 80.7351 108.791 84.1251C108.101 87.5151 108.251 89.8751 104.201 89.5351C100.161 89.1951 97.4109 86.4151 96.5209 82.6151C96.5209 82.6151 95.1009 76.7551 96.2809 74.8151C97.4509 72.8751 108.391 73.6351 108.391 73.6351H108.381Z" fill="#F4AF9F"/>
<path d="M98.4709 80.565L98.9609 80.695C98.9609 80.695 98.0309 76.035 99.9909 75.775C101.951 75.515 109.331 75.925 111.501 73.835C113.591 71.825 113.101 68.385 111.381 67.005C111.271 66.915 111.111 66.935 111.021 67.045L110.781 67.305C110.611 67.485 110.311 67.375 110.311 67.125C110.311 66.895 110.031 66.775 109.861 66.925C109.201 67.545 107.631 68.425 104.111 68.165C99.1109 67.795 95.4509 68.895 94.5009 72.175C94.4409 72.385 94.1909 72.435 94.0409 72.285C93.7409 71.975 93.2109 71.725 92.2909 72.165C90.6909 72.925 90.4809 75.925 92.7309 79.025C92.8409 79.175 92.7809 79.385 92.6109 79.445C92.0009 79.645 91.0109 80.245 92.7409 81.855C94.5109 83.495 95.7609 83.695 96.2509 83.695C96.3809 83.695 96.4909 83.605 96.5209 83.475L97.1109 80.505C97.1409 80.355 97.2909 80.255 97.4509 80.295L98.4909 80.565H98.4709Z" fill="#003759"/>
<path d="M98.4309 81.2151C98.4309 81.2151 98.4409 76.8651 96.3209 77.5251C94.2009 78.1851 96.0709 82.3351 97.5009 82.8751L98.4409 81.2151H98.4309Z" fill="url(#paint35_linear_13_428)"/>
<path d="M83.1409 121.975C82.5509 117.815 86.8609 111.705 88.6409 109.385C89.1509 108.725 89.4309 107.915 89.4409 107.075C89.4909 101.185 87.0209 97.4051 83.0609 94.8651C83.0609 94.8651 68.6809 111.615 72.3409 124.505C72.7409 125.895 73.3509 127.095 74.1209 128.115C74.7009 123.265 80.3109 122.205 83.1409 121.975Z" fill="#14243C"/>
<path d="M83.4109 120.365L82.8609 120.305C83.3209 116.225 86.9009 111.195 88.4209 109.215L88.8609 109.555C87.3709 111.495 83.8609 116.425 83.4109 120.365Z" fill="url(#paint36_linear_13_428)"/>
<path d="M83.2509 122.555C83.2009 122.365 83.1609 122.175 83.1409 121.975C80.3109 122.195 74.7009 123.255 74.1209 128.115C80.5409 136.605 98.2209 133.535 98.2209 133.535V130.235C98.2209 130.235 84.6409 127.715 83.2509 122.555Z" fill="#F4AF9F"/>
<path d="M96.5209 132.625C96.5209 132.625 99.1309 126.465 103.731 128.645C108.331 130.835 107.971 132.265 107.971 132.265L96.5209 132.625Z" fill="#F4AF9F"/>
<path d="M95.9409 133.905C95.9809 134.375 96.3709 134.725 96.8409 134.705L120.681 133.875C121.051 133.865 121.371 133.615 121.481 133.265L122.171 131.055C122.341 130.515 121.951 129.955 121.381 129.925L112.681 129.465C112.601 129.465 112.521 129.465 112.441 129.485L96.6009 132.995C96.1709 133.085 95.8809 133.485 95.9209 133.915L95.9409 133.905Z" fill="#003759"/>
<path d="M111.921 133.035L112.581 129.975L121.511 130.405L120.921 132.945L111.921 133.035Z" fill="url(#paint37_linear_13_428)"/>
<path d="M107.341 100.125C106.831 104.255 104.561 121.035 103.911 125.835C103.821 126.505 104.351 127.105 105.031 127.085L143.611 125.985C144.111 125.975 144.551 125.615 144.651 125.125L150.651 98.095C150.811 97.385 150.241 96.715 149.511 96.755L108.361 99.165C107.831 99.195 107.391 99.605 107.331 100.135L107.341 100.125Z" fill="url(#paint38_linear_13_428)"/>
<path d="M122.851 117.075L117.151 133.255L130.411 133.535L131.511 117.165C131.561 116.395 130.921 115.755 130.161 115.815L123.971 116.225C123.461 116.255 123.021 116.595 122.851 117.075Z" fill="url(#paint39_linear_13_428)"/>
<path d="M111.771 133.485C111.621 133.935 111.961 134.385 112.421 134.385H133.181C133.561 134.385 133.871 134.075 133.871 133.695V132.805C133.871 132.415 133.541 132.105 133.151 132.115L112.391 133.005C112.101 133.015 111.851 133.205 111.771 133.475V133.485Z" fill="url(#paint40_linear_13_428)"/>
<path d="M106.761 117.205L106.491 117.175L108.391 102.225C108.511 101.295 109.271 100.585 110.201 100.525L145.761 98.3749L145.781 98.6549L110.221 100.805C109.421 100.855 108.771 101.465 108.661 102.265L106.761 117.215V117.205Z" fill="#3DB2F9"/>
<path d="M105.946 121.423L105.538 124.657L105.816 124.692L106.223 121.458L105.946 121.423Z" fill="#3DB2F9"/>
<path d="M104.601 85.795C100.321 86.115 97.8309 81.685 97.8009 81.645L98.0909 81.485C98.0909 81.485 100.501 85.775 104.581 85.465L104.601 85.795Z" fill="#6900BC"/>
<path d="M106.341 85.6249C106.341 85.8749 106.131 86.0849 105.881 86.0849H104.651C104.401 86.0849 104.191 85.8749 104.191 85.6249C104.191 85.3749 104.401 85.1649 104.651 85.1649H105.881C106.131 85.1649 106.341 85.3749 106.341 85.6249Z" fill="#3840F7"/>
<path d="M98.0909 76.7251C98.0909 76.7251 99.6309 68.8351 104.161 68.0951C104.161 68.0951 102.881 67.4451 101.541 68.1451C100.201 68.8451 96.8209 72.6851 96.9609 76.9151C97.8809 77.2451 98.0909 76.7251 98.0909 76.7251Z" fill="#B971FF"/>
<path d="M97.3109 76.355C94.9509 76.835 95.2409 79.8149 95.2409 79.8149C95.0709 81.9749 95.7009 83.0449 96.5109 83.5549C97.0609 83.9049 97.7609 83.935 98.3409 83.645C98.9209 83.355 99.3109 82.7749 99.3609 82.1249C99.4009 81.5349 99.4509 80.9749 99.5009 80.7749C99.6109 80.2949 99.6709 75.885 97.3109 76.355Z" fill="#B971FF"/>
<path d="M97.5208 77.105C97.0308 77.015 96.5508 77.275 96.3508 77.735C94.9408 80.995 96.6708 83.115 97.5208 83.165C98.4108 83.215 98.4008 78.905 98.2108 77.805C98.1308 77.345 97.8408 77.165 97.5208 77.105Z" fill="#0070BF"/>
<path d="M29.0609 164.765L29.3209 169.605C29.3209 169.605 27.8109 185.815 27.5009 192.995C27.4509 194.125 27.7409 195.235 28.3309 196.195L31.4109 201.195L23.5809 196.575L23.4209 195.615L24.7009 193.855L23.0209 173.755C22.9209 172.575 23.1709 171.395 23.7209 170.345L25.3409 167.305L29.0409 164.765H29.0609Z" fill="#F4AF9F"/>
<path d="M31.9309 201.915H29.4309C28.9609 201.915 28.5209 201.705 28.2409 201.325C27.4609 200.315 25.8509 198.335 25.0809 198.285C24.0409 198.215 24.1709 201.905 24.1709 201.905H23.5909L22.8509 197.315C22.6609 196.165 23.2409 195.015 24.2809 194.475C24.2809 194.475 24.5209 196.235 25.8009 197.005C27.0909 197.785 31.0409 200.565 31.0409 200.565C31.0409 200.565 31.5209 200.495 32.0609 200.595C32.8509 200.735 32.7409 201.905 31.9409 201.905L31.9309 201.915Z" fill="#14243C"/>
<path d="M22.3309 164.765L22.8609 167.875C22.8609 167.875 21.0909 185.815 20.7709 192.995C20.7209 194.125 21.0109 195.235 21.6009 196.195L24.6809 201.195L16.8509 196.575L16.6909 195.615L17.9709 193.855L16.2909 173.755C16.1909 172.575 16.4409 171.395 16.9909 170.345L18.6109 167.305L22.3109 164.765H22.3309Z" fill="#F4AF9F"/>
<path d="M25.2009 201.915H22.7009C22.2309 201.915 21.7909 201.705 21.5109 201.325C20.7309 200.315 19.1209 198.335 18.3509 198.285C17.3109 198.215 17.4409 201.905 17.4409 201.905H16.8609L16.1209 197.315C15.9309 196.165 16.5109 195.015 17.5509 194.475C17.5509 194.475 17.7909 196.235 19.0709 197.005C20.3609 197.785 24.3109 200.565 24.3109 200.565C24.3109 200.565 24.7909 200.495 25.3309 200.595C26.1209 200.735 26.0109 201.905 25.2109 201.905L25.2009 201.915Z" fill="#14243C"/>
<path d="M27.4409 113.375C27.4409 113.375 28.5809 113.375 30.5009 114.605C32.4209 115.845 35.8909 119.335 35.8909 119.335L32.3909 109.635L34.9609 108.975C34.9609 108.975 41.4209 120.705 40.2109 122.755C39.0009 124.815 32.7709 124.245 29.6009 118.855C27.9409 114.905 27.4409 113.365 27.4409 113.365V113.375Z" fill="#F4AF9F"/>
<path d="M13.4509 116.755C13.1609 116.985 18.3109 127.895 18.3209 136.785C18.3209 136.785 23.2609 137.865 27.3809 135.905C27.3809 135.905 31.4109 123.965 31.2709 122.565C31.1009 120.975 27.9009 113.425 27.9009 113.425C27.9009 113.425 20.6809 111.145 13.4509 116.765V116.755Z" fill="url(#paint41_linear_13_428)"/>
<path d="M30.5009 128.385C30.2709 128.005 29.8809 127.755 29.4409 127.695L25.1609 127.135C25.1609 127.135 24.9709 126.655 25.7609 126.085C26.5509 125.525 26.0909 124.585 26.0909 124.585C26.0909 124.585 25.0309 125.445 23.5009 126.765C22.6209 127.525 22.2809 128.545 22.1609 129.275L23.5009 130.335C26.0809 130.435 28.5309 129.955 30.9009 129.035L30.5009 128.375V128.385Z" fill="#F4AF9F"/>
<path d="M13.4509 116.755C13.4509 116.755 5.28087 124.065 8.69087 133.005C12.1009 141.945 24.2009 129.815 24.2009 129.815L23.2809 127.685C23.2809 127.685 15.2009 132.465 13.1809 130.665C11.7009 129.345 14.3109 124.675 15.8109 122.285C16.3609 121.405 16.2909 120.275 15.6409 119.475L13.4409 116.765L13.4509 116.755Z" fill="#F4AF9F"/>
<path d="M31.0009 109.885C31.0009 109.885 30.1109 109.395 29.7709 108.765C29.4309 108.135 28.4909 107.485 28.9309 107.295C29.3709 107.105 29.4209 107.005 29.9909 107.655C30.5609 108.305 33.2309 110.355 31.0009 109.875V109.885Z" fill="url(#paint42_linear_13_428)"/>
<path d="M31.1809 103.485C31.1009 103.375 30.9809 103.305 30.8509 103.295C30.7209 103.285 30.5809 103.335 30.4909 103.425L28.1309 105.805C28.0409 105.895 28.0309 106.045 28.1109 106.145L33.4709 112.805C33.4709 112.805 33.5309 112.855 33.5609 112.855C33.6009 112.855 33.6309 112.855 33.6609 112.825L35.8809 111.005C36.0609 110.855 36.1009 110.595 35.9609 110.395L31.1709 103.485H31.1809Z" fill="url(#paint43_linear_13_428)"/>
<path d="M30.6609 104.395C30.6209 104.335 30.5509 104.295 30.4709 104.285C30.3909 104.285 30.3209 104.305 30.2709 104.365L28.7409 105.975C28.6509 106.065 28.6509 106.215 28.7309 106.315L33.3009 111.985C33.3009 111.985 33.3609 112.035 33.4009 112.035C33.4409 112.035 33.4809 112.025 33.5009 111.995L34.9809 110.635C35.0309 110.585 35.0409 110.505 35.0009 110.455L30.6609 104.405V104.395Z" fill="url(#paint44_linear_13_428)"/>
<path d="M29.5209 104.895C29.5209 104.895 29.5209 104.955 29.4909 104.995L28.9609 105.505C28.9609 105.505 28.8809 105.555 28.8609 105.535L28.8409 105.515C28.8409 105.515 28.8409 105.455 28.8709 105.415L29.4009 104.905C29.4009 104.905 29.4809 104.855 29.5009 104.875L29.5209 104.895Z" fill="url(#paint45_linear_13_428)"/>
<path d="M32.8709 104.615C32.4209 104.715 30.9409 103.935 31.0609 104.425C31.1809 104.915 31.7209 105.345 31.7709 105.545C31.8209 105.755 32.0309 106.955 32.4909 107.275C32.8209 107.505 33.6409 108.345 34.0809 108.795C34.2209 108.945 34.4509 108.975 34.6309 108.855C34.8009 108.745 34.8809 108.525 34.8009 108.335C34.7709 108.255 33.3109 104.515 32.8609 104.605L32.8709 104.615Z" fill="#F4AF9F"/>
<path d="M22.6509 106.855C22.6509 106.855 21.7909 111.325 21.1209 113.295C20.9209 113.875 21.1909 114.505 21.7509 114.765C22.3809 115.055 23.3409 115.255 24.6609 114.935C25.2209 114.795 25.6109 114.295 25.6209 113.725L25.6909 108.845L22.6509 106.855Z" fill="#F4AF9F"/>
<path d="M28.2609 101.915C28.2609 101.915 29.6509 103.705 29.4209 107.045C29.1809 110.375 27.5709 111.075 26.3209 110.595C25.0609 110.105 23.3309 109.105 22.4509 106.375C21.5609 103.635 26.4109 99.675 28.2709 101.925L28.2609 101.915Z" fill="#F4AF9F"/>
<path d="M24.4709 105.645C24.4709 105.645 25.2509 101.015 28.7009 102.885L29.1909 103.895C29.1909 103.895 31.6409 102.455 30.1609 100.285C28.6709 98.1049 25.0909 97.2949 22.6509 99.5849C20.2209 101.875 19.7309 103.955 20.4409 106.095C21.1509 108.245 22.6009 107.075 22.6009 107.075C22.6009 107.075 22.5009 105.385 23.2009 104.905C23.9009 104.425 24.1909 105.645 24.1909 105.645H24.4709Z" fill="#6900BC"/>
<path d="M23.8509 105.865C23.8509 105.865 24.2709 103.485 22.8909 103.755C21.5209 104.025 22.6209 106.015 23.0909 106.725L23.8509 105.865Z" fill="url(#paint46_linear_13_428)"/>
<path d="M21.8809 101.425C22.6109 101.135 22.6809 100.125 22.0209 99.695C19.8909 98.305 16.2309 97.095 12.5509 101.345C8.41087 106.125 6.09087 108.405 4.76087 108.395C3.89087 108.395 3.39087 109.375 3.97087 110.025C4.40087 110.505 5.12087 110.935 6.33087 111.185C15.6209 113.125 17.5809 103.115 21.8809 101.425Z" fill="#6900BC"/>
<path d="M13.8609 144.305C14.2909 140.875 18.3209 136.785 18.3209 136.785C24.7309 137.745 27.7509 135.535 27.7509 135.535C27.7509 135.535 29.1009 140.055 29.1109 143.595C29.1309 147.135 29.8109 169.895 29.8109 169.895C23.5409 172.525 15.6609 171.075 15.6609 171.075C16.1409 162.905 13.4309 147.735 13.8509 144.305H13.8609Z" fill="#14243C"/>
<defs>
<linearGradient id="paint0_linear_13_428" x1="229.201" y1="260.535" x2="50.9708" y2="39.175" gradientUnits="userSpaceOnUse">
<stop stop-color="#E2F4FF"/>
<stop offset="1" stop-color="#D7ECFF"/>
</linearGradient>
<linearGradient id="paint1_linear_13_428" x1="116.151" y1="154.835" x2="145.231" y2="102.975" gradientUnits="userSpaceOnUse">
<stop stop-color="#003759"/>
<stop offset="1" stop-color="#0070BF"/>
</linearGradient>
<linearGradient id="paint2_linear_13_428" x1="103.671" y1="51.675" x2="95.4309" y2="171.885" gradientUnits="userSpaceOnUse">
<stop stop-color="#003759"/>
<stop offset="1" stop-color="#0070BF"/>
</linearGradient>
<linearGradient id="paint3_linear_13_428" x1="8.76086" y1="102.895" x2="190.461" y2="102.895" gradientUnits="userSpaceOnUse">
<stop stop-color="#E2F4FF"/>
<stop offset="1" stop-color="#D7ECFF"/>
</linearGradient>
<linearGradient id="paint4_linear_13_428" x1="8.49089" y1="152.965" x2="191.711" y2="152.965" gradientUnits="userSpaceOnUse">
<stop stop-color="#DAE3FE"/>
<stop offset="1" stop-color="#E9EFFD"/>
</linearGradient>
<linearGradient id="paint5_linear_13_428" x1="107.391" y1="120.115" x2="106.421" y2="142.415" gradientUnits="userSpaceOnUse">
<stop stop-color="#003759"/>
<stop offset="1" stop-color="#0070BF"/>
</linearGradient>
<linearGradient id="paint6_linear_13_428" x1="155.721" y1="80.3849" x2="177.041" y2="80.3849" gradientUnits="userSpaceOnUse">
<stop stop-color="#DAE3FE"/>
<stop offset="1" stop-color="#E9EFFD"/>
</linearGradient>
<linearGradient id="paint7_linear_13_428" x1="163.831" y1="80.455" x2="168.921" y2="80.455" gradientUnits="userSpaceOnUse">
<stop stop-color="#DAE3FE"/>
<stop offset="1" stop-color="#E9EFFD"/>
</linearGradient>
<linearGradient id="paint8_linear_13_428" x1="163.591" y1="80.4549" x2="169.161" y2="80.4549" gradientUnits="userSpaceOnUse">
<stop stop-color="#DAE3FE"/>
<stop offset="1" stop-color="#E9EFFD"/>
</linearGradient>
<linearGradient id="paint9_linear_13_428" x1="159.201" y1="80.4351" x2="173.031" y2="80.4351" gradientUnits="userSpaceOnUse">
<stop stop-color="#DAE3FE"/>
<stop offset="1" stop-color="#E9EFFD"/>
</linearGradient>
<linearGradient id="paint10_linear_13_428" x1="158.961" y1="80.4349" x2="173.271" y2="80.4349" gradientUnits="userSpaceOnUse">
<stop stop-color="#DAE3FE"/>
<stop offset="1" stop-color="#E9EFFD"/>
</linearGradient>
<linearGradient id="paint11_linear_13_428" x1="158.051" y1="76.845" x2="174.661" y2="76.845" gradientUnits="userSpaceOnUse">
<stop stop-color="#DAE3FE"/>
<stop offset="1" stop-color="#E9EFFD"/>
</linearGradient>
<linearGradient id="paint12_linear_13_428" x1="157.811" y1="76.8451" x2="174.901" y2="76.8451" gradientUnits="userSpaceOnUse">
<stop stop-color="#DAE3FE"/>
<stop offset="1" stop-color="#E9EFFD"/>
</linearGradient>
<linearGradient id="paint13_linear_13_428" x1="160.451" y1="73.3551" x2="172.251" y2="73.3551" gradientUnits="userSpaceOnUse">
<stop stop-color="#DAE3FE"/>
<stop offset="1" stop-color="#E9EFFD"/>
</linearGradient>
<linearGradient id="paint14_linear_13_428" x1="160.221" y1="73.3551" x2="172.491" y2="73.3551" gradientUnits="userSpaceOnUse">
<stop stop-color="#DAE3FE"/>
<stop offset="1" stop-color="#E9EFFD"/>
</linearGradient>
<linearGradient id="paint15_linear_13_428" x1="157.331" y1="80.335" x2="175.381" y2="80.335" gradientUnits="userSpaceOnUse">
<stop stop-color="#DAE3FE"/>
<stop offset="1" stop-color="#E9EFFD"/>
</linearGradient>
<linearGradient id="paint16_linear_13_428" x1="157.091" y1="80.3351" x2="175.621" y2="80.3351" gradientUnits="userSpaceOnUse">
<stop stop-color="#DAE3FE"/>
<stop offset="1" stop-color="#E9EFFD"/>
</linearGradient>
<linearGradient id="paint17_linear_13_428" x1="158.051" y1="83.825" x2="174.661" y2="83.825" gradientUnits="userSpaceOnUse">
<stop stop-color="#DAE3FE"/>
<stop offset="1" stop-color="#E9EFFD"/>
</linearGradient>
<linearGradient id="paint18_linear_13_428" x1="157.811" y1="83.825" x2="174.901" y2="83.825" gradientUnits="userSpaceOnUse">
<stop stop-color="#DAE3FE"/>
<stop offset="1" stop-color="#E9EFFD"/>
</linearGradient>
<linearGradient id="paint19_linear_13_428" x1="160.731" y1="87.315" x2="172.581" y2="87.315" gradientUnits="userSpaceOnUse">
<stop stop-color="#DAE3FE"/>
<stop offset="1" stop-color="#E9EFFD"/>
</linearGradient>
<linearGradient id="paint20_linear_13_428" x1="160.491" y1="87.315" x2="172.811" y2="87.315" gradientUnits="userSpaceOnUse">
<stop stop-color="#DAE3FE"/>
<stop offset="1" stop-color="#E9EFFD"/>
</linearGradient>
<linearGradient id="paint21_linear_13_428" x1="119.031" y1="34.215" x2="134.861" y2="34.215" gradientUnits="userSpaceOnUse">
<stop stop-color="#DAE3FE"/>
<stop offset="1" stop-color="#E9EFFD"/>
</linearGradient>
<linearGradient id="paint22_linear_13_428" x1="135.151" y1="35.115" x2="141.751" y2="35.115" gradientUnits="userSpaceOnUse">
<stop stop-color="#DAE3FE"/>
<stop offset="1" stop-color="#E9EFFD"/>
</linearGradient>
<linearGradient id="paint23_linear_13_428" x1="121.051" y1="39.935" x2="123.991" y2="39.935" gradientUnits="userSpaceOnUse">
<stop stop-color="#DAE3FE"/>
<stop offset="1" stop-color="#E9EFFD"/>
</linearGradient>
<linearGradient id="paint24_linear_13_428" x1="136.831" y1="39.935" x2="139.781" y2="39.935" gradientUnits="userSpaceOnUse">
<stop stop-color="#DAE3FE"/>
<stop offset="1" stop-color="#E9EFFD"/>
</linearGradient>
<linearGradient id="paint25_linear_13_428" x1="81.1809" y1="28.835" x2="87.7709" y2="28.835" gradientUnits="userSpaceOnUse">
<stop stop-color="#DAE3FE"/>
<stop offset="1" stop-color="#E9EFFD"/>
</linearGradient>
<linearGradient id="paint26_linear_13_428" x1="70.7309" y1="36.685" x2="95.5309" y2="36.685" gradientUnits="userSpaceOnUse">
<stop stop-color="#DAE3FE"/>
<stop offset="1" stop-color="#E9EFFD"/>
</linearGradient>
<linearGradient id="paint27_linear_13_428" x1="35.8609" y1="79.095" x2="48.7009" y2="79.095" gradientUnits="userSpaceOnUse">
<stop stop-color="#DAE3FE"/>
<stop offset="1" stop-color="#E9EFFD"/>
</linearGradient>
<linearGradient id="paint28_linear_13_428" x1="39.5309" y1="81.2851" x2="40.6609" y2="81.2851" gradientUnits="userSpaceOnUse">
<stop stop-color="#DAE3FE"/>
<stop offset="1" stop-color="#E9EFFD"/>
</linearGradient>
<linearGradient id="paint29_linear_13_428" x1="43.8109" y1="81.2851" x2="44.9309" y2="81.2851" gradientUnits="userSpaceOnUse">
<stop stop-color="#DAE3FE"/>
<stop offset="1" stop-color="#E9EFFD"/>
</linearGradient>
<linearGradient id="paint30_linear_13_428" x1="35.8609" y1="83.025" x2="48.4009" y2="83.025" gradientUnits="userSpaceOnUse">
<stop stop-color="#DAE3FE"/>
<stop offset="1" stop-color="#E9EFFD"/>
</linearGradient>
<linearGradient id="paint31_linear_13_428" x1="35.3309" y1="81.255" x2="49.1309" y2="81.255" gradientUnits="userSpaceOnUse">
<stop stop-color="#DAE3FE"/>
<stop offset="1" stop-color="#E9EFFD"/>
</linearGradient>
<linearGradient id="paint32_linear_13_428" x1="30.0609" y1="79.395" x2="36.7909" y2="79.395" gradientUnits="userSpaceOnUse">
<stop stop-color="#DAE3FE"/>
<stop offset="1" stop-color="#E9EFFD"/>
</linearGradient>
<linearGradient id="paint33_linear_13_428" x1="179.561" y1="153.605" x2="168.901" y2="204.015" gradientUnits="userSpaceOnUse">
<stop offset="0.21" stop-color="#B971FF"/>
<stop offset="1" stop-color="#3DB2F9"/>
</linearGradient>
<linearGradient id="paint34_linear_13_428" x1="173.331" y1="120.435" x2="172.361" y2="168.905" gradientUnits="userSpaceOnUse">
<stop offset="0.35" stop-color="#B971FF"/>
<stop offset="1" stop-color="#3DB2F9"/>
</linearGradient>
<linearGradient id="paint35_linear_13_428" x1="105.984" y1="76.2592" x2="86.9331" y2="84.2301" gradientUnits="userSpaceOnUse">
<stop stop-color="#FEBBBA"/>
<stop offset="1" stop-color="#FF928E"/>
</linearGradient>
<linearGradient id="paint36_linear_13_428" x1="82.7009" y1="103.565" x2="88.9109" y2="125.905" gradientUnits="userSpaceOnUse">
<stop stop-color="#E2F4FF"/>
<stop offset="1" stop-color="#D7ECFF"/>
</linearGradient>
<linearGradient id="paint37_linear_13_428" x1="121.431" y1="125.435" x2="116.011" y2="132.415" gradientUnits="userSpaceOnUse">
<stop stop-color="#003759"/>
<stop offset="1" stop-color="#0070BF"/>
</linearGradient>
<linearGradient id="paint38_linear_13_428" x1="131.901" y1="90.765" x2="122.211" y2="126.625" gradientUnits="userSpaceOnUse">
<stop stop-color="#003759"/>
<stop offset="1" stop-color="#0070BF"/>
</linearGradient>
<linearGradient id="paint39_linear_13_428" x1="122.101" y1="111.435" x2="127.621" y2="145.365" gradientUnits="userSpaceOnUse">
<stop stop-color="#003759"/>
<stop offset="1" stop-color="#0070BF"/>
</linearGradient>
<linearGradient id="paint40_linear_13_428" x1="119.621" y1="131.175" x2="135.891" y2="141.835" gradientUnits="userSpaceOnUse">
<stop stop-color="#003759"/>
<stop offset="1" stop-color="#0070BF"/>
</linearGradient>
<linearGradient id="paint41_linear_13_428" x1="125.191" y1="4.09488" x2="94.6509" y2="39.7249" gradientUnits="userSpaceOnUse">
<stop stop-color="#003759"/>
<stop offset="1" stop-color="#0070BF"/>
</linearGradient>
<linearGradient id="paint42_linear_13_428" x1="30.1239" y1="106.823" x2="29.823" y2="112.856" gradientUnits="userSpaceOnUse">
<stop stop-color="#FEBBBA"/>
<stop offset="1" stop-color="#FF928E"/>
</linearGradient>
<linearGradient id="paint43_linear_13_428" x1="32.0384" y1="102.36" x2="30.9723" y2="123.501" gradientUnits="userSpaceOnUse">
<stop stop-color="#003759"/>
<stop offset="1" stop-color="#0070BF"/>
</linearGradient>
<linearGradient id="paint44_linear_13_428" x1="31.7769" y1="103.533" x2="30.9171" y2="120.561" gradientUnits="userSpaceOnUse">
<stop stop-color="#FF928E"/>
<stop offset="1" stop-color="#FE7062"/>
</linearGradient>
<linearGradient id="paint45_linear_13_428" x1="43.3475" y1="119.355" x2="43.6995" y2="120.157" gradientUnits="userSpaceOnUse">
<stop stop-color="#8D55D1"/>
<stop offset="1" stop-color="#1C2873"/>
</linearGradient>
<linearGradient id="paint46_linear_13_428" x1="29.7859" y1="104.564" x2="17.5496" y2="105.617" gradientUnits="userSpaceOnUse">
<stop stop-color="#FEBBBA"/>
<stop offset="1" stop-color="#FF928E"/>
</linearGradient>
</defs>
</svg>
