<svg width="193" height="142" viewBox="0 0 193 142" fill="none" xmlns="http://www.w3.org/2000/svg">
<path d="M45.9685 26.3899L20.7585 56.8799L45.9685 87.3699H120.909V26.3899H45.9685ZM37.7185 60.6299C35.6485 60.6299 33.9685 58.9499 33.9685 56.8799C33.9685 54.8099 35.6485 53.1299 37.7185 53.1299C39.7885 53.1299 41.4685 54.8099 41.4685 56.8799C41.4685 58.9499 39.7885 60.6299 37.7185 60.6299Z" fill="url(#paint0_linear_18_1995)"/>
<path d="M33.9585 57.5799H9.71851C9.71851 57.5799 9.66851 57.5799 9.63851 57.5799C9.53851 57.5799 0.0385124 56.6299 0.0185124 45.4299C-0.0214876 44.9599 -0.181488 41.5999 2.06851 39.1299C3.60851 37.4299 5.88851 36.5699 8.83851 36.5699H20.4785C21.1985 36.4399 27.1185 35.1899 27.7785 28.8299V11.6299C27.7785 11.1099 28.1985 10.6899 28.7185 10.6899C29.2385 10.6899 29.6585 11.1099 29.6585 11.6299V28.8799C29.6585 28.8799 29.6585 28.9399 29.6585 28.9699C28.8485 37.0999 20.7885 38.4199 20.7085 38.4299C20.6585 38.4299 20.6185 38.4399 20.5685 38.4399H8.84851C6.45851 38.4399 4.64851 39.0899 3.47851 40.3699C1.66851 42.3499 1.89851 45.2599 1.90851 45.2899C1.90851 45.3199 1.90851 45.3499 1.90851 45.3799C1.90851 54.6299 9.12851 55.6199 9.78851 55.6999H33.9885C34.5085 55.6999 34.9285 56.1199 34.9285 56.6399C34.9285 57.1599 34.5085 57.5799 33.9885 57.5799H33.9585Z" fill="#003759"/>
<path d="M33.5885 57.2C33.3985 57.2 33.2185 57.15 33.0485 57.03L25.5485 51.78C25.1285 51.48 25.0185 50.9 25.3185 50.47C25.6185 50.05 26.1985 49.94 26.6285 50.24L34.1285 55.49C34.5485 55.79 34.6585 56.37 34.3585 56.8C34.1785 57.06 33.8885 57.2 33.5885 57.2Z" fill="#003759"/>
<path d="M79.7285 78.3999C91.9506 78.3999 101.859 68.492 101.859 56.2699C101.859 44.0478 91.9506 34.1399 79.7285 34.1399C67.5065 34.1399 57.5985 44.0478 57.5985 56.2699C57.5985 68.492 67.5065 78.3999 79.7285 78.3999Z" fill="#B971FF"/>
<path d="M85.1678 43.876L71.67 67.1328L74.2646 68.6387L87.7625 45.3818L85.1678 43.876Z" fill="white"/>
<path d="M72.2185 56.6399C68.9085 56.6399 66.2185 53.9499 66.2185 50.6399C66.2185 47.3299 68.9085 44.6399 72.2185 44.6399C75.5285 44.6399 78.2185 47.3299 78.2185 50.6399C78.2185 53.9499 75.5285 56.6399 72.2185 56.6399ZM72.2185 47.6399C70.5685 47.6399 69.2185 48.9899 69.2185 50.6399C69.2185 52.2899 70.5685 53.6399 72.2185 53.6399C73.8685 53.6399 75.2185 52.2899 75.2185 50.6399C75.2185 48.9899 73.8685 47.6399 72.2185 47.6399Z" fill="white"/>
<path d="M87.2285 67.8899C83.9185 67.8899 81.2285 65.1999 81.2285 61.8899C81.2285 58.5799 83.9185 55.8899 87.2285 55.8899C90.5385 55.8899 93.2285 58.5799 93.2285 61.8899C93.2285 65.1999 90.5385 67.8899 87.2285 67.8899ZM87.2285 58.8899C85.5785 58.8899 84.2285 60.2399 84.2285 61.8899C84.2285 63.5399 85.5785 64.8899 87.2285 64.8899C88.8785 64.8899 90.2285 63.5399 90.2285 61.8899C90.2285 60.2399 88.8785 58.8899 87.2285 58.8899Z" fill="white"/>
<path d="M105.979 34.88L108.979 24.38L120.239 20.63L109.729 17.63L105.979 5.98999L102.979 16.88L90.1785 20.44L102.229 23.63L105.979 34.88Z" fill="#003759"/>
<path d="M44.4685 100.9L47.4685 90.4L58.7185 86.65L48.2185 83.65L44.4685 72.01L41.4685 82.9L28.6585 86.45L40.7185 89.65L44.4685 100.9Z" fill="#003759"/>
<path d="M92.0485 12.75L93.3685 8.12L98.3385 6.46L93.6985 5.14L92.0485 0L90.7185 4.81L85.0685 6.38L90.3885 7.79L92.0485 12.75Z" fill="#6900BC"/>
<path d="M27.5285 108.78L28.8485 104.14L33.8185 102.49L29.1785 101.16L27.5285 96.03L26.1985 100.83L20.5485 102.4L25.8685 103.81L27.5285 108.78Z" fill="#6900BC"/>
<path d="M64.3285 113.28L65.8085 108.1L71.3585 106.25L66.1785 104.77L64.3285 99.03L62.8485 104.4L56.5285 106.15L62.4785 107.73L64.3285 113.28Z" fill="#3DB2F9"/>
<path d="M69.4585 19.51L70.4685 15.96L74.2685 14.69L70.7285 13.68L69.4585 9.75L68.4485 13.43L64.1285 14.63L68.1885 15.71L69.4585 19.51Z" fill="#3DB2F9"/>
<path d="M187.229 26.8301H149.109C146.038 26.8301 143.549 29.3194 143.549 32.3901V117.38C143.549 120.451 146.038 122.94 149.109 122.94H187.229C190.299 122.94 192.789 120.451 192.789 117.38V32.3901C192.789 29.3194 190.299 26.8301 187.229 26.8301Z" fill="#003759"/>
<path d="M192.789 40.3301H143.549V109.43H192.789V40.3301Z" fill="#6900BC"/>
<path d="M163.009 34.3799H173.339" stroke="white" stroke-width="3" stroke-linecap="round" stroke-linejoin="round"/>
<path d="M150.699 45.8899H112.579C109.508 45.8899 107.019 48.3792 107.019 51.4499V136.44C107.019 139.511 109.508 142 112.579 142H150.699C153.769 142 156.259 139.511 156.259 136.44V51.4499C156.259 48.3792 153.769 45.8899 150.699 45.8899Z" fill="#003759"/>
<path d="M156.259 59.3999H107.019V128.5H156.259V59.3999Z" fill="#0086D1"/>
<path d="M126.479 53.4399H136.799" stroke="white" stroke-width="3" stroke-linecap="round" stroke-linejoin="round"/>
<path d="M132.429 70.52L119.719 85.61H126.869V114.2H137.989V85.61H145.139L132.429 70.52Z" fill="white"/>
<path d="M168.969 95.93L181.679 80.84H174.529V52.25H163.409V80.84H156.259L168.969 95.93Z" fill="white"/>
<defs>
<linearGradient id="paint0_linear_18_1995" x1="20.7585" y1="56.8799" x2="120.909" y2="56.8799" gradientUnits="userSpaceOnUse">
<stop stop-color="#0070BF"/>
<stop offset="1" stop-color="#3DB2F9"/>
</linearGradient>
</defs>
</svg>
