<?xml version="1.0" encoding="utf-8"?>
<!-- Generator: Adobe Illustrator 24.0.3, SVG Export Plug-In . SVG Version: 6.00 Build 0)  -->
<svg version="1.1" id="Layer_1" xmlns="http://www.w3.org/2000/svg" xmlns:xlink="http://www.w3.org/1999/xlink" x="0px" y="0px"
	 viewBox="0 0 512 512" style="enable-background:new 0 0 512 512;" xml:space="preserve">
<style type="text/css">
	.st0{fill:none;stroke:#1C1C1C;stroke-width:10.2843;stroke-linecap:round;stroke-linejoin:round;stroke-miterlimit:10;}
	.st1{fill:#FFFFFF;stroke:#1C1C1C;stroke-width:10.2843;stroke-linecap:round;stroke-linejoin:round;stroke-miterlimit:10;}
	.st2{fill:#FFFFFF;}
	.st3{fill:#E9EFCA;}
	.st4{fill:none;stroke:#A7C148;stroke-width:10.2843;stroke-linecap:round;stroke-linejoin:round;stroke-miterlimit:10;}
	.st5{opacity:0.3;fill:#AFBC66;}
	.st6{fill:#FFFFFF;stroke:#A7C148;stroke-width:10.2843;stroke-linecap:round;stroke-linejoin:round;stroke-miterlimit:10;}
</style>
<g>
	<line class="st0" x1="451.97" y1="393.91" x2="466.38" y2="393.91"/>
	<line class="st0" x1="68" y1="393.91" x2="435.22" y2="393.91"/>
	<line class="st0" x1="46.22" y1="393.91" x2="51.92" y2="393.91"/>
	<g>
		<path class="st1" d="M132.78,228.98c0-15.22,11.11-28.17,26.15-30.49l205.2-31.63c18.69-2.88,35.55,11.58,35.55,30.49v128.18
			c0,17.04-13.81,30.85-30.85,30.85h-205.2c-17.04,0-30.85-13.81-30.85-30.85"/>
		<g>
			
				<rect x="163.68" y="174.97" transform="matrix(0.7217 -0.6922 0.6922 0.7217 -85.6281 250.6609)" class="st2" width="210.45" height="113.69"/>
			
				<rect x="163.68" y="174.97" transform="matrix(0.7217 -0.6922 0.6922 0.7217 -85.6281 250.6609)" class="st2" width="210.45" height="113.69"/>
			<path class="st3" d="M181.54,236.85l-27.92,26.78l26.78,27.92l25.14,26.21l26.78,27.92l27.92-26.78l96.03-92.11l0,0L384.19,200
				l0,0l-26.78-27.92l-25.14-26.21l-26.78-27.92l0,0L181.54,236.85z M350.51,180.98c-6.37,11.28-6.66,25.1-0.76,36.63L251.34,312
				c-11.28-6.37-25.1-6.66-36.63-0.76l-27.41-28.58c6.37-11.28,6.66-25.1,0.76-36.63l98.41-94.39c11.28,6.37,25.1,6.66,36.63,0.76
				L350.51,180.98z"/>
			<line class="st4" x1="289.14" y1="133.64" x2="290.51" y2="132.32"/>
			<polyline class="st4" points="305.49,117.95 384.19,200 232.32,345.68 153.62,263.63 273.83,148.32 			"/>
			<circle class="st3" cx="268.9" cy="231.82" r="30.28"/>
		</g>
		<g>
			
				<rect x="178.08" y="170.86" transform="matrix(0.8906 -0.4548 0.4548 0.8906 -72.5601 153.7386)" class="st2" width="210.45" height="113.69"/>
			
				<rect x="178.08" y="170.86" transform="matrix(0.8906 -0.4548 0.4548 0.8906 -72.5601 153.7386)" class="st2" width="210.45" height="113.69"/>
			<path class="st3" d="M198.19,207.33l-34.46,17.59l17.59,34.46l16.51,32.34l17.59,34.46l34.46-17.59l118.51-60.51l0,0l34.46-17.59
				l0,0l-17.59-34.46l-16.51-32.34l-17.59-34.46l0,0L198.19,207.33z M376.1,202.55c-9.36,8.96-13.62,22.11-11.29,34.85
				l-121.44,62.01c-8.96-9.36-22.11-13.62-34.85-11.29l-18.01-35.27c9.36-8.96,13.62-22.11,11.29-34.85l121.44-62.01
				c8.96,9.36,22.11,13.62,34.85,11.29L376.1,202.55z"/>
			
				<rect x="178.08" y="170.86" transform="matrix(0.8906 -0.4548 0.4548 0.8906 -72.5601 153.7386)" class="st4" width="210.45" height="113.69"/>
			<circle class="st3" cx="283.3" cy="227.7" r="30.28"/>
		</g>
		<path class="st2" d="M389.4,393.91H163.63c-17.04,0-30.85-13.81-30.85-30.85V229.76c0-17.04,13.81-30.85,30.85-30.85H389.4
			c17.04,0,30.85,13.81,30.85,30.85v133.29C420.25,380.09,406.44,393.91,389.4,393.91z"/>
		<line class="st0" x1="132.78" y1="258.87" x2="132.78" y2="257.08"/>
		<path class="st0" d="M375.94,198.91h13.46c17.04,0,30.85,13.81,30.85,30.85v133.29c0,17.04-13.81,30.85-30.85,30.85H163.63
			c-17.04,0-30.85-13.81-30.85-30.85V277.9"/>
		<line class="st0" x1="351.73" y1="198.91" x2="357.98" y2="198.91"/>
		<line class="st0" x1="332.25" y1="198.91" x2="334.03" y2="198.91"/>
		<path class="st0" d="M132.78,237.88v-8.12c0-17.04,13.81-30.85,30.85-30.85h150.52"/>
		<path class="st3" d="M163.63,387.74c-10.21,0-18.51-8.3-18.51-18.51V235.93c0-10.21,8.3-18.51,18.51-18.51H389.4
			c10.21,0,18.51,8.3,18.51,18.51v133.29c0,10.21-8.3,18.51-18.51,18.51H163.63z"/>
		<path class="st5" d="M415.11,338.31v-71.47c-0.85-0.1-1.72-0.17-2.6-0.17h-56.88c-11.91,0-21.6,9.69-21.6,21.6v28.63
			c0,11.91,9.69,21.6,21.6,21.6h56.88C413.39,338.49,414.26,338.42,415.11,338.31z"/>
		<path class="st2" d="M412.51,327.17h-56.88c-9.09,0-16.45-7.37-16.45-16.45v-28.62c0-9.09,7.37-16.45,16.45-16.45h28.56h13.06
			h2.01h13.25c9.09,0,16.45,7.37,16.45,16.45v28.62C428.97,319.81,421.6,327.17,412.51,327.17z"/>
		<line class="st0" x1="394.22" y1="265.64" x2="394.85" y2="265.64"/>
		<path class="st0" d="M412.51,265.64c9.09,0,16.45,7.37,16.45,16.45v28.62c0,9.09-7.37,16.45-16.45,16.45h-56.88
			c-9.09,0-16.45-7.37-16.45-16.45v-28.62c0-9.09,7.37-16.45,16.45-16.45h20.19"/>
		<circle class="st5" cx="373.7" cy="301.27" r="16.19"/>
		<circle class="st6" cx="373.7" cy="297.16" r="11.04"/>
	</g>
	<g>
		<rect x="101.28" y="369.33" class="st1" width="91.34" height="24.57"/>
		<rect x="101.28" y="344.83" class="st1" width="91.34" height="24.57"/>
		<rect x="82.76" y="320.25" class="st1" width="91.34" height="24.57"/>
		<rect x="106.42" y="349.97" class="st5" width="72.72" height="6.17"/>
		
			<rect x="186.32" y="334.8" transform="matrix(0.3931 0.9195 -0.9195 0.3931 459.9193 -2.6736)" class="st2" width="91.34" height="24.57"/>
		<polyline class="st4" points="245.83,348.21 261.24,384.25 238.64,393.91 202.73,309.92 225.33,300.26 231.99,315.83 		"/>
		<line class="st4" x1="238.75" y1="331.66" x2="239.13" y2="332.54"/>
		<rect x="101.28" y="295.68" class="st2" width="91.34" height="24.57"/>
		<polyline class="st0" points="178.12,295.68 192.61,295.68 192.61,320.25 101.28,320.25 101.28,295.68 160.83,295.68 		"/>
		<rect x="96.24" y="325.4" class="st5" width="72.72" height="6.17"/>
		<rect x="106.42" y="374.47" class="st5" width="81.05" height="6.24"/>
	</g>
</g>
</svg>
