<?xml version="1.0" encoding="utf-8"?>
<!-- Generator: Adobe Illustrator 24.0.3, SVG Export Plug-In . SVG Version: 6.00 Build 0)  -->
<svg version="1.1" id="Layer_1" xmlns="http://www.w3.org/2000/svg" xmlns:xlink="http://www.w3.org/1999/xlink" x="0px" y="0px"
	 viewBox="0 0 512 512" style="enable-background:new 0 0 512 512;" xml:space="preserve">
<style type="text/css">
	.st0{fill:#FFFFFF;}
	.st1{fill:none;stroke:#1C1C1C;stroke-width:10.2843;stroke-linecap:round;stroke-linejoin:round;stroke-miterlimit:10;}
	.st2{fill:#E9EFCA;}
	.st3{fill:#FFFFFF;stroke:#A7C148;stroke-width:10.2843;stroke-linecap:round;stroke-linejoin:round;stroke-miterlimit:10;}
	.st4{fill:#FFFFFF;stroke:#1C1C1C;stroke-width:10.2843;stroke-linecap:round;stroke-linejoin:round;stroke-miterlimit:10;}
	.st5{fill:none;stroke:#A7C148;stroke-width:10.2843;stroke-linecap:round;stroke-linejoin:round;stroke-miterlimit:10;}
</style>
<g>
	<g>
		<rect x="83.42" y="368.3" class="st0" width="304.22" height="19.67"/>
		<path class="st0" d="M289.47,368.3h77.49V201.96c0-10.01-8.12-18.13-18.13-18.13H119.27c-10.01,0-18.13,8.12-18.13,18.13V368.3
			h33.21"/>
		<polyline class="st1" points="153.1,368.3 83.42,368.3 83.42,387.97 387.64,387.97 387.64,368.3 185.27,368.3 		"/>
		<line class="st1" x1="170.69" y1="368.3" x2="169.19" y2="368.3"/>
		<line class="st1" x1="234.05" y1="183.82" x2="227.48" y2="183.82"/>
		<path class="st1" d="M333.08,368.3h33.88V201.96c0-10.01-8.12-18.13-18.13-18.13h-95.79"/>
		<path class="st1" d="M191.32,183.82h-72.06c-10.01,0-18.13,8.12-18.13,18.13V368.3h20.47"/>
		<line class="st1" x1="209.35" y1="183.82" x2="209.73" y2="183.82"/>
		<path class="st2" d="M113.48,362.13v-154c0-3.19,2.6-5.79,5.79-5.79h229.56c3.19,0,5.79,2.6,5.79,5.79v154H113.48z"/>
		<rect x="137.2" y="247.88" class="st3" width="30.82" height="94.12"/>
		<rect x="192.73" y="273.26" class="st3" width="30.82" height="68.75"/>
		<rect x="248.27" y="222.46" class="st3" width="30.82" height="119.55"/>
		<rect x="301.74" y="292.35" class="st3" width="30.82" height="49.65"/>
	</g>
	<g>
		<path class="st0" d="M429.19,270.69h-87.56v100.82c0,9.09,7.37,16.45,16.45,16.45h54.65c9.09,0,16.45-7.37,16.45-16.45V270.69z"/>
		<path class="st1" d="M353.06,270.69h-11.43v100.82c0,9.09,7.37,16.45,16.45,16.45h54.65c9.09,0,16.45-7.37,16.45-16.45V270.69
			h-55.45"/>
		<path class="st4" d="M325.06,353.24c-1.13,0-2.06-0.92-2.06-2.06v-38.12c0-1.13,0.92-2.06,2.06-2.06h16.57v-14.4h-16.57
			c-9.09,0-16.45,7.37-16.45,16.45v38.12c0,9.09,7.37,16.45,16.45,16.45h16.57v-14.4H325.06z"/>
		<path class="st5" d="M393.5,125.23c0.7-0.86,1.1-1.33,1.1-1.33"/>
		<path class="st5" d="M380.93,143.46c1.06-1.86,2.16-3.65,3.26-5.36"/>
		<path class="st5" d="M366.91,249.57c0,0,43.78-13.1,43.78-31.87s-37.97-35.05-37.53-52.15c0.05-2,0.38-4.09,0.93-6.24"/>
	</g>
	<g>
		<line class="st1" x1="451.97" y1="387.97" x2="466.38" y2="387.97"/>
		<line class="st1" x1="68" y1="387.97" x2="435.22" y2="387.97"/>
		<line class="st1" x1="46.22" y1="387.97" x2="51.92" y2="387.97"/>
	</g>
</g>
</svg>
