<?xml version="1.0" encoding="utf-8"?>
<!-- Generator: Adobe Illustrator 24.0.3, SVG Export Plug-In . SVG Version: 6.00 Build 0)  -->
<svg version="1.1" id="Layer_1" xmlns="http://www.w3.org/2000/svg" xmlns:xlink="http://www.w3.org/1999/xlink" x="0px" y="0px"
	 viewBox="0 0 512 512" style="enable-background:new 0 0 512 512;" xml:space="preserve">
<style type="text/css">
	.st0{fill:none;stroke:#1C1C1C;stroke-width:10.2843;stroke-linecap:round;stroke-linejoin:round;stroke-miterlimit:10;}
	.st1{fill:#FFFFFF;}
	.st2{fill:#FFFFFF;stroke:#A7C148;stroke-width:10.2843;stroke-linecap:round;stroke-linejoin:round;stroke-miterlimit:10;}
	.st3{fill:none;stroke:#A7C148;stroke-width:10.2843;stroke-linecap:round;stroke-linejoin:round;stroke-miterlimit:10;}
	.st4{fill:#E9EFCA;}
	.st5{fill:#FFFFFF;stroke:#1C1C1C;stroke-width:10.2843;stroke-linecap:round;stroke-linejoin:round;stroke-miterlimit:10;}
</style>
<g>
	<g>
		<line class="st0" x1="451.97" y1="393.47" x2="466.38" y2="393.47"/>
		<line class="st0" x1="68" y1="393.47" x2="435.22" y2="393.47"/>
		<line class="st0" x1="46.22" y1="393.47" x2="51.92" y2="393.47"/>
	</g>
	<g>
		<path class="st1" d="M353.09,393.47H128.67V273.92h224.43c9.09,0,16.45,7.37,16.45,16.45v86.64
			C369.55,386.1,362.18,393.47,353.09,393.47z"/>
		<path class="st0" d="M276.81,273.92h76.28c9.09,0,16.45,7.37,16.45,16.45v86.64c0,9.09-7.37,16.45-16.45,16.45H128.67V273.92h81.4
			"/>
		<path class="st1" d="M338.69,393.47H114.27V273.92h224.43c9.09,0,16.45,7.37,16.45,16.45v86.64
			C355.15,386.1,347.78,393.47,338.69,393.47z"/>
		<line class="st0" x1="251.16" y1="273.92" x2="253.4" y2="273.92"/>
		<line class="st0" x1="228.6" y1="273.92" x2="234.71" y2="273.92"/>
		<path class="st0" d="M271.04,273.92h67.65c9.09,0,16.45,7.37,16.45,16.45v86.64c0,9.09-7.37,16.45-16.45,16.45H114.27V273.92
			h99.59"/>
		<path class="st2" d="M114.27,393.47v-61.71h35.71c17.01,0,30.85,13.84,30.85,30.85c0,17.01-13.84,30.85-30.85,30.85H114.27z"/>
		<g>
			<path class="st3" d="M180.83,362.62c0,17.04-13.81,30.85-30.85,30.85"/>
			<path class="st1" d="M149.98,242.25H85.3v89.52h64.67c17.04,0,30.85,13.81,30.85,30.85V273.1
				C180.83,256.06,167.02,242.25,149.98,242.25z"/>
			<path class="st3" d="M107.09,242.25H85.3v89.52h64.67c17.04,0,30.85,13.81,30.85,30.85V273.1c0-17.04-13.81-30.85-30.85-30.85"/>
			<line class="st3" x1="130.55" y1="242.25" x2="126.61" y2="242.25"/>
		</g>
		<path class="st4" d="M126.61,387.3v-37.02h23.37c10.21,0,18.51,8.3,18.51,18.51s-8.3,18.51-18.51,18.51H126.61z"/>
		<line class="st0" x1="324.9" y1="307.02" x2="208.31" y2="307.02"/>
		<line class="st0" x1="324.9" y1="333.76" x2="208.31" y2="333.76"/>
		<line class="st0" x1="324.9" y1="360.5" x2="290.58" y2="360.5"/>
	</g>
	<g>
		<polyline class="st3" points="398.34,140.8 384.93,135.2 354.9,207.14 		"/>
		<path class="st1" d="M421.4,118.39L421.4,118.39c-6.45-2.69-13.86,0.35-16.55,6.81l-6.51,15.6l23.36,9.75l6.51-15.6
			C430.9,128.49,427.85,121.08,421.4,118.39z"/>
		<path class="st0" d="M404.85,125.19l-6.51,15.6l23.36,9.75l6.51-15.6c2.69-6.45-0.35-13.86-6.81-16.55l0,0"/>
		
			<rect x="385.68" y="143.33" transform="matrix(0.9229 0.3852 -0.3852 0.9229 97.6188 -140.0199)" class="st5" width="25.31" height="60.68"/>
		
			<rect x="352.55" y="197.37" transform="matrix(0.9229 0.3852 -0.3852 0.9229 125.6311 -121.1399)" class="st1" width="25.31" height="111.32"/>
		<line class="st0" x1="366.35" y1="217.43" x2="366.73" y2="216.54"/>
		<polyline class="st0" points="372.5,202.7 374.97,196.79 398.33,206.54 355.45,309.28 332.09,299.53 360.24,232.08 		"/>
		<polygon class="st5" points="328.79,340.31 332.09,299.53 355.45,309.28 		"/>
		<line class="st0" x1="326.2" y1="346.52" x2="328.79" y2="340.31"/>
	</g>
</g>
</svg>
