<?xml version="1.0" encoding="utf-8"?>
<!-- Generator: Adobe Illustrator 24.0.3, SVG Export Plug-In . SVG Version: 6.00 Build 0)  -->
<svg version="1.1" id="Layer_1" xmlns="http://www.w3.org/2000/svg" xmlns:xlink="http://www.w3.org/1999/xlink" x="0px" y="0px"
	 viewBox="0 0 512 512" style="enable-background:new 0 0 512 512;" xml:space="preserve">
<style type="text/css">
	.st0{fill:#FFFFFF;}
	.st1{fill:none;stroke:#1C1C1C;stroke-width:10.2843;stroke-linecap:round;stroke-linejoin:round;stroke-miterlimit:10;}
	.st2{fill:#E9EFCA;}
	.st3{fill:none;stroke:#A7C148;stroke-width:10.2843;stroke-linecap:round;stroke-linejoin:round;stroke-miterlimit:10;}
</style>
<g>
	<g>
		<path class="st0" d="M279.49,123.5H99.87c-9.09,0-16.45,7.37-16.45,16.45V371.9c0,9.09,7.37,16.45,16.45,16.45h179.62
			c9.09,0,16.45-7.37,16.45-16.45V139.96C295.95,130.87,288.58,123.5,279.49,123.5z"/>
		<path class="st1" d="M83.42,264.96V371.9c0,9.09,7.37,16.45,16.45,16.45h179.62c9.09,0,16.45-7.37,16.45-16.45V139.96
			c0-9.09-7.37-16.45-16.45-16.45h-31.68"/>
		<line class="st1" x1="83.42" y1="245.98" x2="83.42" y2="247.5"/>
		<path class="st1" d="M179.92,123.5H99.87c-9.09,0-16.45,7.37-16.45,16.45v89.49"/>
		<line class="st1" x1="210.47" y1="123.5" x2="197.91" y2="123.5"/>
		<line class="st1" x1="229.77" y1="123.5" x2="228.72" y2="123.5"/>
		
			<rect x="73.71" y="166.12" transform="matrix(-1.836970e-16 1 -1 -1.836970e-16 445.6128 66.2493)" class="st0" width="231.94" height="179.62"/>
		<polyline class="st1" points="154.33,139.96 279.49,139.96 279.49,371.9 99.87,371.9 99.87,139.96 137.93,139.96 		"/>
		
			<rect x="86.05" y="184.63" transform="matrix(-1.836970e-16 1 -1 -1.836970e-16 451.784 72.4206)" class="st2" width="207.26" height="154.94"/>
		<g>
			<rect x="137.93" y="255.48" class="st0" width="103.51" height="55.92"/>
			<path class="st2" d="M156.96,255.48h-19.03v19.03v17.86v19.03h19.03h65.45v0h19.03v0v-19.03v-17.86v-19.03v0H156.96z
				 M235.96,293.18c-6.1,1.83-10.91,6.64-12.74,12.74h-67.07c-1.83-6.1-6.64-10.91-12.74-12.74V273.7
				c6.1-1.83,10.91-6.64,12.74-12.74h67.07c1.83,6.1,6.64,10.91,12.74,12.74V293.18z"/>
			<rect x="137.93" y="255.48" class="st3" width="103.51" height="55.92"/>
			<circle class="st2" cx="189.68" cy="283.44" r="14.89"/>
		</g>
		<line class="st1" x1="189.68" y1="235.08" x2="189.68" y2="196.56"/>
		<line class="st1" x1="206.47" y1="213.76" x2="189.68" y2="196.56"/>
		<line class="st1" x1="172.89" y1="213.76" x2="189.68" y2="196.56"/>
		<line class="st1" x1="156.81" y1="159.58" x2="222.55" y2="159.58"/>
	</g>
	<g>
		<g>
			<path class="st0" d="M282.75,206.42h64.42c9.09,0,16.45,7.37,16.45,16.45V371.9c0,9.09-7.37,16.45-16.45,16.45h-64.42
				c-9.09,0-16.45-7.37-16.45-16.45V222.88C266.29,213.79,273.66,206.42,282.75,206.42z"/>
			<line class="st1" x1="327.89" y1="206.42" x2="329.57" y2="206.42"/>
			<path class="st1" d="M347.17,206.42c9.09,0,16.45,7.37,16.45,16.45V371.9c0,9.09-7.37,16.45-16.45,16.45h-64.42
				c-9.09,0-16.45-7.37-16.45-16.45V222.88c0-9.09,7.37-16.45,16.45-16.45h27.22"/>
			<line class="st1" x1="296.43" y1="225.12" x2="333.48" y2="225.12"/>
		</g>
		<polygon class="st0" points="429.19,319.47 345.43,319.47 327.56,340.04 327.56,319.47 327.56,262.9 429.19,262.9 		"/>
		<line class="st3" x1="399.42" y1="262.9" x2="401.43" y2="262.9"/>
		<polyline class="st3" points="417.23,262.9 429.19,262.9 429.19,319.47 345.43,319.47 327.56,340.04 327.56,319.47 327.56,262.9 
			381.57,262.9 		"/>
		<line class="st1" x1="357.47" y1="277.69" x2="357.47" y2="303.86"/>
		<line class="st1" x1="368.39" y1="292.68" x2="357.47" y2="303.86"/>
		<line class="st1" x1="346.55" y1="292.68" x2="357.47" y2="303.86"/>
		<line class="st1" x1="384.68" y1="281.73" x2="412.83" y2="281.73"/>
		<line class="st1" x1="384.68" y1="300.24" x2="412.83" y2="300.24"/>
	</g>
	<g>
		<line class="st1" x1="451.97" y1="388.36" x2="466.38" y2="388.36"/>
		<line class="st1" x1="68" y1="388.36" x2="435.22" y2="388.36"/>
		<line class="st1" x1="46.22" y1="388.36" x2="51.92" y2="388.36"/>
	</g>
</g>
</svg>
