<?xml version="1.0" encoding="utf-8"?>
<!-- Generator: Adobe Illustrator 24.0.3, SVG Export Plug-In . SVG Version: 6.00 Build 0)  -->
<svg version="1.1" id="Layer_1" xmlns="http://www.w3.org/2000/svg" xmlns:xlink="http://www.w3.org/1999/xlink" x="0px" y="0px"
	 viewBox="0 0 512 512" style="enable-background:new 0 0 512 512;" xml:space="preserve">
<style type="text/css">
	.st0{fill:#FFFFFF;}
	.st1{fill:none;stroke:#1C1C1C;stroke-width:10.2843;stroke-linecap:round;stroke-linejoin:round;stroke-miterlimit:10;}
	.st2{fill:#E9EFCA;}
	.st3{opacity:0.3;fill:#AFBC66;}
	.st4{fill:#FFFFFF;stroke:#1C1C1C;stroke-width:10.2843;stroke-linecap:round;stroke-linejoin:round;stroke-miterlimit:10;}
	.st5{fill:#FFFFFF;stroke:#A7C148;stroke-width:10.2843;stroke-linecap:round;stroke-linejoin:round;stroke-miterlimit:10;}
	.st6{fill:none;stroke:#A7C148;stroke-width:10.2843;stroke-linecap:round;stroke-linejoin:round;stroke-miterlimit:10;}
</style>
<g>
	<g>
		<path class="st0" d="M293.86,383.98H114.27c-9.09,0-16.45-7.37-16.45-16.45V129.86c0-9.09,7.37-16.45,16.45-16.45h179.59
			c9.09,0,16.45,7.37,16.45,16.45v237.67C310.31,376.62,302.95,383.98,293.86,383.98z"/>
		<line class="st1" x1="244.46" y1="113.41" x2="246.08" y2="113.41"/>
		<line class="st1" x1="218.33" y1="113.41" x2="227.04" y2="113.41"/>
		<path class="st1" d="M264.9,113.41h28.96c9.09,0,16.45,7.37,16.45,16.45l0,252.14c0,9.09-7.37,16.45-16.45,16.45H114.27
			c-9.09,0-16.45-7.37-16.45-16.45l0-252.14c0-9.09,7.37-16.45,16.45-16.45h85.97"/>
		<path class="st2" d="M114.27,377.81c-2.27,0-4.11-1.85-4.11-4.11V136.03c0-2.27,1.84-4.11,4.11-4.11h179.59
			c2.27,0,4.11,1.85,4.11,4.11V373.7c0,2.27-1.84,4.11-4.11,4.11H114.27z"/>
		<g>
			<path class="st0" d="M248.14,127.81H99.87c-9.09,0-16.45,7.37-16.45,16.45v237.67c0,9.09,7.37,16.45,16.45,16.45h179.59
				c9.09,0,16.45-7.37,16.45-16.45V175.58L248.14,127.81z"/>
			<path class="st1" d="M146.58,127.81H99.87c-9.09,0-16.45,7.37-16.45,16.45v237.67c0,9.09,7.37,16.45,16.45,16.45h179.59
				c9.09,0,16.45-7.37,16.45-16.45V175.58l-47.78-47.78h-65.9"/>
			<line class="st1" x1="164.5" y1="127.81" x2="164.1" y2="127.81"/>
			<path class="st3" d="M243.11,132.95c-0.07,0.34-0.12,0.68-0.12,1.03v31.32c0,11.91,9.69,21.6,21.6,21.6h26.18v-9.18l-44.76-44.76
				H243.11z"/>
			<path class="st4" d="M248.14,159.13c0,9.09,7.37,16.45,16.45,16.45h31.32l-47.78-47.78V159.13z"/>
		</g>
		<line class="st1" x1="115.38" y1="183.81" x2="189.67" y2="183.81"/>
		<line class="st1" x1="115.38" y1="220.83" x2="261.66" y2="220.83"/>
		<line class="st1" x1="115.38" y1="257.86" x2="261.66" y2="257.86"/>
		<line class="st1" x1="115.38" y1="294.88" x2="261.66" y2="294.88"/>
		<circle class="st5" cx="140.68" cy="348.26" r="25.3"/>
	</g>
	<g>
		<polyline class="st6" points="387.68,138.05 372.67,128.54 321.64,209.03 		"/>
		<path class="st0" d="M420.1,115.82L420.1,115.82c-7.22-4.58-16.78-2.44-21.35,4.78l-11.07,17.45l26.13,16.57l11.07-17.46
			C429.46,129.95,427.32,120.39,420.1,115.82z"/>
		<path class="st1" d="M398.75,120.6l-11.07,17.45l26.13,16.57l11.07-17.46c4.58-7.22,2.44-16.78-4.78-21.35l0,0"/>
		
			<rect x="365.41" y="140.57" transform="matrix(0.8445 0.5355 -0.5355 0.8445 154.3572 -176.3464)" class="st4" width="30.95" height="74.18"/>
		
			<rect x="309.11" y="198.4" transform="matrix(0.8445 0.5355 -0.5355 0.8445 193.1521 -132.3913)" class="st0" width="30.95" height="136.09"/>
		<line class="st1" x1="333.98" y1="222.74" x2="334.58" y2="221.79"/>
		<polyline class="st1" points="342.86,208.72 347.95,200.7 374.09,217.27 301.21,332.2 275.07,315.63 325.6,235.94 		"/>
		<polygon class="st4" points="262.67,364.08 275.07,315.63 301.21,332.2 		"/>
		<line class="st1" x1="258.26" y1="371.03" x2="262.67" y2="364.08"/>
	</g>
	<g>
		<line class="st1" x1="451.97" y1="398.38" x2="466.38" y2="398.38"/>
		<line class="st1" x1="68" y1="398.38" x2="435.22" y2="398.38"/>
		<line class="st1" x1="46.22" y1="398.38" x2="51.92" y2="398.38"/>
	</g>
</g>
</svg>
