<?xml version="1.0" encoding="utf-8"?>
<!-- Generator: Adobe Illustrator 24.0.3, SVG Export Plug-In . SVG Version: 6.00 Build 0)  -->
<svg version="1.1" id="Layer_1" xmlns="http://www.w3.org/2000/svg" xmlns:xlink="http://www.w3.org/1999/xlink" x="0px" y="0px"
	 viewBox="0 0 512 512" style="enable-background:new 0 0 512 512;" xml:space="preserve">
<style type="text/css">
	.st0{fill:#FFFFFF;}
	.st1{fill:none;stroke:#1C1C1C;stroke-width:10.2843;stroke-linecap:round;stroke-linejoin:round;stroke-miterlimit:10;}
	.st2{fill:#FFFFFF;stroke:#1C1C1C;stroke-width:10.2843;stroke-linecap:round;stroke-linejoin:round;stroke-miterlimit:10;}
	.st3{fill:none;stroke:#A7C148;stroke-width:10.2843;stroke-linecap:round;stroke-linejoin:round;stroke-miterlimit:10;}
	.st4{opacity:0.3;fill:#AFBC66;}
</style>
<g>
	<g>
		<g>
			<path class="st0" d="M199.39,227.09h-45.41c-6.5,0-12.25,4.18-14.26,10.36l-9,27.7c-3.15,9.69,4.07,19.63,14.26,19.63h63.41
				c10.19,0,17.41-9.94,14.26-19.63l-9-27.7C211.64,231.27,205.89,227.09,199.39,227.09z"/>
			<path class="st1" d="M132.62,259.29l-1.9,5.85c-3.15,9.69,4.07,19.63,14.26,19.63h63.41c10.19,0,17.41-9.94,14.26-19.63l-9-27.7
				c-2.01-6.18-7.76-10.36-14.26-10.36h-45.41c-3.04,0-5.93,0.92-8.34,2.53"/>
			<line class="st1" x1="137.85" y1="243.22" x2="137.32" y2="244.83"/>
			<path class="st2" d="M293.1,227.09h-45.41c-6.5,0-12.25,4.18-14.26,10.36l-9,27.7c-3.15,9.69,4.07,19.63,14.26,19.63h63.41
				c10.19,0,17.41-9.94,14.26-19.63l-9-27.7C305.35,231.27,299.59,227.09,293.1,227.09z"/>
			<path class="st0" d="M246.1,169.4h-45.41c-6.5,0-12.25,4.18-14.26,10.36l-9,27.7c-3.15,9.69,4.07,19.63,14.26,19.63h63.41
				c10.19,0,17.41-9.94,14.26-19.63l-9-27.7C258.35,173.58,252.59,169.4,246.1,169.4z"/>
			<line class="st3" x1="235.3" y1="169.4" x2="235.35" y2="169.4"/>
			<path class="st3" d="M216.76,169.4h-16.08c-6.5,0-12.25,4.18-14.26,10.36l-9,27.7c-3.15,9.69,4.07,19.63,14.26,19.63h63.41
				c10.19,0,17.41-9.94,14.26-19.63l-9-27.7c-1.27-3.92-4.06-7.04-7.59-8.8"/>
			<path class="st4" d="M238.58,238.4h16.52c5.58,0,10.72-2.23,14.49-6.17h-21.9C243.64,232.23,240.08,234.69,238.58,238.4z"/>
			<path class="st4" d="M177.2,232.23c3.77,3.94,8.91,6.17,14.49,6.17h16.81c-1.5-3.71-5.06-6.17-9.1-6.17H177.2z"/>
		</g>
		<g>
			<path class="st0" d="M152.83,284.77h-45.41c-6.5,0-12.25,4.18-14.26,10.36l-9,27.7c-3.15,9.69,4.07,19.63,14.26,19.63h63.41
				c10.19,0,17.41-9.94,14.26-19.63l-9-27.7C165.08,288.96,159.32,284.77,152.83,284.77z"/>
			<path class="st1" d="M87.78,311.69l-3.62,11.14c-3.15,9.69,4.07,19.63,14.26,19.63h63.41c10.19,0,17.41-9.94,14.26-19.63l-9-27.7
				c-2.01-6.18-7.76-10.36-14.26-10.36h-45.41c-6.5,0-12.25,4.18-14.26,10.36"/>
			<path class="st2" d="M246.53,284.77h-45.41c-6.5,0-12.25,4.18-14.26,10.36l-9,27.7c-3.15,9.69,4.07,19.63,14.26,19.63h63.41
				c10.19,0,17.41-9.94,14.26-19.63l-9-27.7C258.78,288.96,253.03,284.77,246.53,284.77z"/>
			<path class="st4" d="M192.02,296.09h16.37c5.58,0,10.72-2.23,14.49-6.17h-21.75C197.07,289.92,193.52,292.38,192.02,296.09z"/>
			<path class="st2" d="M340.24,284.77h-45.41c-6.5,0-12.25,4.18-14.26,10.36l-9,27.7c-3.15,9.69,4.07,19.63,14.26,19.63h63.41
				c10.19,0,17.41-9.94,14.26-19.63l-9-27.7C352.49,288.96,346.73,284.77,340.24,284.77z"/>
			<path class="st4" d="M130.49,289.92c3.77,3.94,8.91,6.17,14.49,6.17h16.95c-1.5-3.71-5.05-6.17-9.1-6.17H130.49z"/>
		</g>
		<path class="st4" d="M224.2,289.92c3.77,3.94,8.91,6.17,14.49,6.17h16.95c-1.5-3.71-5.05-6.17-9.1-6.17H224.2z"/>
		<path class="st4" d="M285.72,296.09h16.37c5.58,0,10.72-2.23,14.49-6.17h-21.75C290.78,289.92,287.22,292.38,285.72,296.09z"/>
	</g>
	<g>
		<path class="st0" d="M382.14,183.86L382.14,183.86c-20.39,0-36.92,16.53-36.92,36.92v53.97h73.85v-53.97
			C419.06,200.39,402.53,183.86,382.14,183.86z M400.18,255.88H364.1v-35.09c0-9.95,8.09-18.04,18.04-18.04s18.04,8.09,18.04,18.04
			V255.88z"/>
		<path class="st1" d="M382.14,183.86L382.14,183.86c-20.39,0-36.92,16.53-36.92,36.92v53.97h73.85v-53.97
			c0-4.7-0.88-9.19-2.48-13.33 M404.52,191.42c-0.49-0.37-0.99-0.74-1.5-1.08 M400.18,255.88H364.1v-35.09
			c0-9.95,8.09-18.04,18.04-18.04s18.04,8.09,18.04,18.04V255.88z"/>
		<path class="st2" d="M411.68,252.86H352.6c-9.67,0-17.51,7.84-17.51,17.51v54.58c0,9.67,7.84,17.51,17.51,17.51h59.08
			c9.67,0,17.51-7.84,17.51-17.51v-54.58C429.19,260.7,421.35,252.86,411.68,252.86z"/>
		<path class="st0" d="M394.54,287.55c0-6.85-5.55-12.4-12.4-12.4s-12.4,5.55-12.4,12.4c0,3.73,1.65,7.07,4.26,9.34v14.19
			c0,4.5,3.64,8.14,8.14,8.14h0c4.5,0,8.14-3.64,8.14-8.14v-14.19C392.89,294.62,394.54,291.28,394.54,287.55z"/>
		<path class="st3" d="M369.74,287.55c0,3.73,1.65,7.07,4.26,9.34v14.19c0,4.5,3.64,8.14,8.14,8.14h0c4.5,0,8.14-3.64,8.14-8.14
			v-14.19c2.61-2.27,4.26-5.61,4.26-9.34c0-6.85-5.55-12.4-12.4-12.4"/>
	</g>
	<g>
		<line class="st1" x1="451.97" y1="342.46" x2="466.38" y2="342.46"/>
		<line class="st1" x1="68" y1="342.46" x2="435.22" y2="342.46"/>
		<line class="st1" x1="46.22" y1="342.46" x2="51.92" y2="342.46"/>
	</g>
</g>
</svg>
