<?xml version="1.0" encoding="utf-8"?>
<!-- Generator: Adobe Illustrator 24.0.3, SVG Export Plug-In . SVG Version: 6.00 Build 0)  -->
<svg version="1.1" id="Layer_1" xmlns="http://www.w3.org/2000/svg" xmlns:xlink="http://www.w3.org/1999/xlink" x="0px" y="0px"
	 viewBox="0 0 512 512" style="enable-background:new 0 0 512 512;" xml:space="preserve">
<style type="text/css">
	.st0{fill:#FFFFFF;stroke:#1C1C1C;stroke-width:10.2843;stroke-linecap:round;stroke-linejoin:round;stroke-miterlimit:10;}
	.st1{fill:none;stroke:#1C1C1C;stroke-width:10.2843;stroke-linecap:round;stroke-linejoin:round;stroke-miterlimit:10;}
	.st2{fill:#FFFFFF;stroke:#A7C148;stroke-width:10.2843;stroke-linecap:round;stroke-linejoin:round;stroke-miterlimit:10;}
	.st3{fill:#FFFFFF;}
	.st4{fill:none;stroke:#A7C148;stroke-width:10.2843;stroke-linecap:round;stroke-linejoin:round;stroke-miterlimit:10;}
</style>
<g>
	<g>
		<path class="st0" d="M315.78,359.57H99.87c-9.09,0-16.45-7.37-16.45-16.45v-36.18c0-9.09,7.37-16.45,16.45-16.45h215.91
			c9.09,0,16.45,7.37,16.45,16.45v36.18C332.24,352.2,324.87,359.57,315.78,359.57z"/>
		<line class="st1" x1="113.34" y1="313.33" x2="113.34" y2="335.66"/>
		<line class="st1" x1="133.91" y1="313.33" x2="133.91" y2="335.66"/>
		<line class="st1" x1="154.48" y1="313.33" x2="154.48" y2="335.66"/>
		<circle class="st2" cx="254.6" cy="324.5" r="9.76"/>
		<circle class="st2" cx="295.73" cy="324.5" r="9.76"/>
		<path class="st3" d="M315.78,290.48H99.87c-9.09,0-16.45-7.37-16.45-16.45v-36.18c0-9.09,7.37-16.45,16.45-16.45h215.91
			c9.09,0,16.45,7.37,16.45,16.45v36.18C332.24,283.11,324.87,290.48,315.78,290.48z"/>
		<path class="st1" d="M83.42,245.65v-7.81c0-9.09,7.37-16.45,16.45-16.45h215.91c9.09,0,16.45,7.37,16.45,16.45v36.18
			c0,9.09-7.37,16.45-16.45,16.45H99.87c-9.09,0-16.45-7.37-16.45-16.45v-11.08"/>
		<line class="st1" x1="113.34" y1="244.24" x2="113.34" y2="266.57"/>
		<line class="st1" x1="133.91" y1="244.24" x2="133.91" y2="266.57"/>
		<line class="st1" x1="154.48" y1="244.24" x2="154.48" y2="266.57"/>
		<circle class="st2" cx="254.6" cy="255.41" r="9.76"/>
		<circle class="st2" cx="295.73" cy="255.41" r="9.76"/>
		<path class="st3" d="M315.78,221.39H99.87c-9.09,0-16.45-7.37-16.45-16.45v-36.18c0-9.09,7.37-16.45,16.45-16.45h215.91
			c9.09,0,16.45,7.37,16.45,16.45v36.18C332.24,214.02,324.87,221.39,315.78,221.39z"/>
		<line class="st1" x1="217.07" y1="152.29" x2="219.93" y2="152.29"/>
		<line class="st1" x1="183.93" y1="152.29" x2="198.67" y2="152.29"/>
		<path class="st1" d="M239.76,152.29h76.02c9.09,0,16.45,7.37,16.45,16.45v36.18c0,9.09-7.37,16.45-16.45,16.45H99.87
			c-9.09,0-16.45-7.37-16.45-16.45v-36.18c0-9.09,7.37-16.45,16.45-16.45h64.76"/>
		<line class="st1" x1="113.34" y1="175.15" x2="113.34" y2="197.48"/>
		<line class="st1" x1="133.91" y1="175.15" x2="133.91" y2="197.48"/>
		<line class="st1" x1="154.48" y1="175.15" x2="154.48" y2="197.48"/>
		<circle class="st1" cx="254.6" cy="186.31" r="9.76"/>
		<circle class="st1" cx="295.73" cy="186.31" r="9.76"/>
	</g>
	<g>
		<path class="st3" d="M370.85,162.9L370.85,162.9c-25.29,0-45.79,20.5-45.79,45.79v66.93h91.57v-66.93
			C416.63,183.4,396.13,162.9,370.85,162.9z M393.22,252.21h-44.74v-43.52c0-12.34,10.04-22.37,22.37-22.37
			c12.34,0,22.37,10.04,22.37,22.37V252.21z"/>
		<path class="st1" d="M388.12,166.27c-5.33-2.17-11.16-3.37-17.27-3.37h0c-25.29,0-45.79,20.5-45.79,45.79v66.93h91.57v-66.93
			c0-6.27-1.26-12.24-3.54-17.68 M404.06,177.18c-0.43-0.46-0.87-0.9-1.32-1.34 M393.22,252.21h-44.74v-43.52
			c0-12.34,10.04-22.37,22.37-22.37c12.34,0,22.37,10.04,22.37,22.37V252.21z"/>
		<path class="st0" d="M407.48,248.46h-73.27c-11.99,0-21.71,9.72-21.71,21.71v67.68c0,11.99,9.72,21.71,21.71,21.71h73.27
			c11.99,0,21.71-9.72,21.71-21.71v-67.68C429.19,258.18,419.47,248.46,407.48,248.46z"/>
		<path class="st3" d="M386.23,291.48c0-8.49-6.89-15.38-15.38-15.38c-8.49,0-15.38,6.89-15.38,15.38c0,4.63,2.05,8.76,5.28,11.58
			v17.6c0,5.58,4.52,10.09,10.09,10.09h0c5.57,0,10.09-4.52,10.09-10.09v-17.6C384.17,300.25,386.23,296.11,386.23,291.48z"/>
		<path class="st4" d="M355.47,291.48c0,4.63,2.05,8.76,5.28,11.58v17.6c0,5.58,4.52,10.09,10.09,10.09h0
			c5.57,0,10.09-4.52,10.09-10.09v-17.6c3.23-2.82,5.28-6.96,5.28-11.58c0-8.49-6.89-15.38-15.38-15.38c-1.53,0-3.02,0.22-4.41,0.64
			"/>
	</g>
	<g>
		<line class="st1" x1="451.97" y1="359.57" x2="466.38" y2="359.57"/>
		<line class="st1" x1="68" y1="359.57" x2="435.22" y2="359.57"/>
		<line class="st1" x1="46.22" y1="359.57" x2="51.92" y2="359.57"/>
	</g>
</g>
</svg>
