<?xml version="1.0" encoding="utf-8"?>
<!-- Generator: Adobe Illustrator 24.0.3, SVG Export Plug-In . SVG Version: 6.00 Build 0)  -->
<svg version="1.1" id="Layer_1" xmlns="http://www.w3.org/2000/svg" xmlns:xlink="http://www.w3.org/1999/xlink" x="0px" y="0px"
	 viewBox="0 0 512 512" style="enable-background:new 0 0 512 512;" xml:space="preserve">
<style type="text/css">
	.st0{fill:none;stroke:#1C1C1C;stroke-width:10.2843;stroke-linecap:round;stroke-linejoin:round;stroke-miterlimit:10;}
	.st1{fill:#E9EFCA;stroke:#1C1C1C;stroke-width:10.2843;stroke-linecap:round;stroke-linejoin:round;stroke-miterlimit:10;}
	.st2{fill:#FFFFFF;}
	.st3{fill:#E9EFCA;}
	.st4{opacity:0.3;fill:#AFBC66;}
	.st5{opacity:0.3;}
	.st6{fill:#AFBC66;}
	.st7{fill:none;stroke:#A7C148;stroke-width:10.2843;stroke-linecap:round;stroke-linejoin:round;stroke-miterlimit:10;}
	.st8{fill:#FFFFFF;stroke:#A7C148;stroke-width:10.2843;stroke-linecap:round;stroke-linejoin:round;stroke-miterlimit:10;}
	.st9{fill:#FFFFFF;stroke:#1C1C1C;stroke-width:10.2843;stroke-linecap:round;stroke-linejoin:round;stroke-miterlimit:10;}
</style>
<g>
	<g>
		<line class="st0" x1="451.97" y1="384.8" x2="466.38" y2="384.8"/>
		<line class="st0" x1="68" y1="384.8" x2="435.22" y2="384.8"/>
		<line class="st0" x1="46.22" y1="384.8" x2="51.92" y2="384.8"/>
	</g>
	<g>
		<path class="st1" d="M256.66,384.8h-143c-17.04,0-30.85-13.81-30.85-30.85v-20.83h204.7v20.83
			C287.51,370.99,273.7,384.8,256.66,384.8z"/>
		<path class="st2" d="M256.66,368.34h-143c-17.04,0-30.85-13.81-30.85-30.85V193.25h204.7v144.24
			C287.51,354.53,273.7,368.34,256.66,368.34z"/>
		<line class="st0" x1="82.81" y1="257.28" x2="82.81" y2="256.89"/>
		<path class="st0" d="M82.81,239.39v-46.14h204.7v144.24c0,17.04-13.81,30.85-30.85,30.85h-143c-17.04,0-30.85-13.81-30.85-30.85
			v-62.2"/>
		<path class="st3" d="M113.66,362.17c-10.21,0-18.51-8.3-18.51-18.51v-131.9h180.02v131.9c0,10.21-8.3,18.51-18.51,18.51H113.66z"
			/>
		<rect x="87.95" y="198.4" class="st4" width="194.42" height="6.17"/>
		<path class="st2" d="M287.51,193.25H82.81v-17.2c0-17.04,13.81-30.85,30.85-30.85h143c17.04,0,30.85,13.81,30.85,30.85V193.25z"/>
		<line class="st0" x1="176.49" y1="145.2" x2="176.45" y2="145.2"/>
		<path class="st0" d="M219.09,145.2h37.57c17.04,0,30.85,13.81,30.85,30.85v17.2H82.81v-17.2c0-17.04,13.81-30.85,30.85-30.85
			h43.74"/>
		<line class="st0" x1="194.08" y1="145.2" x2="200.4" y2="145.2"/>
		<g class="st5">
			<path class="st6" d="M242.75,128.09c-8.93,0-16.2,7.27-16.2,16.2v18c0,8.93,7.27,16.2,16.2,16.2s16.2-7.27,16.2-16.2v-18
				C258.95,135.36,251.68,128.09,242.75,128.09z"/>
			<path class="st6" d="M111.37,150.78v11.5c0,8.93,7.27,16.2,16.2,16.2s16.2-7.27,16.2-16.2v-11.5H111.37z"/>
		</g>
		<g>
			<path class="st2" d="M127.57,167.17L127.57,167.17c-6.11,0-11.06-4.95-11.06-11.06v-18c0-6.11,4.95-11.06,11.06-11.06h0
				c6.11,0,11.06,4.95,11.06,11.06v18C138.62,162.22,133.67,167.17,127.57,167.17z"/>
			<path class="st7" d="M138.62,145.02v11.09c0,6.11-4.95,11.06-11.06,11.06h0c-6.11,0-11.06-4.95-11.06-11.06v-18
				c0-6.11,4.95-11.06,11.06-11.06h0c2.62,0,5.03,0.91,6.92,2.44"/>
			<path class="st8" d="M242.75,167.17L242.75,167.17c-6.11,0-11.06-4.95-11.06-11.06v-18c0-6.11,4.95-11.06,11.06-11.06h0
				c6.11,0,11.06,4.95,11.06,11.06v18C253.81,162.22,248.86,167.17,242.75,167.17z"/>
		</g>
		<rect x="132.15" y="239.39" class="st2" width="41.39" height="30.09"/>
		<polyline class="st7" points="153.25,239.39 132.15,239.39 132.15,269.48 173.54,269.48 173.54,239.39 170.64,239.39 		"/>
		<rect x="198.53" y="301.04" class="st8" width="41.39" height="30.09"/>
	</g>
	<g>
		<g>
			<g>
				<g>
					<line class="st0" x1="394.27" y1="232.1" x2="385.05" y2="244.16"/>
					<path class="st2" d="M415.56,204.25c-15.23-11.64-37.02-8.73-48.66,6.5l55.15,42.16C433.7,237.68,430.79,215.89,415.56,204.25z
						"/>
					<path class="st0" d="M377.18,201.72c-3.88,2.23-7.39,5.25-10.28,9.02l55.15,42.16c11.64-15.23,8.73-37.02-6.5-48.66
						c-1.73-1.33-3.55-2.46-5.43-3.41"/>
					<path class="st0" d="M393.84,197.12c-0.54,0.01-1.07,0.03-1.6,0.07"/>
				</g>
			</g>
			<g>
				<g>
					<line class="st0" x1="284.67" y1="232.1" x2="293.89" y2="244.16"/>
					<path class="st9" d="M263.38,204.25c15.23-11.64,37.02-8.73,48.66,6.5l-55.15,42.16C245.24,237.68,248.15,215.89,263.38,204.25
						z"/>
				</g>
			</g>
		</g>
		<g>
			<path class="st9" d="M390.52,384.71L390.52,384.71c-4.02,0.61-7.77-2.15-8.38-6.16l-2.96-19.46l14.54-2.21l2.96,19.46
				C397.3,380.35,394.54,384.1,390.52,384.71z"/>
			<path class="st9" d="M288.42,384.71L288.42,384.71c4.02,0.61,7.77-2.15,8.38-6.16l2.96-19.46l-14.54-2.21l-2.96,19.46
				C281.64,380.35,284.4,384.1,288.42,384.71z"/>
		</g>
		<circle class="st2" cx="339.47" cy="303.46" r="74.13"/>
		<path class="st0" d="M337.61,229.35c0.62-0.02,1.24-0.02,1.86-0.02"/>
		<path class="st0" d="M357.99,231.66c31.98,8.23,55.6,37.25,55.6,71.8c0,40.94-33.19,74.13-74.13,74.13s-74.13-33.19-74.13-74.13
			c0-34.16,23.11-62.93,54.55-71.52"/>
		<path class="st3" d="M339.47,371.42c-34.07,0-61.79-27.72-61.79-61.79s27.72-61.79,61.79-61.79s61.79,27.72,61.79,61.79
			S373.54,371.42,339.47,371.42z"/>
		<line class="st0" x1="330.42" y1="297.19" x2="301.58" y2="276.61"/>
		<line class="st0" x1="348.65" y1="297.38" x2="382.69" y2="266.47"/>
		<circle class="st4" cx="339.47" cy="309.63" r="16.16"/>
		<circle class="st8" cx="339.47" cy="303.46" r="11.02"/>
	</g>
</g>
</svg>
