<?xml version="1.0" encoding="utf-8"?>
<!-- Generator: Adobe Illustrator 24.0.3, SVG Export Plug-In . SVG Version: 6.00 Build 0)  -->
<svg version="1.1" id="Layer_1" xmlns="http://www.w3.org/2000/svg" xmlns:xlink="http://www.w3.org/1999/xlink" x="0px" y="0px"
	 viewBox="0 0 512 512" style="enable-background:new 0 0 512 512;" xml:space="preserve">
<style type="text/css">
	.st0{fill:none;stroke:#1C1C1C;stroke-width:10.2843;stroke-linecap:round;stroke-linejoin:round;stroke-miterlimit:10;}
	.st1{fill:#FFFFFF;}
	.st2{fill:#FFFFFF;stroke:#1C1C1C;stroke-width:10.2843;stroke-linecap:round;stroke-linejoin:round;stroke-miterlimit:10;}
	.st3{fill:#E9EFCA;}
	.st4{fill:#FFFFFF;stroke:#A7C148;stroke-width:10.2843;stroke-linecap:round;stroke-linejoin:round;stroke-miterlimit:10;}
	.st5{opacity:0.3;fill:#AFBC66;}
	.st6{fill:none;stroke:#A7C148;stroke-width:10.2843;stroke-linecap:round;stroke-linejoin:round;stroke-miterlimit:10;}
</style>
<g>
	<g>
		<line class="st0" x1="451.97" y1="358.3" x2="466.38" y2="358.3"/>
		<line class="st0" x1="68" y1="358.3" x2="435.22" y2="358.3"/>
		<line class="st0" x1="46.22" y1="358.3" x2="51.92" y2="358.3"/>
	</g>
	<g>
		<g>
			<path class="st1" d="M340.59,296.78L148.56,322c-9.01,1.18-17.27-5.16-18.46-14.17L115.6,197.38
				c-1.18-9.01,5.16-17.27,14.17-18.46L321.8,153.7c9.01-1.18,17.27,5.16,18.46,14.17l14.51,110.45
				C355.95,287.34,349.6,295.6,340.59,296.78z"/>
			<line class="st0" x1="258.33" y1="162.04" x2="260.48" y2="161.75"/>
			<line class="st0" x1="227.84" y1="166.04" x2="239.79" y2="164.47"/>
			<path class="st0" d="M277.6,159.51l44.2-5.8c9.01-1.18,17.27,5.16,18.46,14.17l14.51,110.45c1.18,9.01-5.16,17.27-14.17,18.46
				L148.56,322c-9.01,1.18-17.27-5.16-18.46-14.17L115.6,197.38c-1.18-9.01,5.16-17.27,14.17-18.46l79.59-10.45"/>
			
				<rect x="118.32" y="194.03" transform="matrix(0.9915 -0.1302 0.1302 0.9915 -25.4645 31.9543)" class="st2" width="226.59" height="33.35"/>
			
				<rect x="228.09" y="115.87" transform="matrix(0.1302 0.9915 -0.9915 0.1302 417.1275 -41.8571)" class="st3" width="8.66" height="201.9"/>
			
				<rect x="151.55" y="254.99" transform="matrix(0.9915 -0.1302 0.1302 0.9915 -33.1778 28.0638)" class="st4" width="92.92" height="25.49"/>
		</g>
		<g>
			<path class="st1" d="M293.55,358.3H99.87c-9.09,0-16.45-7.37-16.45-16.45v-111.4c0-9.09,7.37-16.45,16.45-16.45h193.68
				c9.09,0,16.45,7.37,16.45,16.45v111.4C310,350.94,302.64,358.3,293.55,358.3z"/>
			<line class="st0" x1="208.95" y1="213.99" x2="211.8" y2="213.99"/>
			<path class="st0" d="M83.42,253.32v-22.87c0-9.09,7.37-16.45,16.45-16.45h89.64"/>
			<path class="st0" d="M231.18,213.99h62.37c9.09,0,16.45,7.37,16.45,16.45v111.4c0,9.09-7.37,16.45-16.45,16.45H99.87
				c-9.09,0-16.45-7.37-16.45-16.45v-69.5"/>
			<rect x="110.31" y="242.09" class="st4" width="45.57" height="30.05"/>
			<g>
				<line class="st0" x1="110.93" y1="298.19" x2="140.57" y2="298.19"/>
				<line class="st0" x1="158.24" y1="298.19" x2="187.88" y2="298.19"/>
				<line class="st0" x1="205.54" y1="298.19" x2="235.18" y2="298.19"/>
				<line class="st0" x1="252.85" y1="298.19" x2="282.49" y2="298.19"/>
			</g>
			<line class="st0" x1="110.31" y1="327.52" x2="176.33" y2="327.52"/>
			<circle class="st0" cx="252.23" cy="328.33" r="10.39"/>
			<circle class="st4" cx="272.8" cy="328.33" r="10.39"/>
		</g>
		<g>
			<rect x="287.74" y="333.73" class="st2" width="91.34" height="24.57"/>
			<rect x="287.74" y="309.22" class="st2" width="91.34" height="24.57"/>
			<rect x="269.23" y="284.65" class="st2" width="91.34" height="24.57"/>
			<rect x="292.88" y="314.37" class="st5" width="72.72" height="6.17"/>
			
				<rect x="363.59" y="298.92" transform="matrix(0.1713 0.9852 -0.9852 0.1713 645.7336 -145.3267)" class="st1" width="91.34" height="24.57"/>
			<polyline class="st6" points="419.86,300.44 429.19,354.09 404.98,358.3 389.33,268.31 413.54,264.1 416.59,281.66 			"/>
			<rect x="287.74" y="260.08" class="st1" width="91.34" height="24.57"/>
			<polyline class="st0" points="346.08,260.08 379.08,260.08 379.08,284.65 287.74,284.65 287.74,260.08 328.78,260.08 			"/>
			<rect x="282.7" y="289.79" class="st5" width="72.72" height="6.17"/>
			<rect x="292.88" y="338.87" class="st5" width="81.05" height="6.24"/>
		</g>
	</g>
</g>
</svg>
