<?xml version="1.0" encoding="utf-8"?>
<!-- Generator: Adobe Illustrator 24.0.3, SVG Export Plug-In . SVG Version: 6.00 Build 0)  -->
<svg version="1.1" id="Layer_1" xmlns="http://www.w3.org/2000/svg" xmlns:xlink="http://www.w3.org/1999/xlink" x="0px" y="0px"
	 viewBox="0 0 512 512" style="enable-background:new 0 0 512 512;" xml:space="preserve">
<style type="text/css">
	.st0{fill:#FFFFFF;}
	.st1{fill:none;stroke:#1C1C1C;stroke-width:10.2843;stroke-linecap:round;stroke-linejoin:round;stroke-miterlimit:10;}
	.st2{fill:#E9EFCA;}
	.st3{fill:#FFFFFF;stroke:#A7C148;stroke-width:10.2843;stroke-linecap:round;stroke-linejoin:round;stroke-miterlimit:10;}
	.st4{fill:#FFFFFF;stroke:#1C1C1C;stroke-width:10.2843;stroke-linecap:round;stroke-linejoin:round;stroke-miterlimit:10;}
</style>
<g>
	<g>
		<path class="st0" d="M303.27,384.39H99.87c-9.09,0-16.45-7.37-16.45-16.45V138.84c0-9.09,7.37-16.45,16.45-16.45H261
			c9.09,0,16.45,7.37,16.45,16.45v45.25h25.82c9.09,0,16.45,7.37,16.45,16.45v167.38C319.73,377.02,312.36,384.39,303.27,384.39z"/>
		<path class="st1" d="M319.73,240.19v127.74c0,9.09-7.37,16.45-16.45,16.45H99.87c-9.09,0-16.45-7.37-16.45-16.45V138.84
			c0-9.09,7.37-16.45,16.45-16.45h23.75"/>
		<path class="st1" d="M193.34,122.39H261c9.09,0,16.45,7.37,16.45,16.45v45.25h25.82c9.09,0,16.45,7.37,16.45,16.45v19.14"/>
		<line class="st1" x1="165.52" y1="122.39" x2="173.82" y2="122.39"/>
		<line class="st1" x1="143.28" y1="122.39" x2="145.24" y2="122.39"/>
		<path class="st2" d="M303.27,202.61h-25.82v175.61h25.82c2.27,0,4.11-1.85,4.11-4.11V206.72
			C307.39,204.45,305.54,202.61,303.27,202.61z"/>
		<line class="st1" x1="277.46" y1="242.61" x2="277.46" y2="348.83"/>
		<line class="st1" x1="277.46" y1="184.09" x2="277.46" y2="215.57"/>
		<rect x="110.93" y="153.34" class="st3" width="55.78" height="53.48"/>
		<rect x="110.93" y="287.04" class="st3" width="138.58" height="55.78"/>
		<line class="st1" x1="194.11" y1="153.34" x2="249.06" y2="153.34"/>
		<line class="st1" x1="194.11" y1="180.08" x2="249.06" y2="180.08"/>
		<line class="st1" x1="194.11" y1="206.82" x2="249.06" y2="206.82"/>
		<line class="st1" x1="110.93" y1="233.56" x2="249.06" y2="233.56"/>
		<line class="st1" x1="110.93" y1="260.3" x2="249.06" y2="260.3"/>
	</g>
	<g>
		
			<rect x="316.05" y="321.53" transform="matrix(0.3423 -0.9396 0.9396 0.3423 -98.2671 531.3029)" class="st4" width="28.63" height="28.63"/>
		<circle class="st0" cx="244.78" cy="304.67" r="79.7"/>
		<path class="st1" d="M290.43,239.31c0.67,0.47,1.34,0.95,2,1.44"/>
		<path class="st1" d="M306.21,253.87c17.39,21.07,23.48,50.54,13.45,78.07c-15.07,41.36-60.8,62.67-102.16,47.61
			s-62.67-60.8-47.61-102.16c15.07-41.36,60.8-62.67,102.16-47.61"/>
		<path class="st3" d="M220.68,252.96c13.23-6.17,28.82-7.29,43.62-1.89c29.6,10.78,44.86,43.52,34.08,73.13
			s-43.52,44.86-73.13,34.08s-44.86-43.52-34.08-73.13c2.65-7.27,6.62-13.67,11.54-19.03"/>
		<path class="st2" d="M244.77,355.56c-5.2,0-10.35-0.91-15.3-2.72c-11.22-4.09-20.18-12.3-25.22-23.12
			c-5.04-10.82-5.57-22.96-1.48-34.19c6.41-17.6,23.29-29.42,42.01-29.42c5.2,0,10.35,0.91,15.3,2.72
			c23.16,8.44,35.14,34.15,26.71,57.31C280.37,343.74,263.49,355.56,244.77,355.56z"/>
		<path class="st0" d="M350.52,322.32l-13.42,36.83l65.33,23.8c10.17,3.7,21.42-1.54,25.12-11.71v0
			c3.7-10.17-1.54-21.42-11.71-25.12L350.52,322.32z"/>
		<path class="st1" d="M372.64,330.38l-22.12-8.06l-13.42,36.83l65.33,23.8c10.17,3.7,21.42-1.54,25.12-11.71v0
			c3.7-10.17-1.54-21.42-11.71-25.12l-9.91-3.61"/>
		<line class="st1" x1="390.47" y1="336.88" x2="389.05" y2="336.36"/>
	</g>
	<g>
		<line class="st1" x1="451.97" y1="384.39" x2="466.38" y2="384.39"/>
		<line class="st1" x1="68" y1="384.39" x2="435.22" y2="384.39"/>
		<line class="st1" x1="46.22" y1="384.39" x2="51.92" y2="384.39"/>
	</g>
</g>
</svg>
