<?xml version="1.0" encoding="utf-8"?>
<!-- Generator: Adobe Illustrator 24.0.3, SVG Export Plug-In . SVG Version: 6.00 Build 0)  -->
<svg version="1.1" id="Layer_1" xmlns="http://www.w3.org/2000/svg" xmlns:xlink="http://www.w3.org/1999/xlink" x="0px" y="0px"
	 viewBox="0 0 512 512" style="enable-background:new 0 0 512 512;" xml:space="preserve">
<style type="text/css">
	.st0{fill:none;stroke:#1C1C1C;stroke-width:10.2843;stroke-linecap:round;stroke-linejoin:round;stroke-miterlimit:10;}
	.st1{fill:#FFFFFF;}
	.st2{opacity:0.3;fill:#AFBC66;}
	.st3{fill:#E9EFCA;}
	.st4{fill:none;stroke:#A7C148;stroke-width:10.2843;stroke-linecap:round;stroke-linejoin:round;stroke-miterlimit:10;}
	.st5{fill:#FFFFFF;stroke:#A7C148;stroke-width:10.2843;stroke-linecap:round;stroke-linejoin:round;stroke-miterlimit:10;}
	.st6{fill:#FFFFFF;stroke:#1C1C1C;stroke-width:10.2843;stroke-linecap:round;stroke-linejoin:round;stroke-miterlimit:10;}
</style>
<g>
	<g>
		<line class="st0" x1="451.97" y1="388.3" x2="466.38" y2="388.3"/>
		<line class="st0" x1="68" y1="388.3" x2="435.22" y2="388.3"/>
		<line class="st0" x1="46.22" y1="388.3" x2="51.92" y2="388.3"/>
	</g>
	<g>
		<path class="st1" d="M424.79,244.28H166.56v126.91c0,9.09,7.37,16.45,16.45,16.45h225.31c9.09,0,16.45-7.37,16.45-16.45V244.28z"
			/>
		<line class="st0" x1="424.79" y1="328.17" x2="424.79" y2="326.2"/>
		<path class="st0" d="M424.79,304.31v-60.04H166.56v126.91c0,9.09,7.37,16.45,16.45,16.45h225.31c9.09,0,16.45-7.37,16.45-16.45
			v-20.86"/>
		<path class="st2" d="M171.71,284.63c38,20.66,80.56,31.55,123.97,31.55c43.41,0,85.97-10.89,123.97-31.55v-35.22H171.71V284.63z"
			/>
		<path class="st1" d="M412.73,185.38H178.62c-9.09,0-16.45,7.37-16.45,16.45v65.2l0,0c81.86,50.44,185.16,50.44,267.02,0l0,0v-65.2
			C429.19,192.75,421.82,185.38,412.73,185.38z"/>
		<line class="st0" x1="387.05" y1="185.38" x2="385.53" y2="185.38"/>
		<path class="st0" d="M364.98,185.38H178.62c-9.09,0-16.45,7.37-16.45,16.45v65.2l0,0c81.86,50.44,185.16,50.44,267.02,0l0,0v-65.2
			c0-9.09-7.37-16.45-16.45-16.45h-6.65"/>
		<path class="st3" d="M295.68,298.7c-42.61,0-84.35-11.22-121.17-32.5v-58.2c0-2.27,1.85-4.11,4.11-4.11h234.12
			c2.27,0,4.11,1.84,4.11,4.11v58.2C380.03,287.49,338.29,298.7,295.68,298.7z"/>
		<rect x="273.95" y="270.36" class="st1" width="43.45" height="17.42"/>
		<polyline class="st4" points="300.12,270.36 317.4,270.36 317.4,287.78 273.95,287.78 273.95,270.36 281.44,270.36 		"/>
		<path class="st2" d="M314.05,288.81H277.3c-2.84,0-5.14,2.3-5.14,5.14v33.06c0,2.84,2.3,5.14,5.14,5.14h36.75
			c2.84,0,5.14-2.3,5.14-5.14v-33.06C319.2,291.11,316.89,288.81,314.05,288.81z"/>
		<rect x="277.3" y="287.78" class="st5" width="36.75" height="33.06"/>
		<path class="st1" d="M325.93,149.17h-60.5c-9.09,0-16.45,7.37-16.45,16.45v19.77h16.45v-19.77h60.5v19.77h16.45v-19.77
			C342.38,156.54,335.02,149.17,325.93,149.17z"/>
		<path class="st0" d="M304.05,149.17h-38.62c-9.09,0-16.45,7.37-16.45,16.45v19.77h16.45v-19.77h60.5v19.77h16.45v-19.77
			c0-9.09-7.37-16.45-16.45-16.45"/>
	</g>
	<g>
		<path class="st1" d="M204.22,270.36h-87.56v100.82c0,9.09,7.37,16.45,16.45,16.45h54.65c9.09,0,16.45-7.37,16.45-16.45V270.36z"/>
		<path class="st0" d="M128.09,270.36h-11.43v100.82c0,9.09,7.37,16.45,16.45,16.45h54.65c9.09,0,16.45-7.37,16.45-16.45V270.36
			h-55.45"/>
		<path class="st6" d="M100.09,352.9c-1.13,0-2.06-0.92-2.06-2.06v-38.12c0-1.13,0.92-2.06,2.06-2.06h16.57v-14.4h-16.57
			c-9.09,0-16.45,7.37-16.45,16.45v38.12c0,9.09,7.37,16.45,16.45,16.45h16.57v-14.4H100.09z"/>
		<path class="st4" d="M168.53,124.89c0.7-0.86,1.1-1.33,1.1-1.33"/>
		<path class="st4" d="M155.96,143.12c1.06-1.86,2.16-3.65,3.26-5.36"/>
		<path class="st4" d="M141.94,249.24c0,0,43.78-13.1,43.78-31.87s-37.97-35.05-37.53-52.15c0.05-2,0.38-4.09,0.93-6.24"/>
	</g>
</g>
</svg>
