<?xml version="1.0" encoding="utf-8"?>
<!-- Generator: Adobe Illustrator 24.0.3, SVG Export Plug-In . SVG Version: 6.00 Build 0)  -->
<svg version="1.1" id="Layer_1" xmlns="http://www.w3.org/2000/svg" xmlns:xlink="http://www.w3.org/1999/xlink" x="0px" y="0px"
	 viewBox="0 0 512 512" style="enable-background:new 0 0 512 512;" xml:space="preserve">
<style type="text/css">
	.st0{fill:#FFFFFF;}
	.st1{fill:none;stroke:#1C1C1C;stroke-width:10.2843;stroke-linecap:round;stroke-linejoin:round;stroke-miterlimit:10;}
	.st2{fill:#E9EFCA;}
	.st3{fill:none;stroke:#A7C148;stroke-width:10.2843;stroke-linecap:round;stroke-linejoin:round;stroke-miterlimit:10;}
	.st4{opacity:0.3;fill:#AFBC66;}
	.st5{fill:#FFFFFF;stroke:#1C1C1C;stroke-width:10.2843;stroke-linecap:round;stroke-linejoin:round;stroke-miterlimit:10;}
	.st6{fill:#FFFFFF;stroke:#A7C148;stroke-width:10.2843;stroke-linecap:round;stroke-linejoin:round;stroke-miterlimit:10;}
</style>
<g>
	<g>
		<path class="st0" d="M331.42,364.16H113.06c-17.04,0-30.85-13.81-30.85-30.85V157.99c0-17.04,13.81-30.85,30.85-30.85h218.36
			c17.04,0,30.85,13.81,30.85,30.85V333.3C362.27,350.34,348.46,364.16,331.42,364.16z"/>
		<line class="st1" x1="244.43" y1="127.14" x2="246.94" y2="127.14"/>
		<line class="st1" x1="216.79" y1="127.14" x2="225.55" y2="127.14"/>
		<path class="st1" d="M82.21,211.48v-53.49c0-17.04,13.81-30.85,30.85-30.85h84.63"/>
		<line class="st1" x1="82.21" y1="233.36" x2="82.21" y2="232.38"/>
		<path class="st1" d="M266.33,127.14h65.09c17.04,0,30.85,13.81,30.85,30.85V333.3c0,17.04-13.81,30.85-30.85,30.85H113.06
			c-17.04,0-30.85-13.81-30.85-30.85v-79.43"/>
		<path class="st2" d="M113.06,357.99c-10.21,0-18.51-8.3-18.51-18.51V164.16c0-10.21,8.3-18.51,18.51-18.51h218.36
			c10.21,0,18.51,8.3,18.51,18.51v175.31c0,10.21-8.3,18.51-18.51,18.51H113.06z"/>
		
			<rect x="138.7" y="140.58" transform="matrix(-1.836970e-16 1 -1 -1.836970e-16 467.8873 23.4078)" class="st0" width="167.09" height="210.13"/>
		<line class="st3" x1="179.15" y1="162.1" x2="181.11" y2="162.1"/>
		<polyline class="st3" points="200.17,162.1 327.3,162.1 327.3,329.19 117.18,329.19 117.18,162.1 160.39,162.1 		"/>
		<path class="st4" d="M222.24,201.1c-29.1,0-52.78,23.68-52.78,52.78s23.68,52.78,52.78,52.78s52.78-23.68,52.78-52.78
			S251.34,201.1,222.24,201.1z"/>
		<path class="st5" d="M233.88,199.44c-3.72-0.94-7.62-1.43-11.64-1.43c-26.31,0-47.64,21.33-47.64,47.64s21.33,47.64,47.64,47.64
			s47.64-21.33,47.64-47.64c0-16.45-8.34-30.95-21.02-39.51"/>
		<circle class="st5" cx="222.24" cy="245.65" r="14.79"/>
		<line class="st1" x1="222.24" y1="198.01" x2="222.24" y2="230.85"/>
		<line class="st1" x1="188.56" y1="211.96" x2="211.78" y2="235.19"/>
		<line class="st1" x1="199.75" y1="245.65" x2="207.45" y2="245.65"/>
		<line class="st1" x1="174.6" y1="245.65" x2="182.68" y2="245.65"/>
		<line class="st1" x1="188.56" y1="279.33" x2="211.78" y2="256.11"/>
		<line class="st1" x1="222.24" y1="293.28" x2="222.24" y2="260.44"/>
		<line class="st1" x1="255.92" y1="279.33" x2="232.7" y2="256.11"/>
		<line class="st1" x1="269.88" y1="245.65" x2="237.03" y2="245.65"/>
		<line class="st1" x1="255.92" y1="211.96" x2="232.7" y2="235.19"/>
		<path class="st4" d="M125.8,183.7h-17.24c-2.84,0-5.14,2.3-5.14,5.14v38.4c0,2.84,2.3,5.14,5.14,5.14h17.24
			c2.84,0,5.14-2.3,5.14-5.14v-38.4C130.94,186,128.64,183.7,125.8,183.7z"/>
		<path class="st4" d="M125.8,271.25h-17.24c-2.84,0-5.14,2.3-5.14,5.14v38.4c0,2.84,2.3,5.14,5.14,5.14h17.24
			c2.84,0,5.14-2.3,5.14-5.14v-38.4C130.94,273.55,128.64,271.25,125.8,271.25z"/>
		<rect x="108.56" y="182.67" class="st6" width="17.24" height="38.4"/>
		<rect x="108.56" y="270.22" class="st6" width="17.24" height="38.4"/>
		<path class="st5" d="M159.74,384.72H139.8c-9.09,0-16.45-7.37-16.45-16.45v-4.11h52.85v4.11
			C176.19,377.36,168.83,384.72,159.74,384.72z"/>
		<path class="st5" d="M304.68,384.72h-19.94c-9.09,0-16.45-7.37-16.45-16.45v-4.11h52.85v4.11
			C321.13,377.36,313.77,384.72,304.68,384.72z"/>
	</g>
	<g>
		<path class="st0" d="M369.64,188.06L369.64,188.06c-25.29,0-45.79,20.5-45.79,45.79v66.93h91.57v-66.93
			C415.43,208.56,394.93,188.06,369.64,188.06z M392.01,277.36h-44.74v-43.52c0-12.34,10.04-22.37,22.37-22.37
			c12.34,0,22.37,10.04,22.37,22.37V277.36z"/>
		<path class="st1" d="M383.62,190.24c-4.41-1.41-9.11-2.17-13.98-2.17h0c-25.29,0-45.79,20.5-45.79,45.79v66.93h91.57v-66.93
			c0-11-3.88-21.1-10.35-29 M392.01,277.36h-44.74v-43.52c0-12.34,10.04-22.37,22.37-22.37c12.34,0,22.37,10.04,22.37,22.37V277.36z
			"/>
		<path class="st5" d="M406.27,273.62h-73.27c-11.99,0-21.71,9.72-21.71,21.71v67.68c0,11.99,9.72,21.71,21.71,21.71h73.27
			c11.99,0,21.71-9.72,21.71-21.71v-67.68C427.98,283.34,418.26,273.62,406.27,273.62z"/>
		<path class="st0" d="M385.02,316.64c0-8.49-6.89-15.38-15.38-15.38s-15.38,6.89-15.38,15.38c0,4.63,2.05,8.76,5.28,11.58v17.6
			c0,5.58,4.52,10.09,10.09,10.09h0c5.57,0,10.09-4.52,10.09-10.09v-17.6C382.97,325.4,385.02,321.26,385.02,316.64z"/>
		<path class="st3" d="M369.64,301.26c-8.49,0-15.38,6.89-15.38,15.38c0,4.63,2.05,8.76,5.28,11.58v17.6
			c0,5.58,4.52,10.09,10.09,10.09h0c5.57,0,10.09-4.52,10.09-10.09v-17.6c3.23-2.82,5.28-6.96,5.28-11.58
			c0-2.12-0.43-4.15-1.21-5.99"/>
	</g>
	<g>
		<line class="st1" x1="451.97" y1="384.72" x2="466.38" y2="384.72"/>
		<line class="st1" x1="68" y1="384.72" x2="435.22" y2="384.72"/>
		<line class="st1" x1="46.22" y1="384.72" x2="51.92" y2="384.72"/>
	</g>
</g>
</svg>
