<?xml version="1.0" encoding="utf-8"?>
<!-- Generator: Adobe Illustrator 24.0.3, SVG Export Plug-In . SVG Version: 6.00 Build 0)  -->
<svg version="1.1" id="Layer_1" xmlns="http://www.w3.org/2000/svg" xmlns:xlink="http://www.w3.org/1999/xlink" x="0px" y="0px"
	 viewBox="0 0 512 512" style="enable-background:new 0 0 512 512;" xml:space="preserve">
<style type="text/css">
	.st0{fill:#FFFFFF;}
	.st1{fill:none;stroke:#1C1C1C;stroke-width:10.2843;stroke-linecap:round;stroke-linejoin:round;stroke-miterlimit:10;}
	.st2{fill:#E9EFCA;}
	.st3{fill:none;stroke:#A7C148;stroke-width:10.2843;stroke-linecap:round;stroke-linejoin:round;stroke-miterlimit:10;}
	.st4{fill:none;}
	.st5{fill:#FFFFFF;stroke:#1C1C1C;stroke-width:10.2843;stroke-linecap:round;stroke-linejoin:round;stroke-miterlimit:10;}
</style>
<g>
	<g>
		<path class="st0" d="M358.63,323.81H85.09v-79.25c0-8.47,3.75-16.51,10.25-21.95l108.14-90.54c10.63-8.9,26.12-8.9,36.75,0
			l108.14,90.54c6.5,5.44,10.25,13.48,10.25,21.95V323.81z"/>
		<line class="st1" x1="164.13" y1="165.01" x2="165.66" y2="163.73"/>
		<line class="st1" x1="147.31" y1="179.1" x2="151.23" y2="175.81"/>
		<path class="st1" d="M179.54,152.11l23.94-20.05c10.63-8.9,26.12-8.9,36.75,0l108.14,90.54c6.5,5.44,10.25,13.48,10.25,21.95
			v79.25H85.09v-79.25c0-8.47,3.75-16.51,10.25-21.95l38.23-32.01"/>
		<path class="st2" d="M97.43,317.64v-66.91c0-4.83,2.13-9.39,5.83-12.49l108.14-90.54c2.93-2.45,6.64-3.8,10.46-3.8
			s7.53,1.35,10.45,3.8l108.14,90.54c3.71,3.1,5.83,7.65,5.83,12.49v66.91H97.43z"/>
		<g>
			
				<rect x="115.78" y="198.09" transform="matrix(0.7387 -0.674 0.674 0.7387 -114.0841 215.5826)" class="st0" width="210.45" height="113.69"/>
			
				<rect x="115.78" y="198.09" transform="matrix(0.7387 -0.674 0.674 0.7387 -114.0841 215.5826)" class="st0" width="210.45" height="113.69"/>
			<path class="st2" d="M133.54,257.79l-28.58,26.08l26.08,28.58l24.48,26.82l26.08,28.58l28.58-26.08l98.3-89.69l0,0L337.05,226
				l0,0l-26.08-28.58L286.5,170.6l-26.08-28.58l0,0L133.54,257.79z M303.86,206.14c-6.65,11.11-7.29,24.92-1.68,36.6l-100.73,91.91
				c-11.11-6.65-24.92-7.29-36.6-1.67l-26.69-29.25c6.65-11.11,7.29-24.92,1.68-36.6l100.73-91.91c11.11,6.65,24.92,7.29,36.6,1.68
				L303.86,206.14z"/>
			<polyline class="st3" points="235.22,165.01 260.42,142.02 337.05,226 181.6,367.85 104.96,283.87 221.01,177.98 			"/>
			<circle class="st2" cx="221.01" cy="254.93" r="30.28"/>
		</g>
		<g>
			
				<rect x="128.13" y="206.31" transform="matrix(0.8429 -0.5381 0.5381 0.8429 -104.9431 166.9137)" class="st0" width="210.45" height="113.69"/>
			
				<rect x="128.13" y="206.31" transform="matrix(0.8429 -0.5381 0.5381 0.8429 -104.9431 166.9137)" class="st0" width="210.45" height="113.69"/>
			<path class="st2" d="M146.68,251.05l-32.61,20.82l20.82,32.61l19.54,30.61l20.82,32.61l32.61-20.82l112.16-71.61l0,0l32.61-20.82
				l0,0l-20.82-32.61l-19.54-30.61l-20.82-32.61l0,0L146.68,251.05z M323.31,229.22c-8.45,9.82-11.43,23.32-7.9,35.78l-114.93,73.38
				c-9.82-8.45-23.32-11.43-35.78-7.9l-21.31-33.38c8.45-9.82,11.43-23.32,7.9-35.78l114.93-73.38c9.82,8.45,23.32,11.43,35.78,7.9
				L323.31,229.22z"/>
			
				<rect x="128.13" y="206.31" transform="matrix(0.8429 -0.5381 0.5381 0.8429 -104.9431 166.9137)" class="st3" width="210.45" height="113.69"/>
			<circle class="st2" cx="233.35" cy="263.16" r="30.28"/>
		</g>
		<g>
			
				<rect x="138.41" y="220.71" transform="matrix(0.9611 -0.2763 0.2763 0.9611 -67.2022 78.1165)" class="st0" width="210.45" height="113.69"/>
			
				<rect x="138.41" y="220.71" transform="matrix(0.9611 -0.2763 0.2763 0.9611 -67.2022 78.1165)" class="st0" width="210.45" height="113.69"/>
			<path class="st2" d="M163.98,241.31L126.8,252l10.69,37.18l10.03,34.9l10.69,37.18l37.18-10.69l127.89-36.77l0,0l37.18-10.69l0,0
				l-10.69-37.18l-10.03-34.9l-10.69-37.18l0,0L163.98,241.31z M339.53,270.59c-10.89,7.01-17.59,19.1-17.74,32.06l-131.05,37.67
				c-7.01-10.89-19.1-17.59-32.06-17.74l-10.94-38.06c10.89-7.01,17.59-19.1,17.74-32.06l131.05-37.67
				c7.01,10.89,19.1,17.59,32.06,17.74L339.53,270.59z"/>
			
				<rect x="138.41" y="220.71" transform="matrix(0.9611 -0.2763 0.2763 0.9611 -67.2022 78.1165)" class="st4" width="210.45" height="113.69"/>
			<line class="st3" x1="266.13" y1="211.94" x2="269.81" y2="210.89"/>
			<polyline class="st3" points="290.68,204.88 329.06,193.85 360.47,303.12 158.21,361.26 126.8,252 243.63,218.41 			"/>
			<circle class="st2" cx="243.63" cy="277.56" r="30.28"/>
		</g>
		<path class="st5" d="M310.5,242.26l-69.13,64.36c-10.99,10.23-28.02,10.23-39.01,0l-69.13-64.36
			c-18.31-17.04-48.13-4.06-48.13,20.95v94.63c0,15.81,12.82,28.63,28.63,28.63h216.29c15.81,0,28.63-12.82,28.63-28.63v-94.63
			C358.63,238.2,328.81,225.22,310.5,242.26z"/>
		<path class="st0" d="M243.68,304.47l-5.2-3.71c-9.95-7.1-23.3-7.1-33.25,0l-5.2,3.71L94.96,379.44
			c5.03,4.37,11.58,7.04,18.76,7.04h216.29c7.19,0,13.73-2.67,18.76-7.04L243.68,304.47z"/>
		<path class="st1" d="M266.13,320.49l-22.45-16.02l-5.2-3.71c-9.95-7.1-23.3-7.1-33.25,0l-5.2,3.71L94.96,379.44
			c5.03,4.37,11.58,7.04,18.76,7.04h216.29c7.19,0,13.73-2.67,18.76-7.04l-50.8-36.24"/>
		<line class="st1" x1="284.04" y1="333.26" x2="282.18" y2="331.93"/>
	</g>
	<g>
		<path class="st0" d="M319.72,208.38h93.15c8.76,0,15.86,7.1,15.86,15.86v146.38c0,8.76-7.1,15.86-15.86,15.86h-93.15
			c-8.76,0-15.86-7.1-15.86-15.86V224.24C303.86,215.48,310.96,208.38,319.72,208.38z"/>
		<line class="st1" x1="394.83" y1="208.38" x2="395.91" y2="208.38"/>
		<path class="st1" d="M412.86,208.38c8.76,0,15.86,7.1,15.86,15.86v146.38c0,8.76-7.1,15.86-15.86,15.86h-93.15
			c-8.76,0-15.86-7.1-15.86-15.86V224.24c0-8.76,7.1-15.86,15.86-15.86h55.64"/>
		<path class="st2" d="M407.19,224.84h-81.81c-2.84,0-5.14,2.3-5.14,5.14v26.69c0,2.84,2.3,5.14,5.14,5.14h81.81
			c2.84,0,5.14-2.3,5.14-5.14v-26.69C412.33,227.14,410.03,224.84,407.19,224.84z"/>
		<rect x="325.39" y="277.65" class="st5" width="16.25" height="16.25"/>
		<rect x="391.02" y="277.65" class="st5" width="16.25" height="16.25"/>
		<rect x="358.17" y="277.65" class="st5" width="16.25" height="16.25"/>
		<rect x="325.39" y="311.53" class="st5" width="16.25" height="16.25"/>
		<rect x="358.17" y="311.53" class="st5" width="16.25" height="16.25"/>
		<rect x="325.39" y="345.4" class="st5" width="16.25" height="16.25"/>
		<rect x="391.02" y="311.53" class="st0" width="16.25" height="50.12"/>
		<polyline class="st3" points="397.47,311.53 407.26,311.53 407.26,361.65 391.02,361.65 391.02,327.88 		"/>
		<rect x="358.17" y="345.4" class="st5" width="16.25" height="16.25"/>
	</g>
	<g>
		<line class="st1" x1="451.97" y1="386.48" x2="466.38" y2="386.48"/>
		<line class="st1" x1="68" y1="386.48" x2="435.22" y2="386.48"/>
		<line class="st1" x1="46.22" y1="386.48" x2="51.92" y2="386.48"/>
	</g>
</g>
</svg>
