<?xml version="1.0" encoding="utf-8"?>
<!-- Generator: Adobe Illustrator 24.0.3, SVG Export Plug-In . SVG Version: 6.00 Build 0)  -->
<svg version="1.1" id="Layer_1" xmlns="http://www.w3.org/2000/svg" xmlns:xlink="http://www.w3.org/1999/xlink" x="0px" y="0px"
	 viewBox="0 0 512 512" style="enable-background:new 0 0 512 512;" xml:space="preserve">
<style type="text/css">
	.st0{fill:#FFFFFF;}
	.st1{fill:none;stroke:#1C1C1C;stroke-width:10.2843;stroke-linecap:round;stroke-linejoin:round;stroke-miterlimit:10;}
	.st2{fill:none;stroke:#A7C148;stroke-width:10.2843;stroke-linecap:round;stroke-linejoin:round;stroke-miterlimit:10;}
	.st3{fill:#E9EFCA;}
	.st4{fill:#FFFFFF;stroke:#1C1C1C;stroke-width:10.2843;stroke-linecap:round;stroke-linejoin:round;stroke-miterlimit:10;}
	.st5{opacity:0.3;fill:#AFBC66;}
	.st6{fill:#FFFFFF;stroke:#A7C148;stroke-width:10.2843;stroke-linecap:round;stroke-linejoin:round;stroke-miterlimit:10;}
</style>
<g>
	<g>
		<path class="st0" d="M314.49,397.11H114.4c-17.04,0-30.85-13.81-30.85-30.85V145.6c0-17.04,13.81-30.85,30.85-30.85h200.09
			c17.04,0,30.85,13.81,30.85,30.85v220.66C345.35,383.3,331.53,397.11,314.49,397.11z"/>
		<line class="st1" x1="258.14" y1="114.75" x2="260.42" y2="114.75"/>
		<line class="st1" x1="228.92" y1="114.75" x2="239.98" y2="114.75"/>
		<path class="st1" d="M83.55,237.35V145.6c0-17.04,13.81-30.85,30.85-30.85h95.8"/>
		<line class="st1" x1="83.55" y1="258.24" x2="83.55" y2="255.93"/>
		<path class="st1" d="M280.33,114.75h34.16c17.04,0,30.85,13.81,30.85,30.85v220.66c0,17.04-13.81,30.85-30.85,30.85H114.4
			c-17.04,0-30.85-13.81-30.85-30.85V277.4"/>
		<path class="st0" d="M147.31,244.91c-3.4,0-6.17-2.77-6.17-6.17V145.6c0-3.4,2.77-6.17,6.17-6.17h134.28
			c3.4,0,6.17,2.77,6.17,6.17v93.14c0,3.4-2.77,6.17-6.17,6.17H147.31z"/>
		<line class="st2" x1="181.65" y1="139.43" x2="183.71" y2="139.43"/>
		<path class="st2" d="M201.48,139.43h80.1c3.4,0,6.17,2.77,6.17,6.17v93.14c0,3.4-2.77,6.17-6.17,6.17H147.31
			c-3.4,0-6.17-2.77-6.17-6.17V145.6c0-3.4,2.77-6.17,6.17-6.17h15.31"/>
		
			<rect x="174.05" y="137.37" transform="matrix(-1.836970e-16 1 -1 -1.836970e-16 412.7844 -16.1072)" class="st3" width="80.8" height="121.93"/>
		<rect x="108.23" y="270.76" class="st4" width="87.89" height="22.34"/>
		<path class="st5" d="M183.71,271.79L183.71,271.79h-63.07l0,0c-2.84,0-5.14,2.3-5.14,5.14v98.23c0,2.84,2.3,5.14,5.14,5.14h63.07
			c2.84,0,5.14-2.3,5.14-5.14v-98.23C188.85,274.09,186.55,271.79,183.71,271.79z"/>
		<g>
			
				<rect x="102.83" y="288.11" transform="matrix(-1.836970e-16 1 -1 -1.836970e-16 471.8236 167.4743)" class="st0" width="98.69" height="63.07"/>
			<path class="st3" d="M177.53,276v72.45c-6.88,2.07-12.3,7.49-14.37,14.37h-21.97c-2.07-6.88-7.49-12.3-14.37-14.37V276h-6.18
				v71.53v21.46h21.46h20.14h21.46v-93H177.53z"/>
			
				<rect x="103.06" y="288.34" transform="matrix(-1.836970e-16 1 -1 -1.836970e-16 472.0522 167.7029)" class="st1" width="98.23" height="63.07"/>
			<circle class="st3" cx="152.17" cy="310.62" r="16.8"/>
		</g>
		<rect x="221.34" y="270.76" class="st4" width="19.11" height="19.11"/>
		<rect x="256.3" y="270.76" class="st4" width="19.11" height="19.11"/>
		<rect x="291.27" y="270.76" class="st4" width="19.11" height="19.11"/>
		<rect x="221.34" y="305.73" class="st4" width="19.11" height="19.11"/>
		<rect x="256.3" y="305.73" class="st4" width="19.11" height="19.11"/>
		<rect x="291.27" y="305.73" class="st4" width="19.11" height="19.11"/>
		<rect x="221.34" y="340.69" class="st4" width="19.11" height="19.11"/>
		<rect x="256.3" y="340.69" class="st6" width="54.08" height="19.11"/>
		<line class="st1" x1="108.23" y1="167.82" x2="121.3" y2="167.82"/>
		<line class="st1" x1="108.23" y1="190.45" x2="121.3" y2="190.45"/>
		<line class="st1" x1="108.23" y1="213.07" x2="121.3" y2="213.07"/>
		<line class="st1" x1="307.59" y1="167.82" x2="320.66" y2="167.82"/>
		<line class="st1" x1="307.59" y1="190.45" x2="320.66" y2="190.45"/>
		<line class="st1" x1="307.59" y1="213.07" x2="320.66" y2="213.07"/>
	</g>
	<g>
		<path class="st0" d="M348.44,214.76h64.42c9.09,0,16.45,7.37,16.45,16.45v149.02c0,9.09-7.37,16.45-16.45,16.45h-64.42
			c-9.09,0-16.45-7.37-16.45-16.45V231.22C331.99,222.13,339.36,214.76,348.44,214.76z"/>
		<line class="st1" x1="390.54" y1="214.76" x2="393.1" y2="214.76"/>
		<path class="st1" d="M412.86,214.76c9.09,0,16.45,7.37,16.45,16.45v149.02c0,9.09-7.37,16.45-16.45,16.45h-64.42
			c-9.09,0-16.45-7.37-16.45-16.45V231.22c0-9.09,7.37-16.45,16.45-16.45h21.82"/>
		<line class="st1" x1="362.13" y1="233.46" x2="399.18" y2="233.46"/>
		<g>
			<rect x="354.02" y="271.38" class="st6" width="16.25" height="16.25"/>
			<rect x="391.04" y="271.38" class="st6" width="16.25" height="16.25"/>
		</g>
		<g>
			<rect x="354.02" y="308.4" class="st6" width="16.25" height="16.25"/>
			<rect x="391.04" y="308.4" class="st6" width="16.25" height="16.25"/>
		</g>
		<g>
			<rect x="354.02" y="345.42" class="st6" width="16.25" height="16.25"/>
			<rect x="391.04" y="345.42" class="st6" width="16.25" height="16.25"/>
		</g>
	</g>
	<g>
		<line class="st1" x1="451.97" y1="397.11" x2="466.38" y2="397.11"/>
		<line class="st1" x1="68" y1="397.11" x2="435.22" y2="397.11"/>
		<line class="st1" x1="46.22" y1="397.11" x2="51.92" y2="397.11"/>
	</g>
</g>
</svg>
