<?xml version="1.0" encoding="utf-8"?>
<!-- Generator: Adobe Illustrator 24.0.3, SVG Export Plug-In . SVG Version: 6.00 Build 0)  -->
<svg version="1.1" id="Layer_1" xmlns="http://www.w3.org/2000/svg" xmlns:xlink="http://www.w3.org/1999/xlink" x="0px" y="0px"
	 viewBox="0 0 512 512" style="enable-background:new 0 0 512 512;" xml:space="preserve">
<style type="text/css">
	.st0{fill:#FFFFFF;}
	.st1{fill:none;stroke:#1C1C1C;stroke-width:10.2843;stroke-linecap:round;stroke-linejoin:round;stroke-miterlimit:10;}
	.st2{fill:#E9EFCA;}
	.st3{opacity:0.3;fill:#AFBC66;}
	.st4{fill:#FFFFFF;stroke:#1C1C1C;stroke-width:10.2843;stroke-linecap:round;stroke-linejoin:round;stroke-miterlimit:10;}
	.st5{fill:#FFFFFF;stroke:#A7C148;stroke-width:10.2843;stroke-linecap:round;stroke-linejoin:round;stroke-miterlimit:10;}
</style>
<g>
	<g>
		<path class="st0" d="M293.86,383.98H114.27c-9.09,0-16.45-7.37-16.45-16.45V129.86c0-9.09,7.37-16.45,16.45-16.45h179.59
			c9.09,0,16.45,7.37,16.45,16.45v237.67C310.31,376.62,302.95,383.98,293.86,383.98z"/>
		<line class="st1" x1="244.46" y1="113.41" x2="246.08" y2="113.41"/>
		<line class="st1" x1="218.33" y1="113.41" x2="227.04" y2="113.41"/>
		<path class="st1" d="M264.9,113.41h28.96c9.09,0,16.45,7.37,16.45,16.45l0,252.14c0,9.09-7.37,16.45-16.45,16.45H114.27
			c-9.09,0-16.45-7.37-16.45-16.45l0-252.14c0-9.09,7.37-16.45,16.45-16.45h85.97"/>
		<path class="st2" d="M114.27,377.81c-2.27,0-4.11-1.85-4.11-4.11V136.03c0-2.27,1.84-4.11,4.11-4.11h179.59
			c2.27,0,4.11,1.85,4.11,4.11V373.7c0,2.27-1.84,4.11-4.11,4.11H114.27z"/>
		<g>
			<path class="st0" d="M248.14,127.81H99.87c-9.09,0-16.45,7.37-16.45,16.45v237.67c0,9.09,7.37,16.45,16.45,16.45h179.59
				c9.09,0,16.45-7.37,16.45-16.45V175.58L248.14,127.81z"/>
			<path class="st1" d="M146.58,127.81H99.87c-9.09,0-16.45,7.37-16.45,16.45v237.67c0,9.09,7.37,16.45,16.45,16.45h179.59
				c9.09,0,16.45-7.37,16.45-16.45V175.58l-47.78-47.78h-65.9"/>
			<line class="st1" x1="164.5" y1="127.81" x2="164.1" y2="127.81"/>
			<path class="st3" d="M243.11,132.95c-0.07,0.34-0.12,0.68-0.12,1.03v31.32c0,11.91,9.69,21.6,21.6,21.6h26.18v-9.18l-44.76-44.76
				H243.11z"/>
			<path class="st4" d="M248.14,159.13c0,9.09,7.37,16.45,16.45,16.45h31.32l-47.78-47.78V159.13z"/>
		</g>
		<line class="st1" x1="115.38" y1="183.81" x2="189.67" y2="183.81"/>
		<line class="st1" x1="115.38" y1="220.83" x2="261.66" y2="220.83"/>
		<line class="st1" x1="115.38" y1="257.86" x2="261.66" y2="257.86"/>
		<line class="st1" x1="115.38" y1="294.88" x2="261.66" y2="294.88"/>
		<rect x="115.38" y="327.48" class="st5" width="74.28" height="33.95"/>
	</g>
	<path class="st3" d="M337.17,308c0.09,1.97,0.1,4.05,0.06,6.17h32.73c-0.04-2.12-0.03-4.2,0.06-6.17H337.17z"/>
	<g>
		<path class="st4" d="M331.5,302.86c2.19,12.68-1.98,38.46-1.98,38.46h48.17c0,0-4.17-25.78-1.98-38.46H331.5z"/>
		<path class="st0" d="M313.67,341.33h73.89c17.04,0,30.85,13.81,30.85,30.85v1.57H282.81v-1.57
			C282.81,355.14,296.63,341.33,313.67,341.33z"/>
		<path class="st1" d="M413.33,355.23c3.21,4.86,5.07,10.69,5.07,16.95v1.57H282.81v-1.57c0-17.04,13.81-30.85,30.85-30.85h73.89
			c4.73,0,9.22,1.07,13.23,2.97"/>
		<rect x="272.03" y="373.75" class="st5" width="157.16" height="24.63"/>
		<path class="st0" d="M331.5,302.86h44.2c0.27-1.56,0.63-2.94,1.11-4.03c5.01-11.32,20.77-31.06,20.77-45.61
			c0-39.74-17.19-57.48-43.99-57.48s-43.99,17.74-43.99,57.48c0,14.55,15.76,34.29,20.77,45.61
			C330.87,299.93,331.23,301.3,331.5,302.86z"/>
		<path class="st1" d="M371,198.81c-0.6-0.24-1.21-0.46-1.82-0.67"/>
		<path class="st1" d="M386.45,210.6c-0.89-1.17-1.82-2.26-2.8-3.29"/>
		<path class="st1" d="M351.71,195.77c-25.71,0.83-42.09,18.66-42.09,57.45c0,14.55,15.76,34.29,20.77,45.61
			c0.48,1.09,0.84,2.47,1.11,4.03h44.2c0.27-1.56,0.63-2.94,1.11-4.03c5.01-11.32,20.77-31.06,20.77-45.61
			c0-10.72-1.25-19.84-3.61-27.45"/>
		<path class="st2" d="M340.07,296.69c-1.72-3.32-3.86-6.89-6.09-10.62c-5.07-8.47-12.02-20.07-12.02-26.68
			c0-45.14,23.82-45.14,31.64-45.14c7.83,0,31.64,0,31.64,45.14c0,6.62-6.95,18.22-12.03,26.69c-2.23,3.72-4.37,7.29-6.09,10.61
			H340.07z"/>
	</g>
	<g>
		<line class="st1" x1="451.97" y1="398.45" x2="466.38" y2="398.45"/>
		<line class="st1" x1="68" y1="398.45" x2="435.22" y2="398.45"/>
		<line class="st1" x1="46.22" y1="398.45" x2="51.92" y2="398.45"/>
	</g>
</g>
</svg>
