<?xml version="1.0" encoding="utf-8"?>
<!-- Generator: Adobe Illustrator 24.0.3, SVG Export Plug-In . SVG Version: 6.00 Build 0)  -->
<svg version="1.1" id="Layer_1" xmlns="http://www.w3.org/2000/svg" xmlns:xlink="http://www.w3.org/1999/xlink" x="0px" y="0px"
	 viewBox="0 0 512 512" style="enable-background:new 0 0 512 512;" xml:space="preserve">
<style type="text/css">
	.st0{fill:none;stroke:#1C1C1C;stroke-width:10.2843;stroke-linecap:round;stroke-linejoin:round;stroke-miterlimit:10;}
	.st1{fill:#FFFFFF;stroke:#A7C148;stroke-width:10.2843;stroke-linecap:round;stroke-linejoin:round;stroke-miterlimit:10;}
	.st2{fill:#FFFFFF;stroke:#1C1C1C;stroke-width:10.2843;stroke-linecap:round;stroke-linejoin:round;stroke-miterlimit:10;}
	.st3{opacity:0.3;fill:#AFBC66;}
	.st4{fill:#FFFFFF;}
	.st5{fill:#E9EFCA;}
</style>
<g>
	<g>
		<line class="st0" x1="451.97" y1="362.57" x2="466.38" y2="362.57"/>
		<line class="st0" x1="68" y1="362.57" x2="435.22" y2="362.57"/>
		<line class="st0" x1="46.22" y1="362.57" x2="51.92" y2="362.57"/>
	</g>
	<g>
		
			<rect x="171.09" y="242.73" transform="matrix(-1.836970e-16 1 -1 -1.836970e-16 517.2045 139.5847)" class="st1" width="35.44" height="171.34"/>
		<path class="st2" d="M103.14,346.12v-35.44h181.62v-16.45H103.14c-9.09,0-16.45,7.37-16.45,16.45v35.44
			c0,9.09,7.37,16.45,16.45,16.45h181.62v-16.45H103.14z"/>
		<rect x="108.28" y="315.82" class="st3" width="161.05" height="6.17"/>
		<path class="st3" d="M118.26,351.26v2.13c0,1.32,0.51,2.6,1.43,3.55l0.47,0.49h22.23l0.47-0.49c0.91-0.96,1.43-2.23,1.43-3.55
			v-2.13H118.26z"/>
		<polygon class="st1" points="139.13,349.27 131.27,357.5 123.4,349.27 123.4,332.46 139.13,332.46 		"/>
		
			<rect x="196.15" y="159.98" transform="matrix(-1.836970e-16 1 -1 -1.836970e-16 473.9177 37.9429)" class="st1" width="43.67" height="191.91"/>
		<path class="st4" d="M122.03,277.77V234.1h202.19v-16.45H122.03c-9.09,0-16.45,7.37-16.45,16.45v43.67
			c0,9.09,7.37,16.45,16.45,16.45h202.19v-16.45H122.03z"/>
		<path class="st0" d="M105.58,260.79v16.98c0,9.09,7.37,16.45,16.45,16.45h202.19v-16.45H122.03V234.1h202.19v-16.45H122.03
			c-9.09,0-16.45,7.37-16.45,16.45v9.75"/>
		<rect x="127.18" y="239.24" class="st3" width="181.62" height="6.17"/>
		
			<rect x="183.24" y="82.37" transform="matrix(-1.836970e-16 1 -1 -1.836970e-16 384.432 -17.4997)" class="st1" width="35.44" height="202.19"/>
		<rect x="105.01" y="170.89" class="st3" width="191.91" height="6.17"/>
		<path class="st3" d="M141.72,206.33v2.13c0,1.32,0.51,2.6,1.43,3.55l0.47,0.49h22.23l0.47-0.49c0.91-0.96,1.43-2.23,1.43-3.55
			v-2.13H141.72z"/>
		<path class="st4" d="M258.6,149.29h53.74v16.45H99.87v35.44h212.48v16.45H99.87c-9.09,0-16.45-7.37-16.45-16.45v-35.44
			c0-9.09,7.37-16.45,16.45-16.45h87.91H258.6z"/>
		<line class="st0" x1="240.94" y1="149.29" x2="240.89" y2="149.29"/>
		<line class="st0" x1="219.05" y1="149.29" x2="224.14" y2="149.29"/>
		<path class="st0" d="M258.6,149.29h53.74v16.45H99.87v35.44h212.48v16.45H99.87c-9.09,0-16.45-7.37-16.45-16.45v-35.44
			c0-9.09,7.37-16.45,16.45-16.45h87.91h13.18"/>
		<polygon class="st1" points="162.6,204.34 154.73,212.57 146.87,204.34 146.87,187.53 162.6,187.53 		"/>
		<path class="st3" d="M99.87,299.85v6.89c0.89-0.74,2.02-1.2,3.27-1.2h176.48v-6.17H103.14C102,299.36,100.91,299.53,99.87,299.85z
			"/>
		<path class="st3" d="M120.84,229.11c0.39-0.09,0.78-0.15,1.2-0.15h197.05v-6.17H122.03c-4.45,0-8.29,2.58-10.14,6.32H120.84z"/>
	</g>
	<g>
		<path class="st4" d="M319.03,184.47h93.15c8.76,0,15.86,7.1,15.86,15.86v146.38c0,8.76-7.1,15.86-15.86,15.86h-93.15
			c-8.76,0-15.86-7.1-15.86-15.86V200.33C303.17,191.57,310.27,184.47,319.03,184.47z"/>
		<line class="st0" x1="392.03" y1="184.47" x2="394.45" y2="184.47"/>
		<path class="st0" d="M412.18,184.47c8.76,0,15.86,7.1,15.86,15.86v146.38c0,8.76-7.1,15.86-15.86,15.86h-93.15
			c-8.76,0-15.86-7.1-15.86-15.86V200.33c0-8.76,7.1-15.86,15.86-15.86h55.57"/>
		<path class="st5" d="M406.51,200.93H324.7c-2.84,0-5.14,2.3-5.14,5.14v26.69c0,2.84,2.3,5.14,5.14,5.14h81.81
			c2.84,0,5.14-2.3,5.14-5.14v-26.69C411.65,203.23,409.35,200.93,406.51,200.93z"/>
		<rect x="324.7" y="253.75" class="st2" width="16.25" height="16.25"/>
		<rect x="390.33" y="253.75" class="st2" width="16.25" height="16.25"/>
		<rect x="357.48" y="253.75" class="st2" width="16.25" height="16.25"/>
		<rect x="324.7" y="287.62" class="st2" width="16.25" height="16.25"/>
		<rect x="357.48" y="287.62" class="st2" width="16.25" height="16.25"/>
		<rect x="324.7" y="321.49" class="st2" width="16.25" height="16.25"/>
		<rect x="390.33" y="287.62" class="st1" width="16.25" height="50.12"/>
		<rect x="357.48" y="321.49" class="st2" width="16.25" height="16.25"/>
	</g>
</g>
</svg>
