<?xml version="1.0" encoding="utf-8"?>
<!-- Generator: Adobe Illustrator 16.0.0, SVG Export Plug-In . SVG Version: 6.00 Build 0)  -->
<!DOCTYPE svg PUBLIC "-//W3C//DTD SVG 1.1//EN" "http://www.w3.org/Graphics/SVG/1.1/DTD/svg11.dtd">
<svg version="1.1"
	 id="svg991" sodipodi:docname="Coca-Cola_logo.svg" inkscape:version="1.0 (4035a4fb49, 2020-05-01)" xmlns:dc="http://purl.org/dc/elements/1.1/" xmlns:cc="http://creativecommons.org/ns#" xmlns:inkscape="http://www.inkscape.org/namespaces/inkscape" xmlns:sodipodi="http://sodipodi.sourceforge.net/DTD/sodipodi-0.dtd" xmlns:svg="http://www.w3.org/2000/svg" xmlns:rdf="http://www.w3.org/1999/02/22-rdf-syntax-ns#"
	 xmlns="http://www.w3.org/2000/svg" xmlns:xlink="http://www.w3.org/1999/xlink" x="0px" y="0px" width="720px" height="340px"
	 viewBox="-259 -136.256 720 340" enable-background="new -259 -136.256 720 340" xml:space="preserve">
<g id="layer1" transform="translate(-333.70157,-536.42431)">
	<g id="g10267" transform="matrix(4.9846856,0,0,-4.9846856,-1470.1185,1039.6264)">
		<g>
			<defs>
				<path id="SVGID_1_" d="M380.756,98.611c-0.028-2.178,1.941-3.393,3.423-4.115c1.523-0.741,2.035-1.217,2.029-1.88
					c-0.012-1.014-1.215-1.462-2.342-1.48c-1.965-0.031-3.108,0.531-4.016,0.955l-0.708-3.313c0.911-0.42,2.599-0.786,4.349-0.802
					c4.108,0,6.796,2.028,6.81,5.172c0.016,3.99-5.519,4.211-5.482,5.995c0.013,0.541,0.529,1.118,1.66,1.265
					c0.56,0.074,2.105,0.131,3.857-0.676l0.687,3.205c-0.942,0.343-2.153,0.672-3.66,0.672
					C383.498,103.609,380.778,101.553,380.756,98.611 M397.632,103.333c-0.75,0-1.382-0.438-1.664-1.109l-5.868-14.012h4.105
					l0.817,2.258h5.017l0.474-2.258h3.618l-3.157,15.121H397.632 M398.206,99.248l1.185-5.678h-3.245L398.206,99.248
					 M375.779,103.333l-3.236-15.121h3.912l3.234,15.121H375.779 M369.992,103.333l-4.072-10.292l-1.647,8.751
					c-0.193,0.977-0.957,1.541-1.804,1.541h-6.656l-0.093-0.439c1.366-0.297,2.919-0.775,3.859-1.286
					c0.576-0.312,0.74-0.586,0.929-1.329l3.12-12.067h4.134l6.338,15.121H369.992"/>
			</defs>
			<clipPath id="SVGID_2_">
				<use xlink:href="#SVGID_1_"  overflow="visible"/>
			</clipPath>
			<g id="g10269" clip-path="url(#SVGID_2_)">
				<g id="g10275" transform="translate(351.611,96.896)">
					
						<linearGradient id="path10283_1_" gradientUnits="userSpaceOnUse" x1="-41.524" y1="-36.8094" x2="-41.0397" y2="-36.8094" gradientTransform="matrix(419.708 154.5691 154.5691 -419.708 23126 -9039.1543)">
						<stop  offset="0" style="stop-color:#222357"/>
						<stop  offset="1" style="stop-color:#254AA5"/>
					</linearGradient>
					<path id="path10283" fill="url(#path10283_1_)" d="M-0.96,4.846l47.697,17.566L57.588-7.053L9.891-24.619"/>
				</g>
			</g>
		</g>
	</g>
</g>
</svg>
